# MagicaVoxel @ Ephtracy

# group
o 

# material
mtllib Checkpoint.mtl
usemtl palette

# normals
vn -1 0 0
vn 1 0 0
vn 0 0 1
vn 0 0 -1
vn 0 -1 0
vn 0 1 0

# texcoords
vt 0.541016 0.5
vt 0.556641 0.5
vt 0.990234 0.5

# verts
v -2 0 1.7
v -2 0 -1.7
v -2 0.2 1.7
v -2 0.2 -1.7
v -1.9 0 1.8
v -1.9 0 1.7
v -1.9 0 -1.7
v -1.9 0 -1.8
v -1.9 0.2 1.8
v -1.9 0.2 1.7
v -1.9 0.2 1.6
v -1.9 0.2 -1.6
v -1.9 0.2 -1.7
v -1.9 0.2 -1.8
v -1.9 0.3 1.6
v -1.9 0.3 -1.6
v -1.8 0 1.9
v -1.8 0 1.8
v -1.8 0 -1.8
v -1.8 0 -1.9
v -1.8 0.2 1.9
v -1.8 0.2 1.8
v -1.8 0.2 1.7
v -1.8 0.2 1.6
v -1.8 0.2 -1.6
v -1.8 0.2 -1.7
v -1.8 0.2 -1.8
v -1.8 0.2 -1.9
v -1.8 0.3 1.7
v -1.8 0.3 1.6
v -1.8 0.3 -1.6
v -1.8 0.3 -1.7
v -1.7 0 2
v -1.7 0 1.9
v -1.7 0 -1.9
v -1.7 0 -2
v -1.7 0.2 2
v -1.7 0.2 1.9
v -1.7 0.2 1.8
v -1.7 0.2 1.7
v -1.7 0.2 -1.7
v -1.7 0.2 -1.8
v -1.7 0.2 -1.9
v -1.7 0.2 -2
v -1.7 0.3 1.8
v -1.7 0.3 1.7
v -1.7 0.3 -1.7
v -1.7 0.3 -1.8
v -1.6 0.2 1.9
v -1.6 0.2 1.8
v -1.6 0.2 0.0999999
v -1.6 0.2 -2.38419e-07
v -1.6 0.2 -1.8
v -1.6 0.2 -1.9
v -1.6 0.3 1.9
v -1.6 0.3 1.8
v -1.6 0.3 0.0999999
v -1.6 0.3 -2.38419e-07
v -1.6 0.3 -1.8
v -1.6 0.3 -1.9
v -1.5 0.2 0.2
v -1.5 0.2 0.0999999
v -1.5 0.2 -2.38419e-07
v -1.5 0.2 -0.1
v -1.5 0.3 0.2
v -1.5 0.3 0.0999999
v -1.5 0.3 -2.38419e-07
v -1.5 0.3 -0.1
v -1.5 0.4 0.0999999
v -1.5 0.4 -2.38419e-07
v -1.3 0.2 1
v -1.3 0.2 0.6
v -1.3 0.2 -1.3
v -1.3 0.2 -1.4
v -1.3 0.3 1
v -1.3 0.3 0.6
v -1.3 0.3 -1.3
v -1.3 0.3 -1.4
v -1.2 0.2 1.5
v -1.2 0.2 1.4
v -1.2 0.2 1.1
v -1.2 0.2 1
v -1.2 0.2 0.6
v -1.2 0.2 0.5
v -1.2 0.2 -1.2
v -1.2 0.2 -1.3
v -1.2 0.2 -1.4
v -1.2 0.2 -1.5
v -1.2 0.3 1.5
v -1.2 0.3 1.4
v -1.2 0.3 1.1
v -1.2 0.3 1
v -1.2 0.3 0.6
v -1.2 0.3 0.5
v -1.2 0.3 -1.2
v -1.2 0.3 -1.3
v -1.2 0.3 -1.4
v -1.2 0.3 -1.5
v -1.2 0.4 1
v -1.2 0.4 0.6
v -1.2 0.4 -1.3
v -1.2 0.4 -1.4
v -1.1 0.2 1.6
v -1.1 0.2 1.5
v -1.1 0.2 1.4
v -1.1 0.2 1.3
v -1.1 0.3 1.6
v -1.1 0.3 1.5
v -1.1 0.3 1.4
v -1.1 0.3 1.3
v -1.1 0.4 1.5
v -1.1 0.4 1.4
v -1 0.2 -0.4
v -1 0.2 -0.8
v -1 0.3 -0.4
v -1 0.3 -0.8
v -0.9 0.2 -0.3
v -0.9 0.2 -0.4
v -0.9 0.2 -0.8
v -0.9 0.2 -0.9
v -0.9 0.3 -0.3
v -0.9 0.3 -0.4
v -0.9 0.3 -0.8
v -0.9 0.3 -0.9
v -0.9 0.4 -0.4
v -0.9 0.4 -0.8
v -0.7 0.2 0.3
v -0.7 0.2 -2.38419e-07
v -0.7 0.3 0.3
v -0.7 0.3 -2.38419e-07
v -0.6 0.2 0.4
v -0.6 0.2 0.3
v -0.6 0.2 -2.38419e-07
v -0.6 0.2 -0.1
v -0.6 0.3 0.4
v -0.6 0.3 0.3
v -0.6 0.3 -2.38419e-07
v -0.6 0.3 -0.1
v -0.6 0.4 0.3
v -0.6 0.4 -2.38419e-07
v 2.38419e-07 0.2 1.4
v 2.38419e-07 0.2 1.1
v 2.38419e-07 0.3 1.4
v 2.38419e-07 0.3 1.1
v 0.1 0.2 1.5
v 0.1 0.2 1.4
v 0.1 0.2 1.1
v 0.1 0.2 1
v 0.1 0.2 0.8
v 0.1 0.2 0.7
v 0.1 0.2 -0.1
v 0.1 0.2 -0.2
v 0.1 0.2 -1.3
v 0.1 0.2 -1.4
v 0.1 0.3 1.5
v 0.1 0.3 1.4
v 0.1 0.3 1.1
v 0.1 0.3 1
v 0.1 0.3 0.8
v 0.1 0.3 0.7
v 0.1 0.3 -0.1
v 0.1 0.3 -0.2
v 0.1 0.3 -1.3
v 0.1 0.3 -1.4
v 0.1 0.4 1.4
v 0.1 0.4 1.1
v 0.2 0.2 0.9
v 0.2 0.2 0.8
v 0.2 0.2 0.7
v 0.2 0.2 0.6
v 0.2 0.2 -2.38419e-07
v 0.2 0.2 -0.1
v 0.2 0.2 -0.2
v 0.2 0.2 -0.3
v 0.2 0.2 -1.2
v 0.2 0.2 -1.3
v 0.2 0.2 -1.4
v 0.2 0.2 -1.5
v 0.2 0.3 0.9
v 0.2 0.3 0.8
v 0.2 0.3 0.7
v 0.2 0.3 0.6
v 0.2 0.3 -2.38419e-07
v 0.2 0.3 -0.1
v 0.2 0.3 -0.2
v 0.2 0.3 -0.3
v 0.2 0.3 -1.2
v 0.2 0.3 -1.3
v 0.2 0.3 -1.4
v 0.2 0.3 -1.5
v 0.2 0.4 0.8
v 0.2 0.4 0.7
v 0.2 0.4 -0.1
v 0.2 0.4 -0.2
v 0.2 0.4 -1.3
v 0.2 0.4 -1.4
v 0.6 0.2 -0.3
v 0.6 0.2 -0.6
v 0.6 0.3 -0.3
v 0.6 0.3 -0.6
v 0.7 0.2 -0.2
v 0.7 0.2 -0.3
v 0.7 0.2 -0.6
v 0.7 0.2 -0.7
v 0.7 0.3 -0.2
v 0.7 0.3 -0.3
v 0.7 0.3 -0.6
v 0.7 0.3 -0.7
v 0.7 0.4 -0.3
v 0.7 0.4 -0.6
v 1 0.2 0.2
v 1 0.2 0.0999999
v 1 0.2 -1
v 1 0.2 -1.4
v 1 0.3 0.2
v 1 0.3 0.0999999
v 1 0.3 -1
v 1 0.3 -1.4
v 1.1 0.2 1
v 1.1 0.2 0.6
v 1.1 0.2 0.3
v 1.1 0.2 0.2
v 1.1 0.2 0.0999999
v 1.1 0.2 -2.38419e-07
v 1.1 0.2 -0.9
v 1.1 0.2 -1
v 1.1 0.2 -1.4
v 1.1 0.2 -1.5
v 1.1 0.3 1
v 1.1 0.3 0.6
v 1.1 0.3 0.3
v 1.1 0.3 0.2
v 1.1 0.3 0.0999999
v 1.1 0.3 -2.38419e-07
v 1.1 0.3 -0.9
v 1.1 0.3 -1
v 1.1 0.3 -1.4
v 1.1 0.3 -1.5
v 1.1 0.4 0.2
v 1.1 0.4 0.0999999
v 1.1 0.4 -1
v 1.1 0.4 -1.4
v 1.2 0.2 1.4
v 1.2 0.2 1.3
v 1.2 0.2 1.1
v 1.2 0.2 1
v 1.2 0.2 0.6
v 1.2 0.2 0.5
v 1.2 0.3 1.4
v 1.2 0.3 1.3
v 1.2 0.3 1.1
v 1.2 0.3 1
v 1.2 0.3 0.6
v 1.2 0.3 0.5
v 1.2 0.4 1
v 1.2 0.4 0.6
v 1.3 0.2 1.5
v 1.3 0.2 1.4
v 1.3 0.2 1.3
v 1.3 0.2 1.2
v 1.3 0.3 1.5
v 1.3 0.3 1.4
v 1.3 0.3 1.3
v 1.3 0.3 1.2
v 1.3 0.4 1.4
v 1.3 0.4 1.3
v 1.6 0.2 1.8
v 1.6 0.2 1.7
v 1.6 0.2 -1.7
v 1.6 0.2 -1.8
v 1.6 0.3 1.8
v 1.6 0.3 1.7
v 1.6 0.3 -1.7
v 1.6 0.3 -1.8
v 1.7 0.2 1.7
v 1.7 0.2 1.6
v 1.7 0.2 -1.6
v 1.7 0.2 -1.7
v 1.7 0.3 1.7
v 1.7 0.3 1.6
v 1.7 0.3 -1.6
v 1.7 0.3 -1.7
v 1.8 0.2 1.6
v 1.8 0.2 -1.6
v 1.8 0.3 1.6
v 1.8 0.3 -1.6
v -1.8 0.2 1.6
v -1.8 0.2 -1.6
v -1.8 0.3 1.6
v -1.8 0.3 -1.6
v -1.7 0.2 1.7
v -1.7 0.2 1.6
v -1.7 0.2 -1.6
v -1.7 0.2 -1.7
v -1.7 0.3 1.7
v -1.7 0.3 1.6
v -1.7 0.3 -1.6
v -1.7 0.3 -1.7
v -1.6 0.2 1.8
v -1.6 0.2 1.7
v -1.6 0.2 -1.7
v -1.6 0.2 -1.8
v -1.6 0.3 1.8
v -1.6 0.3 1.7
v -1.6 0.3 -1.7
v -1.6 0.3 -1.8
v -1.4 0.2 0.2
v -1.4 0.2 0.0999999
v -1.4 0.2 -2.38419e-07
v -1.4 0.2 -0.1
v -1.4 0.3 0.2
v -1.4 0.3 0.0999999
v -1.4 0.3 -2.38419e-07
v -1.4 0.3 -0.1
v -1.4 0.4 0.0999999
v -1.4 0.4 -2.38419e-07
v -1.3 0.2 0.0999999
v -1.3 0.2 -2.38419e-07
v -1.3 0.3 0.0999999
v -1.3 0.3 -2.38419e-07
v -1.1 0.2 -1.2
v -1.1 0.2 -1.3
v -1.1 0.2 -1.4
v -1.1 0.2 -1.5
v -1.1 0.3 -1.2
v -1.1 0.3 -1.3
v -1.1 0.3 -1.4
v -1.1 0.3 -1.5
v -1.1 0.4 -1.3
v -1.1 0.4 -1.4
v -1 0.2 1.6
v -1 0.2 1.5
v -1 0.2 1.4
v -1 0.2 1.3
v -1 0.2 -1.3
v -1 0.2 -1.4
v -1 0.3 1.6
v -1 0.3 1.5
v -1 0.3 1.4
v -1 0.3 1.3
v -1 0.3 -1.3
v -1 0.3 -1.4
v -1 0.4 1.5
v -1 0.4 1.4
v -0.9 0.2 1.5
v -0.9 0.2 1.4
v -0.9 0.3 1.5
v -0.9 0.3 1.4
v -0.8 0.2 1.1
v -0.8 0.2 1
v -0.8 0.2 0.6
v -0.8 0.2 0.5
v -0.8 0.3 1.1
v -0.8 0.3 1
v -0.8 0.3 0.6
v -0.8 0.3 0.5
v -0.8 0.4 1
v -0.8 0.4 0.6
v -0.7 0.2 1
v -0.7 0.2 0.6
v -0.7 0.3 1
v -0.7 0.3 0.6
v -0.5 0.2 -0.3
v -0.5 0.2 -0.4
v -0.5 0.2 -0.8
v -0.5 0.2 -0.9
v -0.5 0.3 -0.3
v -0.5 0.3 -0.4
v -0.5 0.3 -0.8
v -0.5 0.3 -0.9
v -0.5 0.4 -0.4
v -0.5 0.4 -0.8
v -0.4 0.2 -0.4
v -0.4 0.2 -0.8
v -0.4 0.3 -0.4
v -0.4 0.3 -0.8
v -0.3 0.2 0.4
v -0.3 0.2 0.3
v -0.3 0.2 -2.38419e-07
v -0.3 0.2 -0.1
v -0.3 0.3 0.4
v -0.3 0.3 0.3
v -0.3 0.3 -2.38419e-07
v -0.3 0.3 -0.1
v -0.3 0.4 0.3
v -0.3 0.4 -2.38419e-07
v -0.2 0.2 0.3
v -0.2 0.2 -2.38419e-07
v -0.2 0.3 0.3
v -0.2 0.3 -2.38419e-07
v 0.3 0.2 0.9
v 0.3 0.2 0.8
v 0.3 0.2 0.7
v 0.3 0.2 0.6
v 0.3 0.2 -2.38419e-07
v 0.3 0.2 -0.1
v 0.3 0.2 -0.2
v 0.3 0.2 -0.3
v 0.3 0.2 -1.2
v 0.3 0.2 -1.3
v 0.3 0.2 -1.4
v 0.3 0.2 -1.5
v 0.3 0.3 0.9
v 0.3 0.3 0.8
v 0.3 0.3 0.7
v 0.3 0.3 0.6
v 0.3 0.3 -2.38419e-07
v 0.3 0.3 -0.1
v 0.3 0.3 -0.2
v 0.3 0.3 -0.3
v 0.3 0.3 -1.2
v 0.3 0.3 -1.3
v 0.3 0.3 -1.4
v 0.3 0.3 -1.5
v 0.3 0.4 0.8
v 0.3 0.4 0.7
v 0.3 0.4 -0.1
v 0.3 0.4 -0.2
v 0.3 0.4 -1.3
v 0.3 0.4 -1.4
v 0.4 0.2 1.5
v 0.4 0.2 1.4
v 0.4 0.2 1.1
v 0.4 0.2 1
v 0.4 0.2 0.8
v 0.4 0.2 0.7
v 0.4 0.2 -0.1
v 0.4 0.2 -0.2
v 0.4 0.2 -1.3
v 0.4 0.2 -1.4
v 0.4 0.3 1.5
v 0.4 0.3 1.4
v 0.4 0.3 1.1
v 0.4 0.3 1
v 0.4 0.3 0.8
v 0.4 0.3 0.7
v 0.4 0.3 -0.1
v 0.4 0.3 -0.2
v 0.4 0.3 -1.3
v 0.4 0.3 -1.4
v 0.4 0.4 1.4
v 0.4 0.4 1.1
v 0.5 0.2 1.4
v 0.5 0.2 1.1
v 0.5 0.3 1.4
v 0.5 0.3 1.1
v 1 0.2 -0.2
v 1 0.2 -0.3
v 1 0.2 -0.6
v 1 0.2 -0.7
v 1 0.3 -0.2
v 1 0.3 -0.3
v 1 0.3 -0.6
v 1 0.3 -0.7
v 1 0.4 -0.3
v 1 0.4 -0.6
v 1.1 0.2 -0.3
v 1.1 0.2 -0.6
v 1.1 0.3 -0.3
v 1.1 0.3 -0.6
v 1.2 0.2 0.3
v 1.2 0.2 0.2
v 1.2 0.2 0.0999999
v 1.2 0.2 -2.38419e-07
v 1.2 0.3 0.3
v 1.2 0.3 0.2
v 1.2 0.3 0.0999999
v 1.2 0.3 -2.38419e-07
v 1.2 0.4 0.2
v 1.2 0.4 0.0999999
v 1.3 0.2 0.2
v 1.3 0.2 0.0999999
v 1.3 0.3 0.2
v 1.3 0.3 0.0999999
v 1.4 0.2 1.5
v 1.4 0.2 1.4
v 1.4 0.2 1.3
v 1.4 0.2 1.2
v 1.4 0.3 1.5
v 1.4 0.3 1.4
v 1.4 0.3 1.3
v 1.4 0.3 1.2
v 1.4 0.4 1.4
v 1.4 0.4 1.3
v 1.5 0.2 1.4
v 1.5 0.2 1.3
v 1.5 0.2 -0.9
v 1.5 0.2 -1
v 1.5 0.2 -1.4
v 1.5 0.2 -1.5
v 1.5 0.3 1.4
v 1.5 0.3 1.3
v 1.5 0.3 -0.9
v 1.5 0.3 -1
v 1.5 0.3 -1.4
v 1.5 0.3 -1.5
v 1.5 0.4 -1
v 1.5 0.4 -1.4
v 1.6 0.2 1.9
v 1.6 0.2 1.8
v 1.6 0.2 1.1
v 1.6 0.2 1
v 1.6 0.2 0.6
v 1.6 0.2 0.5
v 1.6 0.2 -1
v 1.6 0.2 -1.4
v 1.6 0.2 -1.8
v 1.6 0.2 -1.9
v 1.6 0.3 1.9
v 1.6 0.3 1.8
v 1.6 0.3 1.1
v 1.6 0.3 1
v 1.6 0.3 0.6
v 1.6 0.3 0.5
v 1.6 0.3 -1
v 1.6 0.3 -1.4
v 1.6 0.3 -1.8
v 1.6 0.3 -1.9
v 1.6 0.4 1
v 1.6 0.4 0.6
v 1.7 0 2
v 1.7 0 1.9
v 1.7 0 -1.9
v 1.7 0 -2
v 1.7 0.2 2
v 1.7 0.2 1.9
v 1.7 0.2 1.8
v 1.7 0.2 1.7
v 1.7 0.2 1
v 1.7 0.2 0.6
v 1.7 0.2 -1.7
v 1.7 0.2 -1.8
v 1.7 0.2 -1.9
v 1.7 0.2 -2
v 1.7 0.3 1.8
v 1.7 0.3 1.7
v 1.7 0.3 1
v 1.7 0.3 0.6
v 1.7 0.3 -1.7
v 1.7 0.3 -1.8
v 1.8 0 1.9
v 1.8 0 1.8
v 1.8 0 -1.8
v 1.8 0 -1.9
v 1.8 0.2 1.9
v 1.8 0.2 1.8
v 1.8 0.2 1.7
v 1.8 0.2 1.6
v 1.8 0.2 -1.6
v 1.8 0.2 -1.7
v 1.8 0.2 -1.8
v 1.8 0.2 -1.9
v 1.8 0.3 1.7
v 1.8 0.3 1.6
v 1.8 0.3 -1.6
v 1.8 0.3 -1.7
v 1.9 0 1.8
v 1.9 0 1.7
v 1.9 0 -1.7
v 1.9 0 -1.8
v 1.9 0.2 1.8
v 1.9 0.2 1.7
v 1.9 0.2 1.6
v 1.9 0.2 -1.6
v 1.9 0.2 -1.7
v 1.9 0.2 -1.8
v 1.9 0.3 1.6
v 1.9 0.3 -1.6
v 2 0 1.7
v 2 0 -1.7
v 2 0.2 1.7
v 2 0.2 -1.7
v -1.7 0 2
v -1.7 0.2 2
v 1.7 0 2
v 1.7 0.2 2
v -1.8 0 1.9
v -1.8 0.2 1.9
v -1.7 0 1.9
v -1.7 0.2 1.9
v -1.6 0.2 1.9
v -1.6 0.3 1.9
v 1.6 0.2 1.9
v 1.6 0.3 1.9
v 1.7 0 1.9
v 1.7 0.2 1.9
v 1.8 0 1.9
v 1.8 0.2 1.9
v -1.9 0 1.8
v -1.9 0.2 1.8
v -1.8 0 1.8
v -1.8 0.2 1.8
v -1.7 0.2 1.8
v -1.7 0.3 1.8
v -1.6 0.2 1.8
v -1.6 0.3 1.8
v 1.6 0.2 1.8
v 1.6 0.3 1.8
v 1.7 0.2 1.8
v 1.7 0.3 1.8
v 1.8 0 1.8
v 1.8 0.2 1.8
v 1.9 0 1.8
v 1.9 0.2 1.8
v -2 0 1.7
v -2 0.2 1.7
v -1.9 0 1.7
v -1.9 0.2 1.7
v -1.8 0.2 1.7
v -1.8 0.3 1.7
v -1.7 0.2 1.7
v -1.7 0.3 1.7
v 1.7 0.2 1.7
v 1.7 0.3 1.7
v 1.8 0.2 1.7
v 1.8 0.3 1.7
v 1.9 0 1.7
v 1.9 0.2 1.7
v 2 0 1.7
v 2 0.2 1.7
v -1.9 0.2 1.6
v -1.9 0.3 1.6
v -1.8 0.2 1.6
v -1.8 0.3 1.6
v -1.1 0.2 1.6
v -1.1 0.3 1.6
v -1 0.2 1.6
v -1 0.3 1.6
v 1.8 0.2 1.6
v 1.8 0.3 1.6
v 1.9 0.2 1.6
v 1.9 0.3 1.6
v -1.2 0.2 1.5
v -1.2 0.3 1.5
v -1.1 0.2 1.5
v -1.1 0.3 1.5
v -1.1 0.4 1.5
v -1 0.2 1.5
v -1 0.3 1.5
v -1 0.4 1.5
v -0.9 0.2 1.5
v -0.9 0.3 1.5
v 0.1 0.2 1.5
v 0.1 0.3 1.5
v 0.4 0.2 1.5
v 0.4 0.3 1.5
v 1.3 0.2 1.5
v 1.3 0.3 1.5
v 1.4 0.2 1.5
v 1.4 0.3 1.5
v 2.38419e-07 0.2 1.4
v 2.38419e-07 0.3 1.4
v 0.1 0.2 1.4
v 0.1 0.3 1.4
v 0.1 0.4 1.4
v 0.4 0.2 1.4
v 0.4 0.3 1.4
v 0.4 0.4 1.4
v 0.5 0.2 1.4
v 0.5 0.3 1.4
v 1.2 0.2 1.4
v 1.2 0.3 1.4
v 1.3 0.2 1.4
v 1.3 0.3 1.4
v 1.3 0.4 1.4
v 1.4 0.2 1.4
v 1.4 0.3 1.4
v 1.4 0.4 1.4
v 1.5 0.2 1.4
v 1.5 0.3 1.4
v -1.2 0.2 1.1
v -1.2 0.3 1.1
v -0.8 0.2 1.1
v -0.8 0.3 1.1
v 1.2 0.2 1.1
v 1.2 0.3 1.1
v 1.6 0.2 1.1
v 1.6 0.3 1.1
v -1.3 0.2 1
v -1.3 0.3 1
v -1.2 0.2 1
v -1.2 0.3 1
v -1.2 0.4 1
v -0.8 0.2 1
v -0.8 0.3 1
v -0.8 0.4 1
v -0.7 0.2 1
v -0.7 0.3 1
v 1.1 0.2 1
v 1.1 0.3 1
v 1.2 0.2 1
v 1.2 0.3 1
v 1.2 0.4 1
v 1.6 0.2 1
v 1.6 0.3 1
v 1.6 0.4 1
v 1.7 0.2 1
v 1.7 0.3 1
v 0.2 0.2 0.9
v 0.2 0.3 0.9
v 0.3 0.2 0.9
v 0.3 0.3 0.9
v 0.1 0.2 0.8
v 0.1 0.3 0.8
v 0.2 0.2 0.8
v 0.2 0.3 0.8
v 0.2 0.4 0.8
v 0.3 0.2 0.8
v 0.3 0.3 0.8
v 0.3 0.4 0.8
v 0.4 0.2 0.8
v 0.4 0.3 0.8
v -0.6 0.2 0.4
v -0.6 0.3 0.4
v -0.3 0.2 0.4
v -0.3 0.3 0.4
v -0.7 0.2 0.3
v -0.7 0.3 0.3
v -0.6 0.2 0.3
v -0.6 0.3 0.3
v -0.6 0.4 0.3
v -0.3 0.2 0.3
v -0.3 0.3 0.3
v -0.3 0.4 0.3
v -0.2 0.2 0.3
v -0.2 0.3 0.3
v 1.1 0.2 0.3
v 1.1 0.3 0.3
v 1.2 0.2 0.3
v 1.2 0.3 0.3
v -1.5 0.2 0.2
v -1.5 0.3 0.2
v -1.4 0.2 0.2
v -1.4 0.3 0.2
v 1 0.2 0.2
v 1 0.3 0.2
v 1.1 0.2 0.2
v 1.1 0.3 0.2
v 1.1 0.4 0.2
v 1.2 0.2 0.2
v 1.2 0.3 0.2
v 1.2 0.4 0.2
v 1.3 0.2 0.2
v 1.3 0.3 0.2
v -1.6 0.2 0.0999999
v -1.6 0.3 0.0999999
v -1.5 0.2 0.0999999
v -1.5 0.3 0.0999999
v -1.5 0.4 0.0999999
v -1.4 0.2 0.0999999
v -1.4 0.3 0.0999999
v -1.4 0.4 0.0999999
v -1.3 0.2 0.0999999
v -1.3 0.3 0.0999999
v 0.2 0.2 -2.38419e-07
v 0.2 0.3 -2.38419e-07
v 0.3 0.2 -2.38419e-07
v 0.3 0.3 -2.38419e-07
v 0.1 0.2 -0.1
v 0.1 0.3 -0.1
v 0.2 0.2 -0.1
v 0.2 0.3 -0.1
v 0.2 0.4 -0.1
v 0.3 0.2 -0.1
v 0.3 0.3 -0.1
v 0.3 0.4 -0.1
v 0.4 0.2 -0.1
v 0.4 0.3 -0.1
v 0.7 0.2 -0.2
v 0.7 0.3 -0.2
v 1 0.2 -0.2
v 1 0.3 -0.2
v -0.9 0.2 -0.3
v -0.9 0.3 -0.3
v -0.5 0.2 -0.3
v -0.5 0.3 -0.3
v 0.6 0.2 -0.3
v 0.6 0.3 -0.3
v 0.7 0.2 -0.3
v 0.7 0.3 -0.3
v 0.7 0.4 -0.3
v 1 0.2 -0.3
v 1 0.3 -0.3
v 1 0.4 -0.3
v 1.1 0.2 -0.3
v 1.1 0.3 -0.3
v -1 0.2 -0.4
v -1 0.3 -0.4
v -0.9 0.2 -0.4
v -0.9 0.3 -0.4
v -0.9 0.4 -0.4
v -0.5 0.2 -0.4
v -0.5 0.3 -0.4
v -0.5 0.4 -0.4
v -0.4 0.2 -0.4
v -0.4 0.3 -0.4
v 1.1 0.2 -0.9
v 1.1 0.3 -0.9
v 1.5 0.2 -0.9
v 1.5 0.3 -0.9
v 1 0.2 -1
v 1 0.3 -1
v 1.1 0.2 -1
v 1.1 0.3 -1
v 1.1 0.4 -1
v 1.5 0.2 -1
v 1.5 0.3 -1
v 1.5 0.4 -1
v 1.6 0.2 -1
v 1.6 0.3 -1
v -1.2 0.2 -1.2
v -1.2 0.3 -1.2
v -1.1 0.2 -1.2
v -1.1 0.3 -1.2
v 0.2 0.2 -1.2
v 0.2 0.3 -1.2
v 0.3 0.2 -1.2
v 0.3 0.3 -1.2
v -1.3 0.2 -1.3
v -1.3 0.3 -1.3
v -1.2 0.2 -1.3
v -1.2 0.3 -1.3
v -1.2 0.4 -1.3
v -1.1 0.2 -1.3
v -1.1 0.3 -1.3
v -1.1 0.4 -1.3
v -1 0.2 -1.3
v -1 0.3 -1.3
v 0.1 0.2 -1.3
v 0.1 0.3 -1.3
v 0.2 0.2 -1.3
v 0.2 0.3 -1.3
v 0.2 0.4 -1.3
v 0.3 0.2 -1.3
v 0.3 0.3 -1.3
v 0.3 0.4 -1.3
v 0.4 0.2 -1.3
v 0.4 0.3 -1.3
v -1.8 0.2 -1.6
v -1.8 0.3 -1.6
v -1.7 0.2 -1.6
v -1.7 0.3 -1.6
v 1.7 0.2 -1.6
v 1.7 0.3 -1.6
v 1.8 0.2 -1.6
v 1.8 0.3 -1.6
v -1.7 0.2 -1.7
v -1.7 0.3 -1.7
v -1.6 0.2 -1.7
v -1.6 0.3 -1.7
v 1.6 0.2 -1.7
v 1.6 0.3 -1.7
v 1.7 0.2 -1.7
v 1.7 0.3 -1.7
v -1.6 0.2 -1.8
v -1.6 0.3 -1.8
v 1.6 0.2 -1.8
v 1.6 0.3 -1.8
v -1.6 0.2 1.8
v -1.6 0.3 1.8
v 1.6 0.2 1.8
v 1.6 0.3 1.8
v -1.7 0.2 1.7
v -1.7 0.3 1.7
v -1.6 0.2 1.7
v -1.6 0.3 1.7
v 1.6 0.2 1.7
v 1.6 0.3 1.7
v 1.7 0.2 1.7
v 1.7 0.3 1.7
v -1.8 0.2 1.6
v -1.8 0.3 1.6
v -1.7 0.2 1.6
v -1.7 0.3 1.6
v 1.7 0.2 1.6
v 1.7 0.3 1.6
v 1.8 0.2 1.6
v 1.8 0.3 1.6
v -1.2 0.2 1.4
v -1.2 0.3 1.4
v -1.1 0.2 1.4
v -1.1 0.3 1.4
v -1.1 0.4 1.4
v -1 0.2 1.4
v -1 0.3 1.4
v -1 0.4 1.4
v -0.9 0.2 1.4
v -0.9 0.3 1.4
v -1.1 0.2 1.3
v -1.1 0.3 1.3
v -1 0.2 1.3
v -1 0.3 1.3
v 1.2 0.2 1.3
v 1.2 0.3 1.3
v 1.3 0.2 1.3
v 1.3 0.3 1.3
v 1.3 0.4 1.3
v 1.4 0.2 1.3
v 1.4 0.3 1.3
v 1.4 0.4 1.3
v 1.5 0.2 1.3
v 1.5 0.3 1.3
v 1.3 0.2 1.2
v 1.3 0.3 1.2
v 1.4 0.2 1.2
v 1.4 0.3 1.2
v 2.38419e-07 0.2 1.1
v 2.38419e-07 0.3 1.1
v 0.1 0.2 1.1
v 0.1 0.3 1.1
v 0.1 0.4 1.1
v 0.4 0.2 1.1
v 0.4 0.3 1.1
v 0.4 0.4 1.1
v 0.5 0.2 1.1
v 0.5 0.3 1.1
v 0.1 0.2 1
v 0.1 0.3 1
v 0.4 0.2 1
v 0.4 0.3 1
v 0.1 0.2 0.7
v 0.1 0.3 0.7
v 0.2 0.2 0.7
v 0.2 0.3 0.7
v 0.2 0.4 0.7
v 0.3 0.2 0.7
v 0.3 0.3 0.7
v 0.3 0.4 0.7
v 0.4 0.2 0.7
v 0.4 0.3 0.7
v -1.3 0.2 0.6
v -1.3 0.3 0.6
v -1.2 0.2 0.6
v -1.2 0.3 0.6
v -1.2 0.4 0.6
v -0.8 0.2 0.6
v -0.8 0.3 0.6
v -0.8 0.4 0.6
v -0.7 0.2 0.6
v -0.7 0.3 0.6
v 0.2 0.2 0.6
v 0.2 0.3 0.6
v 0.3 0.2 0.6
v 0.3 0.3 0.6
v 1.1 0.2 0.6
v 1.1 0.3 0.6
v 1.2 0.2 0.6
v 1.2 0.3 0.6
v 1.2 0.4 0.6
v 1.6 0.2 0.6
v 1.6 0.3 0.6
v 1.6 0.4 0.6
v 1.7 0.2 0.6
v 1.7 0.3 0.6
v -1.2 0.2 0.5
v -1.2 0.3 0.5
v -0.8 0.2 0.5
v -0.8 0.3 0.5
v 1.2 0.2 0.5
v 1.2 0.3 0.5
v 1.6 0.2 0.5
v 1.6 0.3 0.5
v 1 0.2 0.0999999
v 1 0.3 0.0999999
v 1.1 0.2 0.0999999
v 1.1 0.3 0.0999999
v 1.1 0.4 0.0999999
v 1.2 0.2 0.0999999
v 1.2 0.3 0.0999999
v 1.2 0.4 0.0999999
v 1.3 0.2 0.0999999
v 1.3 0.3 0.0999999
v -1.6 0.2 -2.38419e-07
v -1.6 0.3 -2.38419e-07
v -1.5 0.2 -2.38419e-07
v -1.5 0.3 -2.38419e-07
v -1.5 0.4 -2.38419e-07
v -1.4 0.2 -2.38419e-07
v -1.4 0.3 -2.38419e-07
v -1.4 0.4 -2.38419e-07
v -1.3 0.2 -2.38419e-07
v -1.3 0.3 -2.38419e-07
v -0.7 0.2 -2.38419e-07
v -0.7 0.3 -2.38419e-07
v -0.6 0.2 -2.38419e-07
v -0.6 0.3 -2.38419e-07
v -0.6 0.4 -2.38419e-07
v -0.3 0.2 -2.38419e-07
v -0.3 0.3 -2.38419e-07
v -0.3 0.4 -2.38419e-07
v -0.2 0.2 -2.38419e-07
v -0.2 0.3 -2.38419e-07
v 1.1 0.2 -2.38419e-07
v 1.1 0.3 -2.38419e-07
v 1.2 0.2 -2.38419e-07
v 1.2 0.3 -2.38419e-07
v -1.5 0.2 -0.1
v -1.5 0.3 -0.1
v -1.4 0.2 -0.1
v -1.4 0.3 -0.1
v -0.6 0.2 -0.1
v -0.6 0.3 -0.1
v -0.3 0.2 -0.1
v -0.3 0.3 -0.1
v 0.1 0.2 -0.2
v 0.1 0.3 -0.2
v 0.2 0.2 -0.2
v 0.2 0.3 -0.2
v 0.2 0.4 -0.2
v 0.3 0.2 -0.2
v 0.3 0.3 -0.2
v 0.3 0.4 -0.2
v 0.4 0.2 -0.2
v 0.4 0.3 -0.2
v 0.2 0.2 -0.3
v 0.2 0.3 -0.3
v 0.3 0.2 -0.3
v 0.3 0.3 -0.3
v 0.6 0.2 -0.6
v 0.6 0.3 -0.6
v 0.7 0.2 -0.6
v 0.7 0.3 -0.6
v 0.7 0.4 -0.6
v 1 0.2 -0.6
v 1 0.3 -0.6
v 1 0.4 -0.6
v 1.1 0.2 -0.6
v 1.1 0.3 -0.6
v 0.7 0.2 -0.7
v 0.7 0.3 -0.7
v 1 0.2 -0.7
v 1 0.3 -0.7
v -1 0.2 -0.8
v -1 0.3 -0.8
v -0.9 0.2 -0.8
v -0.9 0.3 -0.8
v -0.9 0.4 -0.8
v -0.5 0.2 -0.8
v -0.5 0.3 -0.8
v -0.5 0.4 -0.8
v -0.4 0.2 -0.8
v -0.4 0.3 -0.8
v -0.9 0.2 -0.9
v -0.9 0.3 -0.9
v -0.5 0.2 -0.9
v -0.5 0.3 -0.9
v -1.3 0.2 -1.4
v -1.3 0.3 -1.4
v -1.2 0.2 -1.4
v -1.2 0.3 -1.4
v -1.2 0.4 -1.4
v -1.1 0.2 -1.4
v -1.1 0.3 -1.4
v -1.1 0.4 -1.4
v -1 0.2 -1.4
v -1 0.3 -1.4
v 0.1 0.2 -1.4
v 0.1 0.3 -1.4
v 0.2 0.2 -1.4
v 0.2 0.3 -1.4
v 0.2 0.4 -1.4
v 0.3 0.2 -1.4
v 0.3 0.3 -1.4
v 0.3 0.4 -1.4
v 0.4 0.2 -1.4
v 0.4 0.3 -1.4
v 1 0.2 -1.4
v 1 0.3 -1.4
v 1.1 0.2 -1.4
v 1.1 0.3 -1.4
v 1.1 0.4 -1.4
v 1.5 0.2 -1.4
v 1.5 0.3 -1.4
v 1.5 0.4 -1.4
v 1.6 0.2 -1.4
v 1.6 0.3 -1.4
v -1.2 0.2 -1.5
v -1.2 0.3 -1.5
v -1.1 0.2 -1.5
v -1.1 0.3 -1.5
v 0.2 0.2 -1.5
v 0.2 0.3 -1.5
v 0.3 0.2 -1.5
v 0.3 0.3 -1.5
v 1.1 0.2 -1.5
v 1.1 0.3 -1.5
v 1.5 0.2 -1.5
v 1.5 0.3 -1.5
v -1.9 0.2 -1.6
v -1.9 0.3 -1.6
v -1.8 0.2 -1.6
v -1.8 0.3 -1.6
v 1.8 0.2 -1.6
v 1.8 0.3 -1.6
v 1.9 0.2 -1.6
v 1.9 0.3 -1.6
v -2 0 -1.7
v -2 0.2 -1.7
v -1.9 0 -1.7
v -1.9 0.2 -1.7
v -1.8 0.2 -1.7
v -1.8 0.3 -1.7
v -1.7 0.2 -1.7
v -1.7 0.3 -1.7
v 1.7 0.2 -1.7
v 1.7 0.3 -1.7
v 1.8 0.2 -1.7
v 1.8 0.3 -1.7
v 1.9 0 -1.7
v 1.9 0.2 -1.7
v 2 0 -1.7
v 2 0.2 -1.7
v -1.9 0 -1.8
v -1.9 0.2 -1.8
v -1.8 0 -1.8
v -1.8 0.2 -1.8
v -1.7 0.2 -1.8
v -1.7 0.3 -1.8
v -1.6 0.2 -1.8
v -1.6 0.3 -1.8
v 1.6 0.2 -1.8
v 1.6 0.3 -1.8
v 1.7 0.2 -1.8
v 1.7 0.3 -1.8
v 1.8 0 -1.8
v 1.8 0.2 -1.8
v 1.9 0 -1.8
v 1.9 0.2 -1.8
v -1.8 0 -1.9
v -1.8 0.2 -1.9
v -1.7 0 -1.9
v -1.7 0.2 -1.9
v -1.6 0.2 -1.9
v -1.6 0.3 -1.9
v 1.6 0.2 -1.9
v 1.6 0.3 -1.9
v 1.7 0 -1.9
v 1.7 0.2 -1.9
v 1.8 0 -1.9
v 1.8 0.2 -1.9
v -1.7 0 -2
v -1.7 0.2 -2
v 1.7 0 -2
v 1.7 0.2 -2
v -1.7 0 2
v 1.7 0 2
v -1.8 0 1.9
v -1.7 0 1.9
v 1.7 0 1.9
v 1.8 0 1.9
v -1.9 0 1.8
v -1.8 0 1.8
v 1.8 0 1.8
v 1.9 0 1.8
v -2 0 1.7
v -1.9 0 1.7
v 1.9 0 1.7
v 2 0 1.7
v -2 0 -1.7
v -1.9 0 -1.7
v 1.9 0 -1.7
v 2 0 -1.7
v -1.9 0 -1.8
v -1.8 0 -1.8
v 1.8 0 -1.8
v 1.9 0 -1.8
v -1.8 0 -1.9
v -1.7 0 -1.9
v 1.7 0 -1.9
v 1.8 0 -1.9
v -1.7 0 -2
v 1.7 0 -2
v -1.7 0.2 2
v 1.7 0.2 2
v -1.8 0.2 1.9
v -1.7 0.2 1.9
v -1.6 0.2 1.9
v 1.6 0.2 1.9
v 1.7 0.2 1.9
v 1.8 0.2 1.9
v -1.9 0.2 1.8
v -1.8 0.2 1.8
v -1.7 0.2 1.8
v -1.6 0.2 1.8
v 1.6 0.2 1.8
v 1.7 0.2 1.8
v 1.8 0.2 1.8
v 1.9 0.2 1.8
v -2 0.2 1.7
v -1.9 0.2 1.7
v -1.8 0.2 1.7
v -1.7 0.2 1.7
v -1.6 0.2 1.7
v 1.6 0.2 1.7
v 1.7 0.2 1.7
v 1.8 0.2 1.7
v 1.9 0.2 1.7
v 2 0.2 1.7
v -1.9 0.2 1.6
v -1.8 0.2 1.6
v -1.7 0.2 1.6
v -1.1 0.2 1.6
v -1 0.2 1.6
v 1.7 0.2 1.6
v 1.8 0.2 1.6
v 1.9 0.2 1.6
v -1.2 0.2 1.5
v -1.1 0.2 1.5
v -1 0.2 1.5
v -0.9 0.2 1.5
v 0.1 0.2 1.5
v 0.4 0.2 1.5
v 1.3 0.2 1.5
v 1.4 0.2 1.5
v -1.2 0.2 1.4
v -1.1 0.2 1.4
v -1 0.2 1.4
v -0.9 0.2 1.4
v 2.38419e-07 0.2 1.4
v 0.1 0.2 1.4
v 0.4 0.2 1.4
v 0.5 0.2 1.4
v 1.2 0.2 1.4
v 1.3 0.2 1.4
v 1.4 0.2 1.4
v 1.5 0.2 1.4
v -1.1 0.2 1.3
v -1 0.2 1.3
v 1.2 0.2 1.3
v 1.3 0.2 1.3
v 1.4 0.2 1.3
v 1.5 0.2 1.3
v 1.3 0.2 1.2
v 1.4 0.2 1.2
v -1.2 0.2 1.1
v -0.8 0.2 1.1
v 2.38419e-07 0.2 1.1
v 0.1 0.2 1.1
v 0.4 0.2 1.1
v 0.5 0.2 1.1
v 1.2 0.2 1.1
v 1.6 0.2 1.1
v -1.3 0.2 1
v -1.2 0.2 1
v -0.8 0.2 1
v -0.7 0.2 1
v 0.1 0.2 1
v 0.4 0.2 1
v 1.1 0.2 1
v 1.2 0.2 1
v 1.6 0.2 1
v 1.7 0.2 1
v 0.2 0.2 0.9
v 0.3 0.2 0.9
v 0.1 0.2 0.8
v 0.2 0.2 0.8
v 0.3 0.2 0.8
v 0.4 0.2 0.8
v 0.1 0.2 0.7
v 0.2 0.2 0.7
v 0.3 0.2 0.7
v 0.4 0.2 0.7
v -1.3 0.2 0.6
v -1.2 0.2 0.6
v -0.8 0.2 0.6
v -0.7 0.2 0.6
v 0.2 0.2 0.6
v 0.3 0.2 0.6
v 1.1 0.2 0.6
v 1.2 0.2 0.6
v 1.6 0.2 0.6
v 1.7 0.2 0.6
v -1.2 0.2 0.5
v -0.8 0.2 0.5
v 1.2 0.2 0.5
v 1.6 0.2 0.5
v -0.6 0.2 0.4
v -0.3 0.2 0.4
v -0.7 0.2 0.3
v -0.6 0.2 0.3
v -0.3 0.2 0.3
v -0.2 0.2 0.3
v 1.1 0.2 0.3
v 1.2 0.2 0.3
v -1.5 0.2 0.2
v -1.4 0.2 0.2
v 1 0.2 0.2
v 1.1 0.2 0.2
v 1.2 0.2 0.2
v 1.3 0.2 0.2
v -1.6 0.2 0.0999999
v -1.5 0.2 0.0999999
v -1.4 0.2 0.0999999
v -1.3 0.2 0.0999999
v 1 0.2 0.0999999
v 1.1 0.2 0.0999999
v 1.2 0.2 0.0999999
v 1.3 0.2 0.0999999
v -1.6 0.2 -2.38419e-07
v -1.5 0.2 -2.38419e-07
v -1.4 0.2 -2.38419e-07
v -1.3 0.2 -2.38419e-07
v -0.7 0.2 -2.38419e-07
v -0.6 0.2 -2.38419e-07
v -0.3 0.2 -2.38419e-07
v -0.2 0.2 -2.38419e-07
v 0.2 0.2 -2.38419e-07
v 0.3 0.2 -2.38419e-07
v 1.1 0.2 -2.38419e-07
v 1.2 0.2 -2.38419e-07
v -1.5 0.2 -0.1
v -1.4 0.2 -0.1
v -0.6 0.2 -0.1
v -0.3 0.2 -0.1
v 0.1 0.2 -0.1
v 0.2 0.2 -0.1
v 0.3 0.2 -0.1
v 0.4 0.2 -0.1
v 0.1 0.2 -0.2
v 0.2 0.2 -0.2
v 0.3 0.2 -0.2
v 0.4 0.2 -0.2
v 0.7 0.2 -0.2
v 1 0.2 -0.2
v -0.9 0.2 -0.3
v -0.5 0.2 -0.3
v 0.2 0.2 -0.3
v 0.3 0.2 -0.3
v 0.6 0.2 -0.3
v 0.7 0.2 -0.3
v 1 0.2 -0.3
v 1.1 0.2 -0.3
v -1 0.2 -0.4
v -0.9 0.2 -0.4
v -0.5 0.2 -0.4
v -0.4 0.2 -0.4
v 0.6 0.2 -0.6
v 0.7 0.2 -0.6
v 1 0.2 -0.6
v 1.1 0.2 -0.6
v 0.7 0.2 -0.7
v 1 0.2 -0.7
v -1 0.2 -0.8
v -0.9 0.2 -0.8
v -0.5 0.2 -0.8
v -0.4 0.2 -0.8
v -0.9 0.2 -0.9
v -0.5 0.2 -0.9
v 1.1 0.2 -0.9
v 1.5 0.2 -0.9
v 1 0.2 -1
v 1.1 0.2 -1
v 1.5 0.2 -1
v 1.6 0.2 -1
v -1.2 0.2 -1.2
v -1.1 0.2 -1.2
v 0.2 0.2 -1.2
v 0.3 0.2 -1.2
v -1.3 0.2 -1.3
v -1.2 0.2 -1.3
v -1.1 0.2 -1.3
v -1 0.2 -1.3
v 0.1 0.2 -1.3
v 0.2 0.2 -1.3
v 0.3 0.2 -1.3
v 0.4 0.2 -1.3
v -1.3 0.2 -1.4
v -1.2 0.2 -1.4
v -1.1 0.2 -1.4
v -1 0.2 -1.4
v 0.1 0.2 -1.4
v 0.2 0.2 -1.4
v 0.3 0.2 -1.4
v 0.4 0.2 -1.4
v 1 0.2 -1.4
v 1.1 0.2 -1.4
v 1.5 0.2 -1.4
v 1.6 0.2 -1.4
v -1.2 0.2 -1.5
v -1.1 0.2 -1.5
v 0.2 0.2 -1.5
v 0.3 0.2 -1.5
v 1.1 0.2 -1.5
v 1.5 0.2 -1.5
v -1.9 0.2 -1.6
v -1.8 0.2 -1.6
v -1.7 0.2 -1.6
v 1.7 0.2 -1.6
v 1.8 0.2 -1.6
v 1.9 0.2 -1.6
v -2 0.2 -1.7
v -1.9 0.2 -1.7
v -1.8 0.2 -1.7
v -1.7 0.2 -1.7
v -1.6 0.2 -1.7
v 1.6 0.2 -1.7
v 1.7 0.2 -1.7
v 1.8 0.2 -1.7
v 1.9 0.2 -1.7
v 2 0.2 -1.7
v -1.9 0.2 -1.8
v -1.8 0.2 -1.8
v -1.7 0.2 -1.8
v -1.6 0.2 -1.8
v 1.6 0.2 -1.8
v 1.7 0.2 -1.8
v 1.8 0.2 -1.8
v 1.9 0.2 -1.8
v -1.8 0.2 -1.9
v -1.7 0.2 -1.9
v -1.6 0.2 -1.9
v 1.6 0.2 -1.9
v 1.7 0.2 -1.9
v 1.8 0.2 -1.9
v -1.7 0.2 -2
v 1.7 0.2 -2
v -1.6 0.3 1.9
v 1.6 0.3 1.9
v -1.7 0.3 1.8
v -1.6 0.3 1.8
v 1.6 0.3 1.8
v 1.7 0.3 1.8
v -1.8 0.3 1.7
v -1.7 0.3 1.7
v -1.6 0.3 1.7
v 1.6 0.3 1.7
v 1.7 0.3 1.7
v 1.8 0.3 1.7
v -1.9 0.3 1.6
v -1.8 0.3 1.6
v -1.7 0.3 1.6
v -1.1 0.3 1.6
v -1 0.3 1.6
v 1.7 0.3 1.6
v 1.8 0.3 1.6
v 1.9 0.3 1.6
v -1.2 0.3 1.5
v -1.1 0.3 1.5
v -1 0.3 1.5
v -0.9 0.3 1.5
v 0.1 0.3 1.5
v 0.4 0.3 1.5
v 1.3 0.3 1.5
v 1.4 0.3 1.5
v -1.2 0.3 1.4
v -1.1 0.3 1.4
v -1 0.3 1.4
v -0.9 0.3 1.4
v 2.38419e-07 0.3 1.4
v 0.1 0.3 1.4
v 0.4 0.3 1.4
v 0.5 0.3 1.4
v 1.2 0.3 1.4
v 1.3 0.3 1.4
v 1.4 0.3 1.4
v 1.5 0.3 1.4
v -1.1 0.3 1.3
v -1 0.3 1.3
v 1.2 0.3 1.3
v 1.3 0.3 1.3
v 1.4 0.3 1.3
v 1.5 0.3 1.3
v 1.3 0.3 1.2
v 1.4 0.3 1.2
v -1.2 0.3 1.1
v -0.8 0.3 1.1
v 2.38419e-07 0.3 1.1
v 0.1 0.3 1.1
v 0.4 0.3 1.1
v 0.5 0.3 1.1
v 1.2 0.3 1.1
v 1.6 0.3 1.1
v -1.3 0.3 1
v -1.2 0.3 1
v -0.8 0.3 1
v -0.7 0.3 1
v 0.1 0.3 1
v 0.4 0.3 1
v 1.1 0.3 1
v 1.2 0.3 1
v 1.6 0.3 1
v 1.7 0.3 1
v 0.2 0.3 0.9
v 0.3 0.3 0.9
v 0.1 0.3 0.8
v 0.2 0.3 0.8
v 0.3 0.3 0.8
v 0.4 0.3 0.8
v 0.1 0.3 0.7
v 0.2 0.3 0.7
v 0.3 0.3 0.7
v 0.4 0.3 0.7
v -1.3 0.3 0.6
v -1.2 0.3 0.6
v -0.8 0.3 0.6
v -0.7 0.3 0.6
v 0.2 0.3 0.6
v 0.3 0.3 0.6
v 1.1 0.3 0.6
v 1.2 0.3 0.6
v 1.6 0.3 0.6
v 1.7 0.3 0.6
v -1.2 0.3 0.5
v -0.8 0.3 0.5
v 1.2 0.3 0.5
v 1.6 0.3 0.5
v -0.6 0.3 0.4
v -0.3 0.3 0.4
v -0.7 0.3 0.3
v -0.6 0.3 0.3
v -0.3 0.3 0.3
v -0.2 0.3 0.3
v 1.1 0.3 0.3
v 1.2 0.3 0.3
v -1.5 0.3 0.2
v -1.4 0.3 0.2
v 1 0.3 0.2
v 1.1 0.3 0.2
v 1.2 0.3 0.2
v 1.3 0.3 0.2
v -1.6 0.3 0.0999999
v -1.5 0.3 0.0999999
v -1.4 0.3 0.0999999
v -1.3 0.3 0.0999999
v 1 0.3 0.0999999
v 1.1 0.3 0.0999999
v 1.2 0.3 0.0999999
v 1.3 0.3 0.0999999
v -1.6 0.3 -2.38419e-07
v -1.5 0.3 -2.38419e-07
v -1.4 0.3 -2.38419e-07
v -1.3 0.3 -2.38419e-07
v -0.7 0.3 -2.38419e-07
v -0.6 0.3 -2.38419e-07
v -0.3 0.3 -2.38419e-07
v -0.2 0.3 -2.38419e-07
v 0.2 0.3 -2.38419e-07
v 0.3 0.3 -2.38419e-07
v 1.1 0.3 -2.38419e-07
v 1.2 0.3 -2.38419e-07
v -1.5 0.3 -0.1
v -1.4 0.3 -0.1
v -0.6 0.3 -0.1
v -0.3 0.3 -0.1
v 0.1 0.3 -0.1
v 0.2 0.3 -0.1
v 0.3 0.3 -0.1
v 0.4 0.3 -0.1
v 0.1 0.3 -0.2
v 0.2 0.3 -0.2
v 0.3 0.3 -0.2
v 0.4 0.3 -0.2
v 0.7 0.3 -0.2
v 1 0.3 -0.2
v -0.9 0.3 -0.3
v -0.5 0.3 -0.3
v 0.2 0.3 -0.3
v 0.3 0.3 -0.3
v 0.6 0.3 -0.3
v 0.7 0.3 -0.3
v 1 0.3 -0.3
v 1.1 0.3 -0.3
v -1 0.3 -0.4
v -0.9 0.3 -0.4
v -0.5 0.3 -0.4
v -0.4 0.3 -0.4
v 0.6 0.3 -0.6
v 0.7 0.3 -0.6
v 1 0.3 -0.6
v 1.1 0.3 -0.6
v 0.7 0.3 -0.7
v 1 0.3 -0.7
v -1 0.3 -0.8
v -0.9 0.3 -0.8
v -0.5 0.3 -0.8
v -0.4 0.3 -0.8
v -0.9 0.3 -0.9
v -0.5 0.3 -0.9
v 1.1 0.3 -0.9
v 1.5 0.3 -0.9
v 1 0.3 -1
v 1.1 0.3 -1
v 1.5 0.3 -1
v 1.6 0.3 -1
v -1.2 0.3 -1.2
v -1.1 0.3 -1.2
v 0.2 0.3 -1.2
v 0.3 0.3 -1.2
v -1.3 0.3 -1.3
v -1.2 0.3 -1.3
v -1.1 0.3 -1.3
v -1 0.3 -1.3
v 0.1 0.3 -1.3
v 0.2 0.3 -1.3
v 0.3 0.3 -1.3
v 0.4 0.3 -1.3
v -1.3 0.3 -1.4
v -1.2 0.3 -1.4
v -1.1 0.3 -1.4
v -1 0.3 -1.4
v 0.1 0.3 -1.4
v 0.2 0.3 -1.4
v 0.3 0.3 -1.4
v 0.4 0.3 -1.4
v 1 0.3 -1.4
v 1.1 0.3 -1.4
v 1.5 0.3 -1.4
v 1.6 0.3 -1.4
v -1.2 0.3 -1.5
v -1.1 0.3 -1.5
v 0.2 0.3 -1.5
v 0.3 0.3 -1.5
v 1.1 0.3 -1.5
v 1.5 0.3 -1.5
v -1.9 0.3 -1.6
v -1.8 0.3 -1.6
v -1.7 0.3 -1.6
v 1.7 0.3 -1.6
v 1.8 0.3 -1.6
v 1.9 0.3 -1.6
v -1.8 0.3 -1.7
v -1.7 0.3 -1.7
v -1.6 0.3 -1.7
v 1.6 0.3 -1.7
v 1.7 0.3 -1.7
v 1.8 0.3 -1.7
v -1.7 0.3 -1.8
v -1.6 0.3 -1.8
v 1.6 0.3 -1.8
v 1.7 0.3 -1.8
v -1.6 0.3 -1.9
v 1.6 0.3 -1.9
v -1.1 0.4 1.5
v -1 0.4 1.5
v -1.1 0.4 1.4
v -1 0.4 1.4
v 0.1 0.4 1.4
v 0.4 0.4 1.4
v 1.3 0.4 1.4
v 1.4 0.4 1.4
v 1.3 0.4 1.3
v 1.4 0.4 1.3
v 0.1 0.4 1.1
v 0.4 0.4 1.1
v -1.2 0.4 1
v -0.8 0.4 1
v 1.2 0.4 1
v 1.6 0.4 1
v 0.2 0.4 0.8
v 0.3 0.4 0.8
v 0.2 0.4 0.7
v 0.3 0.4 0.7
v -1.2 0.4 0.6
v -0.8 0.4 0.6
v 1.2 0.4 0.6
v 1.6 0.4 0.6
v -0.6 0.4 0.3
v -0.3 0.4 0.3
v 1.1 0.4 0.2
v 1.2 0.4 0.2
v -1.5 0.4 0.0999999
v -1.4 0.4 0.0999999
v 1.1 0.4 0.0999999
v 1.2 0.4 0.0999999
v -1.5 0.4 -2.38419e-07
v -1.4 0.4 -2.38419e-07
v -0.6 0.4 -2.38419e-07
v -0.3 0.4 -2.38419e-07
v 0.2 0.4 -0.1
v 0.3 0.4 -0.1
v 0.2 0.4 -0.2
v 0.3 0.4 -0.2
v 0.7 0.4 -0.3
v 1 0.4 -0.3
v -0.9 0.4 -0.4
v -0.5 0.4 -0.4
v 0.7 0.4 -0.6
v 1 0.4 -0.6
v -0.9 0.4 -0.8
v -0.5 0.4 -0.8
v 1.1 0.4 -1
v 1.5 0.4 -1
v -1.2 0.4 -1.3
v -1.1 0.4 -1.3
v 0.2 0.4 -1.3
v 0.3 0.4 -1.3
v -1.2 0.4 -1.4
v -1.1 0.4 -1.4
v 0.2 0.4 -1.4
v 0.3 0.4 -1.4
v 1.1 0.4 -1.4
v 1.5 0.4 -1.4

# faces
f 3/3/1 2/3/1 1/3/1
f 4/3/1 2/3/1 3/3/1
f 9/3/1 6/3/1 5/3/1
f 10/3/1 6/3/1 9/3/1
f 13/3/1 8/3/1 7/3/1
f 14/3/1 8/3/1 13/3/1
f 15/3/1 12/3/1 11/3/1
f 16/3/1 12/3/1 15/3/1
f 21/3/1 18/3/1 17/3/1
f 22/3/1 18/3/1 21/3/1
f 27/3/1 20/3/1 19/3/1
f 28/3/1 20/3/1 27/3/1
f 29/3/1 24/3/1 23/3/1
f 30/3/1 24/3/1 29/3/1
f 31/3/1 26/3/1 25/3/1
f 32/3/1 26/3/1 31/3/1
f 37/3/1 34/3/1 33/3/1
f 38/3/1 34/3/1 37/3/1
f 43/3/1 36/3/1 35/3/1
f 44/3/1 36/3/1 43/3/1
f 45/3/1 40/3/1 39/3/1
f 46/3/1 40/3/1 45/3/1
f 47/3/1 42/3/1 41/3/1
f 48/3/1 42/3/1 47/3/1
f 55/3/1 50/3/1 49/3/1
f 56/3/1 50/3/1 55/3/1
f 57/1/1 52/1/1 51/1/1
f 58/1/1 52/1/1 57/1/1
f 59/3/1 54/3/1 53/3/1
f 60/3/1 54/3/1 59/3/1
f 65/1/1 62/1/1 61/1/1
f 66/1/1 62/1/1 65/1/1
f 67/1/1 64/1/1 63/1/1
f 68/1/1 64/1/1 67/1/1
f 69/1/1 67/1/1 66/1/1
f 70/1/1 67/1/1 69/1/1
f 75/1/1 72/1/1 71/1/1
f 76/1/1 72/1/1 75/1/1
f 77/1/1 74/1/1 73/1/1
f 78/1/1 74/1/1 77/1/1
f 89/1/1 80/1/1 79/1/1
f 90/1/1 80/1/1 89/1/1
f 91/1/1 82/1/1 81/1/1
f 92/1/1 82/1/1 91/1/1
f 93/1/1 84/1/1 83/1/1
f 94/1/1 84/1/1 93/1/1
f 95/1/1 86/1/1 85/1/1
f 96/1/1 86/1/1 95/1/1
f 97/1/1 88/1/1 87/1/1
f 98/1/1 88/1/1 97/1/1
f 99/1/1 93/1/1 92/1/1
f 100/1/1 93/1/1 99/1/1
f 101/1/1 97/1/1 96/1/1
f 102/1/1 97/1/1 101/1/1
f 107/1/1 104/1/1 103/1/1
f 108/1/1 104/1/1 107/1/1
f 109/1/1 106/1/1 105/1/1
f 110/1/1 106/1/1 109/1/1
f 111/1/1 109/1/1 108/1/1
f 112/1/1 109/1/1 111/1/1
f 115/1/1 114/1/1 113/1/1
f 116/1/1 114/1/1 115/1/1
f 121/1/1 118/1/1 117/1/1
f 122/1/1 118/1/1 121/1/1
f 123/1/1 120/1/1 119/1/1
f 124/1/1 120/1/1 123/1/1
f 125/1/1 123/1/1 122/1/1
f 126/1/1 123/1/1 125/1/1
f 129/1/1 128/1/1 127/1/1
f 130/1/1 128/1/1 129/1/1
f 135/1/1 132/1/1 131/1/1
f 136/1/1 132/1/1 135/1/1
f 137/1/1 134/1/1 133/1/1
f 138/1/1 134/1/1 137/1/1
f 139/1/1 137/1/1 136/1/1
f 140/1/1 137/1/1 139/1/1
f 143/1/1 142/1/1 141/1/1
f 144/1/1 142/1/1 143/1/1
f 155/1/1 146/1/1 145/1/1
f 156/1/1 146/1/1 155/1/1
f 157/1/1 148/1/1 147/1/1
f 158/1/1 148/1/1 157/1/1
f 159/1/1 150/1/1 149/1/1
f 160/1/1 150/1/1 159/1/1
f 161/1/1 152/1/1 151/1/1
f 162/1/1 152/1/1 161/1/1
f 163/1/1 154/1/1 153/1/1
f 164/1/1 154/1/1 163/1/1
f 165/1/1 157/1/1 156/1/1
f 166/1/1 157/1/1 165/1/1
f 179/1/1 168/1/1 167/1/1
f 180/1/1 168/1/1 179/1/1
f 181/1/1 170/1/1 169/1/1
f 182/1/1 170/1/1 181/1/1
f 183/1/1 172/1/1 171/1/1
f 184/1/1 172/1/1 183/1/1
f 185/1/1 174/1/1 173/1/1
f 186/1/1 174/1/1 185/1/1
f 187/1/1 176/1/1 175/1/1
f 188/1/1 176/1/1 187/1/1
f 189/1/1 178/1/1 177/1/1
f 190/1/1 178/1/1 189/1/1
f 191/1/1 181/1/1 180/1/1
f 192/1/1 181/1/1 191/1/1
f 193/1/1 185/1/1 184/1/1
f 194/1/1 185/1/1 193/1/1
f 195/1/1 189/1/1 188/1/1
f 196/1/1 189/1/1 195/1/1
f 199/1/1 198/1/1 197/1/1
f 200/1/1 198/1/1 199/1/1
f 205/1/1 202/1/1 201/1/1
f 206/1/1 202/1/1 205/1/1
f 207/1/1 204/1/1 203/1/1
f 208/1/1 204/1/1 207/1/1
f 209/1/1 207/1/1 206/1/1
f 210/1/1 207/1/1 209/1/1
f 215/1/1 212/1/1 211/1/1
f 216/1/1 212/1/1 215/1/1
f 217/1/1 214/1/1 213/1/1
f 218/1/1 214/1/1 217/1/1
f 229/1/1 220/1/1 219/1/1
f 230/1/1 220/1/1 229/1/1
f 231/1/1 222/1/1 221/1/1
f 232/1/1 222/1/1 231/1/1
f 233/1/1 224/1/1 223/1/1
f 234/1/1 224/1/1 233/1/1
f 235/1/1 226/1/1 225/1/1
f 236/1/1 226/1/1 235/1/1
f 237/1/1 228/1/1 227/1/1
f 238/1/1 228/1/1 237/1/1
f 239/1/1 233/1/1 232/1/1
f 240/1/1 233/1/1 239/1/1
f 241/1/1 237/1/1 236/1/1
f 242/1/1 237/1/1 241/1/1
f 249/1/1 244/1/1 243/1/1
f 250/1/1 244/1/1 249/1/1
f 251/1/1 246/1/1 245/1/1
f 252/1/1 246/1/1 251/1/1
f 253/1/1 248/1/1 247/1/1
f 254/1/1 248/1/1 253/1/1
f 255/1/1 253/1/1 252/1/1
f 256/1/1 253/1/1 255/1/1
f 261/1/1 258/1/1 257/1/1
f 262/1/1 258/1/1 261/1/1
f 263/1/1 260/1/1 259/1/1
f 264/1/1 260/1/1 263/1/1
f 265/1/1 263/1/1 262/1/1
f 266/1/1 263/1/1 265/1/1
f 271/3/1 268/3/1 267/3/1
f 272/3/1 268/3/1 271/3/1
f 273/3/1 270/3/1 269/3/1
f 274/3/1 270/3/1 273/3/1
f 279/3/1 276/3/1 275/3/1
f 280/3/1 276/3/1 279/3/1
f 281/3/1 278/3/1 277/3/1
f 282/3/1 278/3/1 281/3/1
f 285/3/1 284/3/1 283/3/1
f 286/3/1 284/3/1 285/3/1
f 287/3/2 288/3/2 289/3/2
f 289/3/2 288/3/2 290/3/2
f 291/3/2 292/3/2 295/3/2
f 295/3/2 292/3/2 296/3/2
f 293/3/2 294/3/2 297/3/2
f 297/3/2 294/3/2 298/3/2
f 299/3/2 300/3/2 303/3/2
f 303/3/2 300/3/2 304/3/2
f 301/3/2 302/3/2 305/3/2
f 305/3/2 302/3/2 306/3/2
f 307/1/2 308/1/2 311/1/2
f 311/1/2 308/1/2 312/1/2
f 309/1/2 310/1/2 313/1/2
f 313/1/2 310/1/2 314/1/2
f 312/1/2 313/1/2 315/1/2
f 315/1/2 313/1/2 316/1/2
f 317/1/2 318/1/2 319/1/2
f 319/1/2 318/1/2 320/1/2
f 321/1/2 322/1/2 325/1/2
f 325/1/2 322/1/2 326/1/2
f 323/1/2 324/1/2 327/1/2
f 327/1/2 324/1/2 328/1/2
f 326/1/2 327/1/2 329/1/2
f 329/1/2 327/1/2 330/1/2
f 331/1/2 332/1/2 337/1/2
f 337/1/2 332/1/2 338/1/2
f 333/1/2 334/1/2 339/1/2
f 339/1/2 334/1/2 340/1/2
f 335/1/2 336/1/2 341/1/2
f 341/1/2 336/1/2 342/1/2
f 338/1/2 339/1/2 343/1/2
f 343/1/2 339/1/2 344/1/2
f 345/1/2 346/1/2 347/1/2
f 347/1/2 346/1/2 348/1/2
f 349/1/2 350/1/2 353/1/2
f 353/1/2 350/1/2 354/1/2
f 351/1/2 352/1/2 355/1/2
f 355/1/2 352/1/2 356/1/2
f 354/1/2 355/1/2 357/1/2
f 357/1/2 355/1/2 358/1/2
f 359/1/2 360/1/2 361/1/2
f 361/1/2 360/1/2 362/1/2
f 363/1/2 364/1/2 367/1/2
f 367/1/2 364/1/2 368/1/2
f 365/1/2 366/1/2 369/1/2
f 369/1/2 366/1/2 370/1/2
f 368/1/2 369/1/2 371/1/2
f 371/1/2 369/1/2 372/1/2
f 373/1/2 374/1/2 375/1/2
f 375/1/2 374/1/2 376/1/2
f 377/1/2 378/1/2 381/1/2
f 381/1/2 378/1/2 382/1/2
f 379/1/2 380/1/2 383/1/2
f 383/1/2 380/1/2 384/1/2
f 382/1/2 383/1/2 385/1/2
f 385/1/2 383/1/2 386/1/2
f 387/1/2 388/1/2 389/1/2
f 389/1/2 388/1/2 390/1/2
f 391/1/2 392/1/2 403/1/2
f 403/1/2 392/1/2 404/1/2
f 393/1/2 394/1/2 405/1/2
f 405/1/2 394/1/2 406/1/2
f 395/1/2 396/1/2 407/1/2
f 407/1/2 396/1/2 408/1/2
f 397/1/2 398/1/2 409/1/2
f 409/1/2 398/1/2 410/1/2
f 399/1/2 400/1/2 411/1/2
f 411/1/2 400/1/2 412/1/2
f 401/1/2 402/1/2 413/1/2
f 413/1/2 402/1/2 414/1/2
f 404/1/2 405/1/2 415/1/2
f 415/1/2 405/1/2 416/1/2
f 408/1/2 409/1/2 417/1/2
f 417/1/2 409/1/2 418/1/2
f 412/1/2 413/1/2 419/1/2
f 419/1/2 413/1/2 420/1/2
f 421/1/2 422/1/2 431/1/2
f 431/1/2 422/1/2 432/1/2
f 423/1/2 424/1/2 433/1/2
f 433/1/2 424/1/2 434/1/2
f 425/1/2 426/1/2 435/1/2
f 435/1/2 426/1/2 436/1/2
f 427/1/2 428/1/2 437/1/2
f 437/1/2 428/1/2 438/1/2
f 429/1/2 430/1/2 439/1/2
f 439/1/2 430/1/2 440/1/2
f 432/1/2 433/1/2 441/1/2
f 441/1/2 433/1/2 442/1/2
f 443/1/2 444/1/2 445/1/2
f 445/1/2 444/1/2 446/1/2
f 447/1/2 448/1/2 451/1/2
f 451/1/2 448/1/2 452/1/2
f 449/1/2 450/1/2 453/1/2
f 453/1/2 450/1/2 454/1/2
f 452/1/2 453/1/2 455/1/2
f 455/1/2 453/1/2 456/1/2
f 457/1/2 458/1/2 459/1/2
f 459/1/2 458/1/2 460/1/2
f 461/1/2 462/1/2 465/1/2
f 465/1/2 462/1/2 466/1/2
f 463/1/2 464/1/2 467/1/2
f 467/1/2 464/1/2 468/1/2
f 466/1/2 467/1/2 469/1/2
f 469/1/2 467/1/2 470/1/2
f 471/1/2 472/1/2 473/1/2
f 473/1/2 472/1/2 474/1/2
f 475/1/2 476/1/2 479/1/2
f 479/1/2 476/1/2 480/1/2
f 477/1/2 478/1/2 481/1/2
f 481/1/2 478/1/2 482/1/2
f 480/1/2 481/1/2 483/1/2
f 483/1/2 481/1/2 484/1/2
f 485/1/2 486/1/2 491/1/2
f 491/1/2 486/1/2 492/1/2
f 487/1/2 488/1/2 493/1/2
f 493/1/2 488/1/2 494/1/2
f 489/1/2 490/1/2 495/1/2
f 495/1/2 490/1/2 496/1/2
f 494/1/2 495/1/2 497/1/2
f 497/1/2 495/1/2 498/1/2
f 499/3/2 500/3/2 509/3/2
f 509/3/2 500/3/2 510/3/2
f 501/1/2 502/1/2 511/1/2
f 511/1/2 502/1/2 512/1/2
f 503/1/2 504/1/2 513/1/2
f 513/1/2 504/1/2 514/1/2
f 505/1/2 506/1/2 515/1/2
f 515/1/2 506/1/2 516/1/2
f 507/3/2 508/3/2 517/3/2
f 517/3/2 508/3/2 518/3/2
f 512/1/2 513/1/2 519/1/2
f 519/1/2 513/1/2 520/1/2
f 521/3/2 522/3/2 525/3/2
f 525/3/2 522/3/2 526/3/2
f 523/3/2 524/3/2 533/3/2
f 533/3/2 524/3/2 534/3/2
f 527/3/2 528/3/2 535/3/2
f 535/3/2 528/3/2 536/3/2
f 529/1/2 530/1/2 537/1/2
f 537/1/2 530/1/2 538/1/2
f 531/3/2 532/3/2 539/3/2
f 539/3/2 532/3/2 540/3/2
f 541/3/2 542/3/2 545/3/2
f 545/3/2 542/3/2 546/3/2
f 543/3/2 544/3/2 551/3/2
f 551/3/2 544/3/2 552/3/2
f 547/3/2 548/3/2 553/3/2
f 553/3/2 548/3/2 554/3/2
f 549/3/2 550/3/2 555/3/2
f 555/3/2 550/3/2 556/3/2
f 557/3/2 558/3/2 561/3/2
f 561/3/2 558/3/2 562/3/2
f 559/3/2 560/3/2 565/3/2
f 565/3/2 560/3/2 566/3/2
f 563/3/2 564/3/2 567/3/2
f 567/3/2 564/3/2 568/3/2
f 569/3/2 570/3/2 571/3/2
f 571/3/2 570/3/2 572/3/2
f 575/3/3 574/3/3 573/3/3
f 576/3/3 574/3/3 575/3/3
f 579/3/3 578/3/3 577/3/3
f 580/3/3 578/3/3 579/3/3
f 583/3/3 582/3/3 581/3/3
f 584/3/3 582/3/3 583/3/3
f 587/3/3 586/3/3 585/3/3
f 588/3/3 586/3/3 587/3/3
f 591/3/3 590/3/3 589/3/3
f 592/3/3 590/3/3 591/3/3
f 595/3/3 594/3/3 593/3/3
f 596/3/3 594/3/3 595/3/3
f 599/3/3 598/3/3 597/3/3
f 600/3/3 598/3/3 599/3/3
f 603/3/3 602/3/3 601/3/3
f 604/3/3 602/3/3 603/3/3
f 607/3/3 606/3/3 605/3/3
f 608/3/3 606/3/3 607/3/3
f 611/3/3 610/3/3 609/3/3
f 612/3/3 610/3/3 611/3/3
f 615/3/3 614/3/3 613/3/3
f 616/3/3 614/3/3 615/3/3
f 619/3/3 618/3/3 617/3/3
f 620/3/3 618/3/3 619/3/3
f 623/3/3 622/3/3 621/3/3
f 624/3/3 622/3/3 623/3/3
f 627/1/3 626/1/3 625/1/3
f 628/1/3 626/1/3 627/1/3
f 631/3/3 630/3/3 629/3/3
f 632/3/3 630/3/3 631/3/3
f 635/1/3 634/1/3 633/1/3
f 636/1/3 634/1/3 635/1/3
f 639/1/3 637/1/3 636/1/3
f 640/1/3 637/1/3 639/1/3
f 641/1/3 639/1/3 638/1/3
f 642/1/3 639/1/3 641/1/3
f 645/1/3 644/1/3 643/1/3
f 646/1/3 644/1/3 645/1/3
f 649/1/3 648/1/3 647/1/3
f 650/1/3 648/1/3 649/1/3
f 653/1/3 652/1/3 651/1/3
f 654/1/3 652/1/3 653/1/3
f 657/1/3 655/1/3 654/1/3
f 658/1/3 655/1/3 657/1/3
f 659/1/3 657/1/3 656/1/3
f 660/1/3 657/1/3 659/1/3
f 663/1/3 662/1/3 661/1/3
f 664/1/3 662/1/3 663/1/3
f 667/1/3 665/1/3 664/1/3
f 668/1/3 665/1/3 667/1/3
f 669/1/3 667/1/3 666/1/3
f 670/1/3 667/1/3 669/1/3
f 673/1/3 672/1/3 671/1/3
f 674/1/3 672/1/3 673/1/3
f 677/1/3 676/1/3 675/1/3
f 678/1/3 676/1/3 677/1/3
f 681/1/3 680/1/3 679/1/3
f 682/1/3 680/1/3 681/1/3
f 685/1/3 683/1/3 682/1/3
f 686/1/3 683/1/3 685/1/3
f 687/1/3 685/1/3 684/1/3
f 688/1/3 685/1/3 687/1/3
f 691/1/3 690/1/3 689/1/3
f 692/1/3 690/1/3 691/1/3
f 695/1/3 693/1/3 692/1/3
f 696/1/3 693/1/3 695/1/3
f 697/1/3 695/1/3 694/1/3
f 698/1/3 695/1/3 697/1/3
f 701/1/3 700/1/3 699/1/3
f 702/1/3 700/1/3 701/1/3
f 705/1/3 704/1/3 703/1/3
f 706/1/3 704/1/3 705/1/3
f 709/1/3 707/1/3 706/1/3
f 710/1/3 707/1/3 709/1/3
f 711/1/3 709/1/3 708/1/3
f 712/1/3 709/1/3 711/1/3
f 715/1/3 714/1/3 713/1/3
f 716/1/3 714/1/3 715/1/3
f 719/1/3 718/1/3 717/1/3
f 720/1/3 718/1/3 719/1/3
f 723/1/3 721/1/3 720/1/3
f 724/1/3 721/1/3 723/1/3
f 725/1/3 723/1/3 722/1/3
f 726/1/3 723/1/3 725/1/3
f 729/1/3 728/1/3 727/1/3
f 730/1/3 728/1/3 729/1/3
f 733/1/3 732/1/3 731/1/3
f 734/1/3 732/1/3 733/1/3
f 737/1/3 736/1/3 735/1/3
f 738/1/3 736/1/3 737/1/3
f 741/1/3 739/1/3 738/1/3
f 742/1/3 739/1/3 741/1/3
f 743/1/3 741/1/3 740/1/3
f 744/1/3 741/1/3 743/1/3
f 747/1/3 746/1/3 745/1/3
f 748/1/3 746/1/3 747/1/3
f 751/1/3 749/1/3 748/1/3
f 752/1/3 749/1/3 751/1/3
f 753/1/3 751/1/3 750/1/3
f 754/1/3 751/1/3 753/1/3
f 757/1/3 756/1/3 755/1/3
f 758/1/3 756/1/3 757/1/3
f 761/1/3 760/1/3 759/1/3
f 762/1/3 760/1/3 761/1/3
f 765/1/3 763/1/3 762/1/3
f 766/1/3 763/1/3 765/1/3
f 767/1/3 765/1/3 764/1/3
f 768/1/3 765/1/3 767/1/3
f 771/1/3 770/1/3 769/1/3
f 772/1/3 770/1/3 771/1/3
f 775/1/3 774/1/3 773/1/3
f 776/1/3 774/1/3 775/1/3
f 779/1/3 778/1/3 777/1/3
f 780/1/3 778/1/3 779/1/3
f 783/1/3 781/1/3 780/1/3
f 784/1/3 781/1/3 783/1/3
f 785/1/3 783/1/3 782/1/3
f 786/1/3 783/1/3 785/1/3
f 789/1/3 788/1/3 787/1/3
f 790/1/3 788/1/3 789/1/3
f 793/1/3 791/1/3 790/1/3
f 794/1/3 791/1/3 793/1/3
f 795/1/3 793/1/3 792/1/3
f 796/1/3 793/1/3 795/1/3
f 799/1/3 798/1/3 797/1/3
f 800/1/3 798/1/3 799/1/3
f 803/1/3 802/1/3 801/1/3
f 804/1/3 802/1/3 803/1/3
f 807/1/3 805/1/3 804/1/3
f 808/1/3 805/1/3 807/1/3
f 809/1/3 807/1/3 806/1/3
f 810/1/3 807/1/3 809/1/3
f 813/1/3 812/1/3 811/1/3
f 814/1/3 812/1/3 813/1/3
f 817/1/3 816/1/3 815/1/3
f 818/1/3 816/1/3 817/1/3
f 821/1/3 820/1/3 819/1/3
f 822/1/3 820/1/3 821/1/3
f 825/1/3 823/1/3 822/1/3
f 826/1/3 823/1/3 825/1/3
f 827/1/3 825/1/3 824/1/3
f 828/1/3 825/1/3 827/1/3
f 831/1/3 830/1/3 829/1/3
f 832/1/3 830/1/3 831/1/3
f 835/1/3 833/1/3 832/1/3
f 836/1/3 833/1/3 835/1/3
f 837/1/3 835/1/3 834/1/3
f 838/1/3 835/1/3 837/1/3
f 841/3/3 840/3/3 839/3/3
f 842/3/3 840/3/3 841/3/3
f 845/3/3 844/3/3 843/3/3
f 846/3/3 844/3/3 845/3/3
f 849/3/3 848/3/3 847/3/3
f 850/3/3 848/3/3 849/3/3
f 853/3/3 852/3/3 851/3/3
f 854/3/3 852/3/3 853/3/3
f 857/3/3 856/3/3 855/3/3
f 858/3/3 856/3/3 857/3/3
f 859/3/4 860/3/4 861/3/4
f 861/3/4 860/3/4 862/3/4
f 863/3/4 864/3/4 865/3/4
f 865/3/4 864/3/4 866/3/4
f 867/3/4 868/3/4 869/3/4
f 869/3/4 868/3/4 870/3/4
f 871/3/4 872/3/4 873/3/4
f 873/3/4 872/3/4 874/3/4
f 875/3/4 876/3/4 877/3/4
f 877/3/4 876/3/4 878/3/4
f 879/1/4 880/1/4 881/1/4
f 881/1/4 880/1/4 882/1/4
f 882/1/4 883/1/4 885/1/4
f 885/1/4 883/1/4 886/1/4
f 884/1/4 885/1/4 887/1/4
f 887/1/4 885/1/4 888/1/4
f 889/1/4 890/1/4 891/1/4
f 891/1/4 890/1/4 892/1/4
f 893/1/4 894/1/4 895/1/4
f 895/1/4 894/1/4 896/1/4
f 896/1/4 897/1/4 899/1/4
f 899/1/4 897/1/4 900/1/4
f 898/1/4 899/1/4 901/1/4
f 901/1/4 899/1/4 902/1/4
f 903/1/4 904/1/4 905/1/4
f 905/1/4 904/1/4 906/1/4
f 907/1/4 908/1/4 909/1/4
f 909/1/4 908/1/4 910/1/4
f 910/1/4 911/1/4 913/1/4
f 913/1/4 911/1/4 914/1/4
f 912/1/4 913/1/4 915/1/4
f 915/1/4 913/1/4 916/1/4
f 917/1/4 918/1/4 919/1/4
f 919/1/4 918/1/4 920/1/4
f 921/1/4 922/1/4 923/1/4
f 923/1/4 922/1/4 924/1/4
f 924/1/4 925/1/4 927/1/4
f 927/1/4 925/1/4 928/1/4
f 926/1/4 927/1/4 929/1/4
f 929/1/4 927/1/4 930/1/4
f 931/1/4 932/1/4 933/1/4
f 933/1/4 932/1/4 934/1/4
f 934/1/4 935/1/4 937/1/4
f 937/1/4 935/1/4 938/1/4
f 936/1/4 937/1/4 939/1/4
f 939/1/4 937/1/4 940/1/4
f 941/1/4 942/1/4 943/1/4
f 943/1/4 942/1/4 944/1/4
f 945/1/4 946/1/4 947/1/4
f 947/1/4 946/1/4 948/1/4
f 948/1/4 949/1/4 951/1/4
f 951/1/4 949/1/4 952/1/4
f 950/1/4 951/1/4 953/1/4
f 953/1/4 951/1/4 954/1/4
f 955/1/4 956/1/4 957/1/4
f 957/1/4 956/1/4 958/1/4
f 959/1/4 960/1/4 961/1/4
f 961/1/4 960/1/4 962/1/4
f 963/1/4 964/1/4 965/1/4
f 965/1/4 964/1/4 966/1/4
f 966/1/4 967/1/4 969/1/4
f 969/1/4 967/1/4 970/1/4
f 968/1/4 969/1/4 971/1/4
f 971/1/4 969/1/4 972/1/4
f 973/1/4 974/1/4 975/1/4
f 975/1/4 974/1/4 976/1/4
f 976/1/4 977/1/4 979/1/4
f 979/1/4 977/1/4 980/1/4
f 978/1/4 979/1/4 981/1/4
f 981/1/4 979/1/4 982/1/4
f 983/1/4 984/1/4 985/1/4
f 985/1/4 984/1/4 986/1/4
f 986/1/4 987/1/4 989/1/4
f 989/1/4 987/1/4 990/1/4
f 988/1/4 989/1/4 991/1/4
f 991/1/4 989/1/4 992/1/4
f 993/1/4 994/1/4 995/1/4
f 995/1/4 994/1/4 996/1/4
f 997/1/4 998/1/4 999/1/4
f 999/1/4 998/1/4 1000/1/4
f 1001/1/4 1002/1/4 1003/1/4
f 1003/1/4 1002/1/4 1004/1/4
f 1005/1/4 1006/1/4 1007/1/4
f 1007/1/4 1006/1/4 1008/1/4
f 1008/1/4 1009/1/4 1011/1/4
f 1011/1/4 1009/1/4 1012/1/4
f 1010/1/4 1011/1/4 1013/1/4
f 1013/1/4 1011/1/4 1014/1/4
f 1015/1/4 1016/1/4 1017/1/4
f 1017/1/4 1016/1/4 1018/1/4
f 1019/1/4 1020/1/4 1021/1/4
f 1021/1/4 1020/1/4 1022/1/4
f 1022/1/4 1023/1/4 1025/1/4
f 1025/1/4 1023/1/4 1026/1/4
f 1024/1/4 1025/1/4 1027/1/4
f 1027/1/4 1025/1/4 1028/1/4
f 1029/1/4 1030/1/4 1031/1/4
f 1031/1/4 1030/1/4 1032/1/4
f 1033/1/4 1034/1/4 1035/1/4
f 1035/1/4 1034/1/4 1036/1/4
f 1036/1/4 1037/1/4 1039/1/4
f 1039/1/4 1037/1/4 1040/1/4
f 1038/1/4 1039/1/4 1041/1/4
f 1041/1/4 1039/1/4 1042/1/4
f 1043/1/4 1044/1/4 1045/1/4
f 1045/1/4 1044/1/4 1046/1/4
f 1047/1/4 1048/1/4 1049/1/4
f 1049/1/4 1048/1/4 1050/1/4
f 1050/1/4 1051/1/4 1053/1/4
f 1053/1/4 1051/1/4 1054/1/4
f 1052/1/4 1053/1/4 1055/1/4
f 1055/1/4 1053/1/4 1056/1/4
f 1057/1/4 1058/1/4 1059/1/4
f 1059/1/4 1058/1/4 1060/1/4
f 1060/1/4 1061/1/4 1063/1/4
f 1063/1/4 1061/1/4 1064/1/4
f 1062/1/4 1063/1/4 1065/1/4
f 1065/1/4 1063/1/4 1066/1/4
f 1067/1/4 1068/1/4 1069/1/4
f 1069/1/4 1068/1/4 1070/1/4
f 1070/1/4 1071/1/4 1073/1/4
f 1073/1/4 1071/1/4 1074/1/4
f 1072/1/4 1073/1/4 1075/1/4
f 1075/1/4 1073/1/4 1076/1/4
f 1077/1/4 1078/1/4 1079/1/4
f 1079/1/4 1078/1/4 1080/1/4
f 1081/1/4 1082/1/4 1083/1/4
f 1083/1/4 1082/1/4 1084/1/4
f 1085/1/4 1086/1/4 1087/1/4
f 1087/1/4 1086/1/4 1088/1/4
f 1089/3/4 1090/3/4 1091/3/4
f 1091/3/4 1090/3/4 1092/3/4
f 1093/3/4 1094/3/4 1095/3/4
f 1095/3/4 1094/3/4 1096/3/4
f 1097/3/4 1098/3/4 1099/3/4
f 1099/3/4 1098/3/4 1100/3/4
f 1101/3/4 1102/3/4 1103/3/4
f 1103/3/4 1102/3/4 1104/3/4
f 1105/3/4 1106/3/4 1107/3/4
f 1107/3/4 1106/3/4 1108/3/4
f 1109/3/4 1110/3/4 1111/3/4
f 1111/3/4 1110/3/4 1112/3/4
f 1113/3/4 1114/3/4 1115/3/4
f 1115/3/4 1114/3/4 1116/3/4
f 1117/3/4 1118/3/4 1119/3/4
f 1119/3/4 1118/3/4 1120/3/4
f 1121/3/4 1122/3/4 1123/3/4
f 1123/3/4 1122/3/4 1124/3/4
f 1125/3/4 1126/3/4 1127/3/4
f 1127/3/4 1126/3/4 1128/3/4
f 1129/3/4 1130/3/4 1131/3/4
f 1131/3/4 1130/3/4 1132/3/4
f 1133/3/4 1134/3/4 1135/3/4
f 1135/3/4 1134/3/4 1136/3/4
f 1137/3/4 1138/3/4 1139/3/4
f 1139/3/4 1138/3/4 1140/3/4
f 1141/3/4 1142/3/4 1143/3/4
f 1143/3/4 1142/3/4 1144/3/4
f 1148/3/5 1146/3/5 1145/3/5
f 1149/3/5 1146/3/5 1148/3/5
f 1152/3/5 1148/3/5 1147/3/5
f 1152/3/5 1150/3/5 1149/3/5
f 1152/3/5 1149/3/5 1148/3/5
f 1153/3/5 1150/3/5 1152/3/5
f 1156/3/5 1152/3/5 1151/3/5
f 1156/3/5 1154/3/5 1153/3/5
f 1156/3/5 1153/3/5 1152/3/5
f 1157/3/5 1154/3/5 1156/3/5
f 1159/3/5 1156/3/5 1155/3/5
f 1159/3/5 1158/3/5 1157/3/5
f 1159/3/5 1157/3/5 1156/3/5
f 1160/3/5 1158/3/5 1159/3/5
f 1161/3/5 1158/3/5 1160/3/5
f 1162/3/5 1158/3/5 1161/3/5
f 1163/3/5 1161/3/5 1160/3/5
f 1164/3/5 1161/3/5 1163/3/5
f 1165/3/5 1161/3/5 1164/3/5
f 1166/3/5 1161/3/5 1165/3/5
f 1167/3/5 1165/3/5 1164/3/5
f 1168/3/5 1165/3/5 1167/3/5
f 1169/3/5 1165/3/5 1168/3/5
f 1170/3/5 1165/3/5 1169/3/5
f 1171/3/5 1169/3/5 1168/3/5
f 1172/3/5 1169/3/5 1171/3/5
f 1173/3/6 1174/3/6 1176/3/6
f 1176/3/6 1174/3/6 1177/3/6
f 1177/3/6 1174/3/6 1178/3/6
f 1178/3/6 1174/3/6 1179/3/6
f 1175/3/6 1176/3/6 1182/3/6
f 1176/3/6 1177/3/6 1182/3/6
f 1182/3/6 1177/3/6 1183/3/6
f 1183/3/6 1177/3/6 1184/3/6
f 1178/3/6 1179/3/6 1185/3/6
f 1179/3/6 1180/3/6 1185/3/6
f 1185/3/6 1180/3/6 1186/3/6
f 1186/3/6 1180/3/6 1187/3/6
f 1182/3/6 1183/3/6 1190/3/6
f 1181/3/6 1182/3/6 1190/3/6
f 1190/3/6 1183/3/6 1191/3/6
f 1191/3/6 1183/3/6 1192/3/6
f 1184/2/6 1185/2/6 1193/2/6
f 1193/2/6 1185/2/6 1194/2/6
f 1187/3/6 1188/3/6 1195/3/6
f 1186/3/6 1187/3/6 1195/3/6
f 1195/3/6 1188/3/6 1196/3/6
f 1196/3/6 1188/3/6 1197/3/6
f 1189/3/6 1190/3/6 1199/3/6
f 1190/3/6 1191/3/6 1199/3/6
f 1199/3/6 1191/3/6 1200/3/6
f 1193/2/6 1194/2/6 1201/2/6
f 1192/2/6 1193/2/6 1201/2/6
f 1194/2/6 1195/2/6 1201/2/6
f 1201/2/6 1195/2/6 1202/2/6
f 1202/2/6 1195/2/6 1203/2/6
f 1203/2/6 1195/2/6 1204/2/6
f 1197/3/6 1198/3/6 1205/3/6
f 1196/3/6 1197/3/6 1205/3/6
f 1205/3/6 1198/3/6 1206/3/6
f 1200/2/6 1201/2/6 1207/2/6
f 1201/2/6 1202/2/6 1207/2/6
f 1207/2/6 1202/2/6 1208/2/6
f 1203/2/6 1204/2/6 1209/2/6
f 1204/2/6 1205/2/6 1209/2/6
f 1209/2/6 1205/2/6 1210/2/6
f 1210/2/6 1205/2/6 1211/2/6
f 1211/2/6 1205/2/6 1212/2/6
f 1212/2/6 1205/2/6 1213/2/6
f 1213/2/6 1205/2/6 1214/2/6
f 1200/2/6 1207/2/6 1215/2/6
f 1210/2/6 1211/2/6 1218/2/6
f 1218/2/6 1211/2/6 1219/2/6
f 1219/2/6 1211/2/6 1220/2/6
f 1212/2/6 1213/2/6 1221/2/6
f 1221/2/6 1213/2/6 1222/2/6
f 1222/2/6 1213/2/6 1223/2/6
f 1223/2/6 1213/2/6 1224/2/6
f 1214/2/6 1205/2/6 1225/2/6
f 1225/2/6 1205/2/6 1226/2/6
f 1215/2/6 1216/2/6 1227/2/6
f 1217/2/6 1218/2/6 1228/2/6
f 1218/2/6 1219/2/6 1228/2/6
f 1222/2/6 1223/2/6 1229/2/6
f 1226/2/6 1205/2/6 1232/2/6
f 1229/2/6 1230/2/6 1233/2/6
f 1231/2/6 1232/2/6 1234/2/6
f 1227/2/6 1228/2/6 1235/2/6
f 1200/2/6 1215/2/6 1235/2/6
f 1215/2/6 1227/2/6 1235/2/6
f 1228/2/6 1219/2/6 1236/2/6
f 1235/2/6 1228/2/6 1236/2/6
f 1236/2/6 1219/2/6 1237/2/6
f 1229/2/6 1233/2/6 1240/2/6
f 1233/2/6 1234/2/6 1240/2/6
f 1222/2/6 1229/2/6 1240/2/6
f 1240/2/6 1234/2/6 1241/2/6
f 1234/2/6 1232/2/6 1242/2/6
f 1241/2/6 1234/2/6 1242/2/6
f 1232/2/6 1205/2/6 1242/2/6
f 1200/2/6 1235/2/6 1243/2/6
f 1243/2/6 1235/2/6 1244/2/6
f 1237/2/6 1238/2/6 1245/2/6
f 1236/2/6 1237/2/6 1245/2/6
f 1245/2/6 1238/2/6 1246/2/6
f 1246/2/6 1238/2/6 1247/2/6
f 1240/2/6 1241/2/6 1248/2/6
f 1239/2/6 1240/2/6 1248/2/6
f 1248/2/6 1241/2/6 1249/2/6
f 1249/2/6 1241/2/6 1250/2/6
f 1242/2/6 1205/2/6 1251/2/6
f 1251/2/6 1205/2/6 1252/2/6
f 1246/2/6 1247/2/6 1253/2/6
f 1248/2/6 1249/2/6 1253/2/6
f 1247/2/6 1248/2/6 1253/2/6
f 1253/2/6 1249/2/6 1254/2/6
f 1246/2/6 1253/2/6 1255/2/6
f 1255/2/6 1253/2/6 1256/2/6
f 1254/2/6 1249/2/6 1257/2/6
f 1257/2/6 1249/2/6 1258/2/6
f 1246/2/6 1255/2/6 1259/2/6
f 1258/2/6 1249/2/6 1262/2/6
f 1200/2/6 1243/2/6 1263/2/6
f 1259/2/6 1260/2/6 1266/2/6
f 1246/2/6 1259/2/6 1266/2/6
f 1266/2/6 1260/2/6 1267/2/6
f 1261/2/6 1262/2/6 1268/2/6
f 1262/2/6 1249/2/6 1269/2/6
f 1268/2/6 1262/2/6 1269/2/6
f 1252/2/6 1205/2/6 1272/2/6
f 1263/2/6 1264/2/6 1273/2/6
f 1269/2/6 1270/2/6 1274/2/6
f 1266/2/6 1267/2/6 1274/2/6
f 1267/2/6 1268/2/6 1274/2/6
f 1265/2/6 1266/2/6 1274/2/6
f 1268/2/6 1269/2/6 1274/2/6
f 1274/2/6 1270/2/6 1275/2/6
f 1271/2/6 1272/2/6 1276/2/6
f 1274/2/6 1275/2/6 1277/2/6
f 1275/2/6 1276/2/6 1277/2/6
f 1273/2/6 1274/2/6 1277/2/6
f 1277/2/6 1276/2/6 1278/2/6
f 1273/2/6 1277/2/6 1279/2/6
f 1279/2/6 1277/2/6 1280/2/6
f 1278/2/6 1276/2/6 1281/2/6
f 1281/2/6 1276/2/6 1282/2/6
f 1282/2/6 1276/2/6 1283/2/6
f 1283/2/6 1276/2/6 1284/2/6
f 1263/2/6 1273/2/6 1285/2/6
f 1200/2/6 1263/2/6 1285/2/6
f 1273/2/6 1279/2/6 1285/2/6
f 1285/2/6 1279/2/6 1286/2/6
f 1282/2/6 1283/2/6 1287/2/6
f 1287/2/6 1283/2/6 1288/2/6
f 1284/2/6 1276/2/6 1289/2/6
f 1289/2/6 1276/2/6 1290/2/6
f 1200/2/6 1285/2/6 1291/2/6
f 1291/2/6 1285/2/6 1292/2/6
f 1286/2/6 1279/2/6 1293/2/6
f 1293/2/6 1279/2/6 1294/2/6
f 1282/2/6 1287/2/6 1295/2/6
f 1290/2/6 1276/2/6 1298/2/6
f 1200/2/6 1291/2/6 1299/2/6
f 1294/2/6 1279/2/6 1302/2/6
f 1302/2/6 1279/2/6 1303/2/6
f 1295/2/6 1296/2/6 1306/2/6
f 1282/2/6 1295/2/6 1306/2/6
f 1306/2/6 1296/2/6 1307/2/6
f 1307/2/6 1296/2/6 1308/2/6
f 1308/2/6 1296/2/6 1309/2/6
f 1297/2/6 1298/2/6 1310/2/6
f 1299/2/6 1300/2/6 1311/2/6
f 1303/2/6 1304/2/6 1312/2/6
f 1302/2/6 1303/2/6 1312/2/6
f 1301/2/6 1302/2/6 1312/2/6
f 1312/2/6 1304/2/6 1313/2/6
f 1305/2/6 1306/2/6 1314/2/6
f 1306/2/6 1307/2/6 1314/2/6
f 1314/2/6 1307/2/6 1315/2/6
f 1315/2/6 1307/2/6 1316/2/6
f 1308/2/6 1309/2/6 1317/2/6
f 1309/2/6 1310/2/6 1317/2/6
f 1317/2/6 1310/2/6 1318/2/6
f 1314/2/6 1315/2/6 1319/2/6
f 1312/2/6 1313/2/6 1319/2/6
f 1313/2/6 1314/2/6 1319/2/6
f 1311/2/6 1312/2/6 1319/2/6
f 1318/2/6 1310/2/6 1322/2/6
f 1322/2/6 1310/2/6 1323/2/6
f 1323/2/6 1310/2/6 1324/2/6
f 1319/2/6 1320/2/6 1325/2/6
f 1311/2/6 1319/2/6 1325/2/6
f 1325/2/6 1320/2/6 1326/2/6
f 1326/2/6 1320/2/6 1327/2/6
f 1322/2/6 1323/2/6 1328/2/6
f 1321/2/6 1322/2/6 1328/2/6
f 1328/2/6 1323/2/6 1329/2/6
f 1329/2/6 1323/2/6 1330/2/6
f 1324/2/6 1310/2/6 1331/2/6
f 1331/2/6 1310/2/6 1332/2/6
f 1311/2/6 1325/2/6 1333/2/6
f 1333/2/6 1325/2/6 1334/2/6
f 1326/2/6 1327/2/6 1335/2/6
f 1328/2/6 1329/2/6 1335/2/6
f 1327/2/6 1328/2/6 1335/2/6
f 1335/2/6 1329/2/6 1336/2/6
f 1336/2/6 1329/2/6 1337/2/6
f 1332/2/6 1310/2/6 1340/2/6
f 1337/2/6 1338/2/6 1341/2/6
f 1339/2/6 1340/2/6 1342/2/6
f 1311/2/6 1333/2/6 1343/2/6
f 1337/2/6 1341/2/6 1346/2/6
f 1341/2/6 1342/2/6 1346/2/6
f 1336/2/6 1337/2/6 1346/2/6
f 1343/2/6 1344/2/6 1347/2/6
f 1345/2/6 1346/2/6 1348/2/6
f 1342/2/6 1340/2/6 1349/2/6
f 1340/2/6 1310/2/6 1349/2/6
f 1348/2/6 1346/2/6 1349/2/6
f 1346/2/6 1342/2/6 1349/2/6
f 1298/2/6 1276/2/6 1350/2/6
f 1349/2/6 1310/2/6 1350/2/6
f 1310/2/6 1298/2/6 1350/2/6
f 1348/2/6 1349/2/6 1351/2/6
f 1347/2/6 1348/2/6 1351/2/6
f 1351/2/6 1349/2/6 1352/2/6
f 1350/2/6 1276/2/6 1353/2/6
f 1276/2/6 1272/2/6 1354/2/6
f 1353/2/6 1276/2/6 1354/2/6
f 1343/2/6 1347/2/6 1355/2/6
f 1347/2/6 1351/2/6 1355/2/6
f 1311/2/6 1343/2/6 1355/2/6
f 1355/2/6 1351/2/6 1356/2/6
f 1356/2/6 1351/2/6 1357/2/6
f 1357/2/6 1351/2/6 1358/2/6
f 1311/2/6 1355/2/6 1359/2/6
f 1359/2/6 1355/2/6 1360/2/6
f 1356/2/6 1357/2/6 1361/2/6
f 1361/2/6 1357/2/6 1362/2/6
f 1362/2/6 1357/2/6 1363/2/6
f 1363/2/6 1357/2/6 1364/2/6
f 1358/2/6 1351/2/6 1365/2/6
f 1365/2/6 1351/2/6 1366/2/6
f 1311/2/6 1359/2/6 1367/2/6
f 1362/2/6 1363/2/6 1370/2/6
f 1370/2/6 1363/2/6 1371/2/6
f 1366/2/6 1351/2/6 1374/2/6
f 1374/2/6 1351/2/6 1375/2/6
f 1354/2/6 1272/2/6 1378/2/6
f 1367/2/6 1368/2/6 1379/2/6
f 1371/2/6 1372/2/6 1380/2/6
f 1369/2/6 1370/2/6 1380/2/6
f 1370/2/6 1371/2/6 1380/2/6
f 1380/2/6 1372/2/6 1381/2/6
f 1375/2/6 1376/2/6 1382/2/6
f 1373/2/6 1374/2/6 1382/2/6
f 1374/2/6 1375/2/6 1382/2/6
f 1382/2/6 1376/2/6 1383/2/6
f 1377/2/6 1378/2/6 1384/2/6
f 1189/3/6 1199/3/6 1385/3/6
f 1383/2/6 1384/2/6 1386/2/6
f 1299/2/6 1311/2/6 1386/2/6
f 1380/2/6 1381/2/6 1386/2/6
f 1200/2/6 1299/2/6 1386/2/6
f 1381/2/6 1382/2/6 1386/2/6
f 1367/2/6 1379/2/6 1386/2/6
f 1382/2/6 1383/2/6 1386/2/6
f 1379/2/6 1380/2/6 1386/2/6
f 1311/2/6 1367/2/6 1386/2/6
f 1386/2/6 1384/2/6 1387/2/6
f 1384/2/6 1378/2/6 1388/2/6
f 1387/2/6 1384/2/6 1388/2/6
f 1272/2/6 1205/2/6 1388/2/6
f 1378/2/6 1272/2/6 1388/2/6
f 1388/2/6 1205/2/6 1389/2/6
f 1206/3/6 1198/3/6 1390/3/6
f 1189/3/6 1385/3/6 1391/3/6
f 1385/3/6 1386/3/6 1391/3/6
f 1391/3/6 1386/3/6 1392/3/6
f 1392/3/6 1386/3/6 1393/3/6
f 1387/2/6 1388/2/6 1394/2/6
f 1394/2/6 1388/2/6 1395/2/6
f 1395/2/6 1388/2/6 1396/2/6
f 1396/2/6 1388/2/6 1397/2/6
f 1389/3/6 1390/3/6 1398/3/6
f 1390/3/6 1198/3/6 1399/3/6
f 1398/3/6 1390/3/6 1399/3/6
f 1399/3/6 1198/3/6 1400/3/6
f 1392/3/6 1393/3/6 1401/3/6
f 1393/3/6 1394/3/6 1401/3/6
f 1401/3/6 1394/3/6 1402/3/6
f 1402/3/6 1394/3/6 1403/3/6
f 1395/2/6 1396/2/6 1404/2/6
f 1404/2/6 1396/2/6 1405/2/6
f 1397/3/6 1398/3/6 1406/3/6
f 1398/3/6 1399/3/6 1406/3/6
f 1406/3/6 1399/3/6 1407/3/6
f 1407/3/6 1399/3/6 1408/3/6
f 1403/3/6 1404/3/6 1409/3/6
f 1402/3/6 1403/3/6 1409/3/6
f 1409/3/6 1404/3/6 1410/3/6
f 1410/3/6 1404/3/6 1411/3/6
f 1406/3/6 1407/3/6 1412/3/6
f 1405/3/6 1406/3/6 1412/3/6
f 1412/3/6 1407/3/6 1413/3/6
f 1413/3/6 1407/3/6 1414/3/6
f 1410/3/6 1411/3/6 1415/3/6
f 1412/3/6 1413/3/6 1415/3/6
f 1411/3/6 1412/3/6 1415/3/6
f 1415/3/6 1413/3/6 1416/3/6
f 1417/3/6 1418/3/6 1420/3/6
f 1420/3/6 1418/3/6 1421/3/6
f 1419/3/6 1420/3/6 1424/3/6
f 1424/3/6 1420/3/6 1425/3/6
f 1421/3/6 1422/3/6 1426/3/6
f 1426/3/6 1422/3/6 1427/3/6
f 1423/3/6 1424/3/6 1430/3/6
f 1430/3/6 1424/3/6 1431/3/6
f 1427/3/6 1428/3/6 1434/3/6
f 1434/3/6 1428/3/6 1435/3/6
f 1432/1/6 1433/1/6 1438/1/6
f 1438/1/6 1433/1/6 1439/1/6
f 1437/1/6 1438/1/6 1445/1/6
f 1445/1/6 1438/1/6 1446/1/6
f 1439/1/6 1440/1/6 1447/1/6
f 1447/1/6 1440/1/6 1448/1/6
f 1441/1/6 1442/1/6 1450/1/6
f 1450/1/6 1442/1/6 1451/1/6
f 1443/1/6 1444/1/6 1454/1/6
f 1454/1/6 1444/1/6 1455/1/6
f 1446/1/6 1447/1/6 1457/1/6
f 1457/1/6 1447/1/6 1458/1/6
f 1453/1/6 1454/1/6 1459/1/6
f 1459/1/6 1454/1/6 1460/1/6
f 1455/1/6 1456/1/6 1461/1/6
f 1461/1/6 1456/1/6 1462/1/6
f 1460/1/6 1461/1/6 1463/1/6
f 1463/1/6 1461/1/6 1464/1/6
f 1449/1/6 1450/1/6 1467/1/6
f 1467/1/6 1450/1/6 1468/1/6
f 1451/1/6 1452/1/6 1469/1/6
f 1469/1/6 1452/1/6 1470/1/6
f 1465/1/6 1466/1/6 1474/1/6
f 1474/1/6 1466/1/6 1475/1/6
f 1468/1/6 1469/1/6 1477/1/6
f 1477/1/6 1469/1/6 1478/1/6
f 1471/1/6 1472/1/6 1480/1/6
f 1480/1/6 1472/1/6 1481/1/6
f 1483/1/6 1484/1/6 1486/1/6
f 1486/1/6 1484/1/6 1487/1/6
f 1485/1/6 1486/1/6 1489/1/6
f 1489/1/6 1486/1/6 1490/1/6
f 1487/1/6 1488/1/6 1491/1/6
f 1491/1/6 1488/1/6 1492/1/6
f 1473/1/6 1474/1/6 1493/1/6
f 1493/1/6 1474/1/6 1494/1/6
f 1475/1/6 1476/1/6 1495/1/6
f 1495/1/6 1476/1/6 1496/1/6
f 1490/1/6 1491/1/6 1497/1/6
f 1497/1/6 1491/1/6 1498/1/6
f 1479/1/6 1480/1/6 1499/1/6
f 1499/1/6 1480/1/6 1500/1/6
f 1481/1/6 1482/1/6 1501/1/6
f 1501/1/6 1482/1/6 1502/1/6
f 1494/1/6 1495/1/6 1503/1/6
f 1503/1/6 1495/1/6 1504/1/6
f 1500/1/6 1501/1/6 1505/1/6
f 1505/1/6 1501/1/6 1506/1/6
f 1507/1/6 1508/1/6 1510/1/6
f 1510/1/6 1508/1/6 1511/1/6
f 1513/1/6 1514/1/6 1518/1/6
f 1518/1/6 1514/1/6 1519/1/6
f 1515/1/6 1516/1/6 1522/1/6
f 1522/1/6 1516/1/6 1523/1/6
f 1517/1/6 1518/1/6 1525/1/6
f 1525/1/6 1518/1/6 1526/1/6
f 1519/1/6 1520/1/6 1527/1/6
f 1527/1/6 1520/1/6 1528/1/6
f 1521/1/6 1522/1/6 1529/1/6
f 1529/1/6 1522/1/6 1530/1/6
f 1523/1/6 1524/1/6 1531/1/6
f 1531/1/6 1524/1/6 1532/1/6
f 1509/1/6 1510/1/6 1533/1/6
f 1533/1/6 1510/1/6 1534/1/6
f 1511/1/6 1512/1/6 1535/1/6
f 1535/1/6 1512/1/6 1536/1/6
f 1526/1/6 1527/1/6 1539/1/6
f 1539/1/6 1527/1/6 1540/1/6
f 1530/1/6 1531/1/6 1541/1/6
f 1541/1/6 1531/1/6 1542/1/6
f 1534/1/6 1535/1/6 1543/1/6
f 1543/1/6 1535/1/6 1544/1/6
f 1537/1/6 1538/1/6 1546/1/6
f 1546/1/6 1538/1/6 1547/1/6
f 1545/1/6 1546/1/6 1549/1/6
f 1549/1/6 1546/1/6 1550/1/6
f 1547/1/6 1548/1/6 1551/1/6
f 1551/1/6 1548/1/6 1552/1/6
f 1550/1/6 1551/1/6 1557/1/6
f 1557/1/6 1551/1/6 1558/1/6
f 1553/1/6 1554/1/6 1560/1/6
f 1560/1/6 1554/1/6 1561/1/6
f 1555/1/6 1556/1/6 1564/1/6
f 1564/1/6 1556/1/6 1565/1/6
f 1559/1/6 1560/1/6 1567/1/6
f 1567/1/6 1560/1/6 1568/1/6
f 1561/1/6 1562/1/6 1569/1/6
f 1569/1/6 1562/1/6 1570/1/6
f 1568/1/6 1569/1/6 1571/1/6
f 1571/1/6 1569/1/6 1572/1/6
f 1563/1/6 1564/1/6 1573/1/6
f 1573/1/6 1564/1/6 1574/1/6
f 1565/1/6 1566/1/6 1575/1/6
f 1575/1/6 1566/1/6 1576/1/6
f 1574/1/6 1575/1/6 1577/1/6
f 1577/1/6 1575/1/6 1578/1/6
f 1579/1/6 1580/1/6 1582/1/6
f 1582/1/6 1580/1/6 1583/1/6
f 1585/1/6 1586/1/6 1590/1/6
f 1590/1/6 1586/1/6 1591/1/6
f 1587/1/6 1588/1/6 1594/1/6
f 1594/1/6 1588/1/6 1595/1/6
f 1589/1/6 1590/1/6 1597/1/6
f 1597/1/6 1590/1/6 1598/1/6
f 1591/1/6 1592/1/6 1599/1/6
f 1599/1/6 1592/1/6 1600/1/6
f 1593/1/6 1594/1/6 1601/1/6
f 1601/1/6 1594/1/6 1602/1/6
f 1595/1/6 1596/1/6 1603/1/6
f 1603/1/6 1596/1/6 1604/1/6
f 1581/1/6 1582/1/6 1605/1/6
f 1605/1/6 1582/1/6 1606/1/6
f 1583/1/6 1584/1/6 1607/1/6
f 1607/1/6 1584/1/6 1608/1/6
f 1598/1/6 1599/1/6 1609/1/6
f 1609/1/6 1599/1/6 1610/1/6
f 1602/1/6 1603/1/6 1611/1/6
f 1611/1/6 1603/1/6 1612/1/6
f 1606/1/6 1607/1/6 1613/1/6
f 1613/1/6 1607/1/6 1614/1/6
f 1429/3/6 1430/3/6 1615/3/6
f 1615/3/6 1430/3/6 1616/3/6
f 1435/3/6 1436/3/6 1619/3/6
f 1619/3/6 1436/3/6 1620/3/6
f 1616/3/6 1617/3/6 1621/3/6
f 1621/3/6 1617/3/6 1622/3/6
f 1618/3/6 1619/3/6 1625/3/6
f 1625/3/6 1619/3/6 1626/3/6
f 1622/3/6 1623/3/6 1627/3/6
f 1627/3/6 1623/3/6 1628/3/6
f 1624/3/6 1625/3/6 1629/3/6
f 1629/3/6 1625/3/6 1630/3/6
f 1628/3/6 1629/3/6 1631/3/6
f 1631/3/6 1629/3/6 1632/3/6
f 1633/1/6 1634/1/6 1635/1/6
f 1635/1/6 1634/1/6 1636/1/6
f 1639/1/6 1640/1/6 1641/1/6
f 1641/1/6 1640/1/6 1642/1/6
f 1637/1/6 1638/1/6 1643/1/6
f 1643/1/6 1638/1/6 1644/1/6
f 1649/1/6 1650/1/6 1651/1/6
f 1651/1/6 1650/1/6 1652/1/6
f 1645/1/6 1646/1/6 1653/1/6
f 1653/1/6 1646/1/6 1654/1/6
f 1647/1/6 1648/1/6 1655/1/6
f 1655/1/6 1648/1/6 1656/1/6
f 1659/1/6 1660/1/6 1663/1/6
f 1663/1/6 1660/1/6 1664/1/6
f 1661/1/6 1662/1/6 1665/1/6
f 1665/1/6 1662/1/6 1666/1/6
f 1657/1/6 1658/1/6 1667/1/6
f 1667/1/6 1658/1/6 1668/1/6
f 1669/1/6 1670/1/6 1671/1/6
f 1671/1/6 1670/1/6 1672/1/6
f 1673/1/6 1674/1/6 1677/1/6
f 1677/1/6 1674/1/6 1678/1/6
f 1675/1/6 1676/1/6 1679/1/6
f 1679/1/6 1676/1/6 1680/1/6
f 1683/1/6 1684/1/6 1687/1/6
f 1687/1/6 1684/1/6 1688/1/6
f 1685/1/6 1686/1/6 1689/1/6
f 1689/1/6 1686/1/6 1690/1/6
f 1681/1/6 1682/1/6 1691/1/6
f 1691/1/6 1682/1/6 1692/1/6
