# MagicaVoxel @ Ephtracy

# group
o 

# material
mtllib DoorBlue.mtl
usemtl palette

# normals
vn -1 0 0
vn 1 0 0
vn 0 0 1
vn 0 0 -1
vn 0 -1 0
vn 0 1 0

# texcoords
vt 0.771484 0.5
vt 0.982422 0.5
vt 0.986328 0.5
vt 0.990234 0.5

# verts
v -4 0 0.5
v -4 0 -0.5
v -4 0.3 0.5
v -4 0.3 -0.5
v -4 0.9 0.5
v -4 0.9 -0.5
v -4 1.1 0.5
v -4 1.1 -0.5
v -4 1.9 0.5
v -4 1.9 -0.5
v -4 2.1 0.5
v -4 2.1 -0.5
v -4 2.9 0.5
v -4 2.9 -0.5
v -4 3.1 0.5
v -4 3.1 -0.5
v -4 3.9 0.5
v -4 3.9 -0.5
v -4 4.1 0.5
v -4 4.1 -0.5
v -4 4.9 0.5
v -4 4.9 -0.5
v -4 5.1 0.5
v -4 5.1 -0.5
v -4 5.9 0.5
v -4 5.9 -0.5
v -4 6.1 0.5
v -4 6.1 -0.5
v -4 6.9 0.5
v -4 6.9 -0.5
v -4 7.1 0.5
v -4 7.1 -0.5
v -4 7.9 0.5
v -4 7.9 -0.5
v -4 8 0.5
v -4 8 -0.5
v 4 0 0.5
v 4 0 -0.5
v 4 0.3 0.5
v 4 0.3 -0.5
v 4 0.9 0.5
v 4 0.9 -0.5
v 4 1.1 0.5
v 4 1.1 -0.5
v 4 1.9 0.5
v 4 1.9 -0.5
v 4 2.1 0.5
v 4 2.1 -0.5
v 4 2.9 0.5
v 4 2.9 -0.5
v 4 3.1 0.5
v 4 3.1 -0.5
v 4 3.9 0.5
v 4 3.9 -0.5
v 4 4.1 0.5
v 4 4.1 -0.5
v 4 4.9 0.5
v 4 4.9 -0.5
v 4 5.1 0.5
v 4 5.1 -0.5
v 4 5.9 0.5
v 4 5.9 -0.5
v 4 6.1 0.5
v 4 6.1 -0.5
v 4 6.9 0.5
v 4 6.9 -0.5
v 4 7.1 0.5
v 4 7.1 -0.5
v 4 7.9 0.5
v 4 7.9 -0.5
v 4 8 0.5
v 4 8 -0.5
v -4 0 0.5
v -4 0.3 0.5
v -4 0.9 0.5
v -4 1.1 0.5
v -4 1.9 0.5
v -4 2.1 0.5
v -4 2.9 0.5
v -4 3.1 0.5
v -4 3.9 0.5
v -4 4.1 0.5
v -4 4.9 0.5
v -4 5.1 0.5
v -4 5.9 0.5
v -4 6.1 0.5
v -4 6.9 0.5
v -4 7.1 0.5
v -4 7.9 0.5
v -4 8 0.5
v -2.9 7.1 0.5
v -2.9 7.2 0.5
v -2.8 7 0.5
v -2.8 7.1 0.5
v -2.7 1.2 0.5
v -2.7 1.4 0.5
v -2.7 6.9 0.5
v -2.7 7 0.5
v -2.6 1.4 0.5
v -2.6 1.5 0.5
v -2.6 6.8 0.5
v -2.6 6.9 0.5
v -2.6 7.1 0.5
v -2.6 7.2 0.5
v -2.5 1.2 0.5
v -2.5 1.3 0.5
v -2.5 1.5 0.5
v -2.5 1.6 0.5
v -2.5 6.7 0.5
v -2.5 6.8 0.5
v -2.5 7 0.5
v -2.5 7.1 0.5
v -2.4 1.3 0.5
v -2.4 1.4 0.5
v -2.4 1.6 0.5
v -2.4 1.7 0.5
v -2.4 6.6 0.5
v -2.4 6.7 0.5
v -2.4 6.9 0.5
v -2.4 7 0.5
v -2.3 1.4 0.5
v -2.3 1.5 0.5
v -2.3 1.7 0.5
v -2.3 1.8 0.5
v -2.3 6.5 0.5
v -2.3 6.6 0.5
v -2.3 6.8 0.5
v -2.3 6.9 0.5
v -2.2 1.5 0.5
v -2.2 1.6 0.5
v -2.2 1.8 0.5
v -2.2 1.9 0.5
v -2.2 6.4 0.5
v -2.2 6.5 0.5
v -2.2 6.7 0.5
v -2.2 6.8 0.5
v -2.1 1.6 0.5
v -2.1 1.7 0.5
v -2.1 1.9 0.5
v -2.1 2 0.5
v -2.1 6.3 0.5
v -2.1 6.4 0.5
v -2.1 6.6 0.5
v -2.1 6.7 0.5
v -2 1.7 0.5
v -2 1.8 0.5
v -2 2 0.5
v -2 2.1 0.5
v -2 6.2 0.5
v -2 6.3 0.5
v -2 6.5 0.5
v -2 6.6 0.5
v -1.9 1.8 0.5
v -1.9 1.9 0.5
v -1.9 2.1 0.5
v -1.9 2.2 0.5
v -1.9 6.1 0.5
v -1.9 6.2 0.5
v -1.9 6.4 0.5
v -1.9 6.5 0.5
v -1.8 1.9 0.5
v -1.8 2 0.5
v -1.8 2.2 0.5
v -1.8 2.4 0.5
v -1.8 6 0.5
v -1.8 6.1 0.5
v -1.8 6.3 0.5
v -1.8 6.4 0.5
v -1.7 2 0.5
v -1.7 2.1 0.5
v -1.7 2.4 0.5
v -1.7 2.5 0.5
v -1.7 5.9 0.5
v -1.7 6 0.5
v -1.7 6.2 0.5
v -1.7 6.3 0.5
v -1.6 2.1 0.5
v -1.6 2.3 0.5
v -1.6 2.5 0.5
v -1.6 2.6 0.5
v -1.6 5.8 0.5
v -1.6 5.9 0.5
v -1.6 6.1 0.5
v -1.6 6.2 0.5
v -1.5 2.3 0.5
v -1.5 2.4 0.5
v -1.5 2.6 0.5
v -1.5 2.7 0.5
v -1.5 5.6 0.5
v -1.5 5.8 0.5
v -1.5 6 0.5
v -1.5 6.1 0.5
v -1.4 2.4 0.5
v -1.4 2.5 0.5
v -1.4 2.7 0.5
v -1.4 2.8 0.5
v -1.4 5.5 0.5
v -1.4 5.6 0.5
v -1.4 5.9 0.5
v -1.4 6 0.5
v -1.3 2.5 0.5
v -1.3 2.6 0.5
v -1.3 2.8 0.5
v -1.3 2.9 0.5
v -1.3 5.4 0.5
v -1.3 5.5 0.5
v -1.3 5.8 0.5
v -1.3 5.9 0.5
v -1.2 2.6 0.5
v -1.2 2.7 0.5
v -1.2 2.9 0.5
v -1.2 3 0.5
v -1.2 5.3 0.5
v -1.2 5.4 0.5
v -1.2 5.6 0.5
v -1.2 5.8 0.5
v -1.1 2.7 0.5
v -1.1 2.8 0.5
v -1.1 3 0.5
v -1.1 3.1 0.5
v -1.1 5.2 0.5
v -1.1 5.3 0.5
v -1.1 5.5 0.5
v -1.1 5.6 0.5
v -1 2.8 0.5
v -1 2.9 0.5
v -1 3.1 0.5
v -1 3.2 0.5
v -1 5.1 0.5
v -1 5.2 0.5
v -1 5.4 0.5
v -1 5.5 0.5
v -0.9 2.9 0.5
v -0.9 3 0.5
v -0.9 3.2 0.5
v -0.9 3.3 0.5
v -0.9 5 0.5
v -0.9 5.1 0.5
v -0.9 5.3 0.5
v -0.9 5.4 0.5
v -0.8 3 0.5
v -0.8 3.1 0.5
v -0.8 3.3 0.5
v -0.8 3.4 0.5
v -0.8 4.9 0.5
v -0.8 5 0.5
v -0.8 5.2 0.5
v -0.8 5.3 0.5
v -0.7 3.1 0.5
v -0.7 3.2 0.5
v -0.7 3.4 0.5
v -0.7 3.5 0.5
v -0.7 4.8 0.5
v -0.7 4.9 0.5
v -0.7 5.1 0.5
v -0.7 5.2 0.5
v -0.6 3.2 0.5
v -0.6 3.3 0.5
v -0.6 3.5 0.5
v -0.6 3.6 0.5
v -0.6 4.7 0.5
v -0.6 4.8 0.5
v -0.6 5 0.5
v -0.6 5.1 0.5
v -0.5 3.3 0.5
v -0.5 3.4 0.5
v -0.5 3.6 0.5
v -0.5 3.7 0.5
v -0.5 4.6 0.5
v -0.5 4.7 0.5
v -0.5 4.9 0.5
v -0.5 5 0.5
v -0.4 3.4 0.5
v -0.4 3.5 0.5
v -0.4 3.7 0.5
v -0.4 3.8 0.5
v -0.4 4.5 0.5
v -0.4 4.6 0.5
v -0.4 4.8 0.5
v -0.4 4.9 0.5
v -0.3 0.1 0.5
v -0.3 0.2 0.5
v -0.3 3.5 0.5
v -0.3 3.6 0.5
v -0.3 3.8 0.5
v -0.3 3.9 0.5
v -0.3 4.4 0.5
v -0.3 4.5 0.5
v -0.3 4.7 0.5
v -0.3 4.8 0.5
v -0.2 3.6 0.5
v -0.2 3.7 0.5
v -0.2 3.9 0.5
v -0.2 4 0.5
v -0.2 4.3 0.5
v -0.2 4.4 0.5
v -0.2 4.6 0.5
v -0.2 4.7 0.5
v -0.0999999 3.7 0.5
v -0.0999999 3.8 0.5
v -0.0999999 4 0.5
v -0.0999999 4.1 0.5
v -0.0999999 4.2 0.5
v -0.0999999 4.3 0.5
v -0.0999999 4.5 0.5
v -0.0999999 4.6 0.5
v 0 3.8 0.5
v 0 3.9 0.5
v 0 4.1 0.5
v 0 4.2 0.5
v 0 4.4 0.5
v 0 4.5 0.5
v 0.1 3.9 0.5
v 0.1 4 0.5
v 0.2 3.9 0.5
v 0.2 4 0.5
v 0.2 4.4 0.5
v 0.2 4.5 0.5
v 0.3 0.1 0.5
v 0.3 0.2 0.5
v 0.3 3.8 0.5
v 0.3 3.9 0.5
v 0.3 4.1 0.5
v 0.3 4.3 0.5
v 0.3 4.5 0.5
v 0.3 4.6 0.5
v 0.4 3.7 0.5
v 0.4 3.8 0.5
v 0.4 4 0.5
v 0.4 4.1 0.5
v 0.4 4.3 0.5
v 0.4 4.4 0.5
v 0.4 4.6 0.5
v 0.4 4.7 0.5
v 0.5 3.6 0.5
v 0.5 3.7 0.5
v 0.5 3.9 0.5
v 0.5 4 0.5
v 0.5 4.4 0.5
v 0.5 4.5 0.5
v 0.5 4.7 0.5
v 0.5 4.8 0.5
v 0.6 3.5 0.5
v 0.6 3.6 0.5
v 0.6 3.8 0.5
v 0.6 3.9 0.5
v 0.6 4.5 0.5
v 0.6 4.6 0.5
v 0.6 4.8 0.5
v 0.6 4.9 0.5
v 0.7 3.4 0.5
v 0.7 3.5 0.5
v 0.7 3.7 0.5
v 0.7 3.8 0.5
v 0.7 4.6 0.5
v 0.7 4.7 0.5
v 0.7 4.9 0.5
v 0.7 5 0.5
v 0.8 3.3 0.5
v 0.8 3.4 0.5
v 0.8 3.6 0.5
v 0.8 3.7 0.5
v 0.8 4.7 0.5
v 0.8 4.8 0.5
v 0.8 5 0.5
v 0.8 5.1 0.5
v 0.9 3.2 0.5
v 0.9 3.3 0.5
v 0.9 3.5 0.5
v 0.9 3.6 0.5
v 0.9 4.8 0.5
v 0.9 4.9 0.5
v 0.9 5.1 0.5
v 0.9 5.2 0.5
v 1 3.1 0.5
v 1 3.2 0.5
v 1 3.4 0.5
v 1 3.5 0.5
v 1 4.9 0.5
v 1 5 0.5
v 1 5.2 0.5
v 1 5.3 0.5
v 1.1 3 0.5
v 1.1 3.1 0.5
v 1.1 3.3 0.5
v 1.1 3.4 0.5
v 1.1 5 0.5
v 1.1 5.1 0.5
v 1.1 5.3 0.5
v 1.1 5.4 0.5
v 1.2 2.9 0.5
v 1.2 3 0.5
v 1.2 3.2 0.5
v 1.2 3.3 0.5
v 1.2 5.1 0.5
v 1.2 5.2 0.5
v 1.2 5.4 0.5
v 1.2 5.5 0.5
v 1.3 2.7 0.5
v 1.3 2.9 0.5
v 1.3 3.1 0.5
v 1.3 3.2 0.5
v 1.3 5.2 0.5
v 1.3 5.3 0.5
v 1.3 5.5 0.5
v 1.3 5.6 0.5
v 1.4 2.6 0.5
v 1.4 2.7 0.5
v 1.4 3 0.5
v 1.4 3.1 0.5
v 1.4 5.3 0.5
v 1.4 5.4 0.5
v 1.4 5.6 0.5
v 1.4 5.7 0.5
v 1.5 2.5 0.5
v 1.5 2.6 0.5
v 1.5 2.8 0.5
v 1.5 2.9 0.5
v 1.5 3 0.5
v 1.5 5.4 0.5
v 1.5 5.5 0.5
v 1.5 5.7 0.5
v 1.5 5.8 0.5
v 1.6 2.4 0.5
v 1.6 2.5 0.5
v 1.6 2.7 0.5
v 1.6 2.8 0.5
v 1.6 5.5 0.5
v 1.6 5.6 0.5
v 1.6 5.8 0.5
v 1.6 5.9 0.5
v 1.7 2.3 0.5
v 1.7 2.4 0.5
v 1.7 2.6 0.5
v 1.7 2.7 0.5
v 1.7 5.6 0.5
v 1.7 5.7 0.5
v 1.7 5.9 0.5
v 1.7 6 0.5
v 1.8 2.2 0.5
v 1.8 2.3 0.5
v 1.8 2.5 0.5
v 1.8 2.6 0.5
v 1.8 5.7 0.5
v 1.8 5.8 0.5
v 1.8 6 0.5
v 1.8 6.1 0.5
v 1.9 2.1 0.5
v 1.9 2.2 0.5
v 1.9 2.4 0.5
v 1.9 2.5 0.5
v 1.9 5.8 0.5
v 1.9 5.9 0.5
v 1.9 6.1 0.5
v 1.9 6.3 0.5
v 2 2 0.5
v 2 2.1 0.5
v 2 2.3 0.5
v 2 2.4 0.5
v 2 5.9 0.5
v 2 6 0.5
v 2 6.3 0.5
v 2 6.4 0.5
v 2.1 1.9 0.5
v 2.1 2 0.5
v 2.1 2.2 0.5
v 2.1 2.3 0.5
v 2.1 6 0.5
v 2.1 6.1 0.5
v 2.1 6.4 0.5
v 2.1 6.5 0.5
v 2.2 1.8 0.5
v 2.2 1.9 0.5
v 2.2 2.1 0.5
v 2.2 2.2 0.5
v 2.2 6.1 0.5
v 2.2 6.3 0.5
v 2.2 6.5 0.5
v 2.2 6.6 0.5
v 2.3 1.7 0.5
v 2.3 1.8 0.5
v 2.3 2 0.5
v 2.3 2.1 0.5
v 2.3 6.3 0.5
v 2.3 6.4 0.5
v 2.3 6.6 0.5
v 2.3 6.7 0.5
v 2.4 1.6 0.5
v 2.4 1.7 0.5
v 2.4 1.9 0.5
v 2.4 2 0.5
v 2.4 6.4 0.5
v 2.4 6.5 0.5
v 2.4 6.7 0.5
v 2.4 6.8 0.5
v 2.5 1.5 0.5
v 2.5 1.6 0.5
v 2.5 1.8 0.5
v 2.5 1.9 0.5
v 2.5 6.5 0.5
v 2.5 6.6 0.5
v 2.5 6.8 0.5
v 2.5 6.9 0.5
v 2.6 1.4 0.5
v 2.6 1.5 0.5
v 2.6 1.7 0.5
v 2.6 1.8 0.5
v 2.6 6.6 0.5
v 2.6 6.7 0.5
v 2.6 6.9 0.5
v 2.6 7 0.5
v 2.7 1.3 0.5
v 2.7 1.4 0.5
v 2.7 1.6 0.5
v 2.7 1.7 0.5
v 2.7 6.7 0.5
v 2.7 6.8 0.5
v 2.7 7 0.5
v 2.7 7.1 0.5
v 2.8 1.3 0.5
v 2.8 1.4 0.5
v 2.8 1.5 0.5
v 2.8 1.6 0.5
v 2.8 6.8 0.5
v 2.8 6.9 0.5
v 2.8 7.1 0.5
v 2.8 7.2 0.5
v 2.9 1.4 0.5
v 2.9 1.5 0.5
v 2.9 6.9 0.5
v 2.9 7 0.5
v 3 7 0.5
v 3 7.1 0.5
v 3.1 7.1 0.5
v 3.1 7.2 0.5
v 4 0 0.5
v 4 0.3 0.5
v 4 0.9 0.5
v 4 1.1 0.5
v 4 1.9 0.5
v 4 2.1 0.5
v 4 2.9 0.5
v 4 3.1 0.5
v 4 3.9 0.5
v 4 4.1 0.5
v 4 4.9 0.5
v 4 5.1 0.5
v 4 5.9 0.5
v 4 6.1 0.5
v 4 6.9 0.5
v 4 7.1 0.5
v 4 7.9 0.5
v 4 8 0.5
v -4 0 -0.5
v -4 0.3 -0.5
v -4 0.9 -0.5
v -4 1.1 -0.5
v -4 1.9 -0.5
v -4 2.1 -0.5
v -4 2.9 -0.5
v -4 3.1 -0.5
v -4 3.9 -0.5
v -4 4.1 -0.5
v -4 4.9 -0.5
v -4 5.1 -0.5
v -4 5.9 -0.5
v -4 6.1 -0.5
v -4 6.9 -0.5
v -4 7.1 -0.5
v -4 7.9 -0.5
v -4 8 -0.5
v -0.3 0.1 -0.5
v -0.3 0.2 -0.5
v 0.3 0.1 -0.5
v 0.3 0.2 -0.5
v 4 0 -0.5
v 4 0.3 -0.5
v 4 0.9 -0.5
v 4 1.1 -0.5
v 4 1.9 -0.5
v 4 2.1 -0.5
v 4 2.9 -0.5
v 4 3.1 -0.5
v 4 3.9 -0.5
v 4 4.1 -0.5
v 4 4.9 -0.5
v 4 5.1 -0.5
v 4 5.9 -0.5
v 4 6.1 -0.5
v 4 6.9 -0.5
v 4 7.1 -0.5
v 4 7.9 -0.5
v 4 8 -0.5
v -4 0 0.5
v 4 0 0.5
v -3.9 0 0.4
v 3.9 0 0.4
v -3.9 0 -0.4
v 3.9 0 -0.4
v -4 0 -0.5
v 4 0 -0.5
v -4 8 0.5
v 4 8 0.5
v -3.9 8 0.4
v 3.9 8 0.4
v -3.9 8 -0.4
v 3.9 8 -0.4
v -4 8 -0.5
v 4 8 -0.5

# faces
f 3/3/1 2/3/1 1/3/1
f 4/3/1 2/3/1 3/3/1
f 5/2/1 4/2/1 3/2/1
f 6/2/1 4/2/1 5/2/1
f 7/3/1 6/3/1 5/3/1
f 8/3/1 6/3/1 7/3/1
f 9/2/1 8/2/1 7/2/1
f 10/2/1 8/2/1 9/2/1
f 11/3/1 10/3/1 9/3/1
f 12/3/1 10/3/1 11/3/1
f 13/2/1 12/2/1 11/2/1
f 14/2/1 12/2/1 13/2/1
f 15/3/1 14/3/1 13/3/1
f 16/3/1 14/3/1 15/3/1
f 17/2/1 16/2/1 15/2/1
f 18/2/1 16/2/1 17/2/1
f 19/3/1 18/3/1 17/3/1
f 20/3/1 18/3/1 19/3/1
f 21/2/1 20/2/1 19/2/1
f 22/2/1 20/2/1 21/2/1
f 23/3/1 22/3/1 21/3/1
f 24/3/1 22/3/1 23/3/1
f 25/2/1 24/2/1 23/2/1
f 26/2/1 24/2/1 25/2/1
f 27/3/1 26/3/1 25/3/1
f 28/3/1 26/3/1 27/3/1
f 29/2/1 28/2/1 27/2/1
f 30/2/1 28/2/1 29/2/1
f 31/3/1 30/3/1 29/3/1
f 32/3/1 30/3/1 31/3/1
f 33/2/1 32/2/1 31/2/1
f 34/2/1 32/2/1 33/2/1
f 35/3/1 34/3/1 33/3/1
f 36/3/1 34/3/1 35/3/1
f 37/3/2 38/3/2 39/3/2
f 39/3/2 38/3/2 40/3/2
f 39/2/2 40/2/2 41/2/2
f 41/2/2 40/2/2 42/2/2
f 41/3/2 42/3/2 43/3/2
f 43/3/2 42/3/2 44/3/2
f 43/2/2 44/2/2 45/2/2
f 45/2/2 44/2/2 46/2/2
f 45/3/2 46/3/2 47/3/2
f 47/3/2 46/3/2 48/3/2
f 47/2/2 48/2/2 49/2/2
f 49/2/2 48/2/2 50/2/2
f 49/3/2 50/3/2 51/3/2
f 51/3/2 50/3/2 52/3/2
f 51/2/2 52/2/2 53/2/2
f 53/2/2 52/2/2 54/2/2
f 53/3/2 54/3/2 55/3/2
f 55/3/2 54/3/2 56/3/2
f 55/2/2 56/2/2 57/2/2
f 57/2/2 56/2/2 58/2/2
f 57/3/2 58/3/2 59/3/2
f 59/3/2 58/3/2 60/3/2
f 59/2/2 60/2/2 61/2/2
f 61/2/2 60/2/2 62/2/2
f 61/3/2 62/3/2 63/3/2
f 63/3/2 62/3/2 64/3/2
f 63/2/2 64/2/2 65/2/2
f 65/2/2 64/2/2 66/2/2
f 65/3/2 66/3/2 67/3/2
f 67/3/2 66/3/2 68/3/2
f 67/2/2 68/2/2 69/2/2
f 69/2/2 68/2/2 70/2/2
f 69/3/2 70/3/2 71/3/2
f 71/3/2 70/3/2 72/3/2
f 91/3/3 88/3/3 87/3/3
f 91/2/3 89/2/3 88/2/3
f 92/2/3 89/2/3 91/2/3
f 93/3/3 91/3/3 87/3/3
f 94/1/3 92/1/3 91/1/3
f 94/3/3 91/3/3 93/3/3
f 95/2/3 77/2/3 76/2/3
f 96/2/3 77/2/3 95/2/3
f 97/2/3 87/2/3 86/2/3
f 97/3/3 93/3/3 87/3/3
f 98/1/3 94/1/3 93/1/3
f 98/3/3 93/3/3 97/3/3
f 99/2/3 77/2/3 96/2/3
f 99/1/3 96/1/3 95/1/3
f 100/2/3 77/2/3 99/2/3
f 101/2/3 97/2/3 86/2/3
f 102/1/3 98/1/3 97/1/3
f 102/2/3 97/2/3 101/2/3
f 103/1/3 92/1/3 94/1/3
f 103/1/3 98/1/3 102/1/3
f 103/1/3 94/1/3 98/1/3
f 104/2/3 89/2/3 92/2/3
f 104/1/3 92/1/3 103/1/3
f 105/1/3 100/1/3 99/1/3
f 105/2/3 95/2/3 76/2/3
f 105/1/3 99/1/3 95/1/3
f 106/1/3 100/1/3 105/1/3
f 107/2/3 77/2/3 100/2/3
f 107/1/3 100/1/3 106/1/3
f 108/2/3 77/2/3 107/2/3
f 109/2/3 101/2/3 86/2/3
f 110/1/3 102/1/3 101/1/3
f 110/2/3 101/2/3 109/2/3
f 110/1/3 103/1/3 102/1/3
f 111/1/3 103/1/3 110/1/3
f 112/2/3 104/2/3 103/2/3
f 112/1/3 103/1/3 111/1/3
f 113/1/3 108/1/3 107/1/3
f 113/2/3 106/2/3 105/2/3
f 113/1/3 107/1/3 106/1/3
f 114/1/3 108/1/3 113/1/3
f 115/2/3 77/2/3 108/2/3
f 115/1/3 108/1/3 114/1/3
f 116/2/3 77/2/3 115/2/3
f 117/2/3 109/2/3 86/2/3
f 118/1/3 111/1/3 110/1/3
f 118/2/3 109/2/3 117/2/3
f 118/1/3 110/1/3 109/1/3
f 119/1/3 111/1/3 118/1/3
f 120/3/3 112/3/3 111/3/3
f 120/1/3 111/1/3 119/1/3
f 121/2/3 114/2/3 113/2/3
f 121/1/3 116/1/3 115/1/3
f 121/1/3 115/1/3 114/1/3
f 122/1/3 116/1/3 121/1/3
f 123/2/3 77/2/3 116/2/3
f 123/1/3 116/1/3 122/1/3
f 124/2/3 77/2/3 123/2/3
f 125/2/3 117/2/3 86/2/3
f 126/1/3 119/1/3 118/1/3
f 126/2/3 117/2/3 125/2/3
f 126/1/3 118/1/3 117/1/3
f 127/1/3 119/1/3 126/1/3
f 128/3/3 120/3/3 119/3/3
f 128/1/3 119/1/3 127/1/3
f 129/2/3 122/2/3 121/2/3
f 129/1/3 124/1/3 123/1/3
f 129/1/3 123/1/3 122/1/3
f 130/1/3 124/1/3 129/1/3
f 131/2/3 77/2/3 124/2/3
f 131/1/3 124/1/3 130/1/3
f 132/3/3 78/3/3 77/3/3
f 132/2/3 77/2/3 131/2/3
f 133/2/3 125/2/3 86/2/3
f 134/1/3 127/1/3 126/1/3
f 134/2/3 125/2/3 133/2/3
f 134/1/3 126/1/3 125/1/3
f 135/1/3 127/1/3 134/1/3
f 136/2/3 128/2/3 127/2/3
f 136/1/3 127/1/3 135/1/3
f 137/1/3 131/1/3 130/1/3
f 137/2/3 130/2/3 129/2/3
f 137/1/3 132/1/3 131/1/3
f 138/1/3 132/1/3 137/1/3
f 139/3/3 78/3/3 132/3/3
f 139/1/3 132/1/3 138/1/3
f 140/3/3 78/3/3 139/3/3
f 141/2/3 133/2/3 86/2/3
f 142/1/3 135/1/3 134/1/3
f 142/2/3 133/2/3 141/2/3
f 142/1/3 134/1/3 133/1/3
f 143/1/3 135/1/3 142/1/3
f 144/2/3 136/2/3 135/2/3
f 144/1/3 135/1/3 143/1/3
f 145/2/3 138/2/3 137/2/3
f 145/1/3 140/1/3 139/1/3
f 145/1/3 139/1/3 138/1/3
f 146/1/3 140/1/3 145/1/3
f 147/3/3 78/3/3 140/3/3
f 147/1/3 140/1/3 146/1/3
f 148/2/3 79/2/3 78/2/3
f 148/3/3 78/3/3 147/3/3
f 149/2/3 141/2/3 86/2/3
f 150/1/3 143/1/3 142/1/3
f 150/2/3 141/2/3 149/2/3
f 150/1/3 142/1/3 141/1/3
f 151/1/3 143/1/3 150/1/3
f 152/2/3 144/2/3 143/2/3
f 152/1/3 143/1/3 151/1/3
f 153/1/3 147/1/3 146/1/3
f 153/2/3 146/2/3 145/2/3
f 153/1/3 148/1/3 147/1/3
f 154/1/3 148/1/3 153/1/3
f 155/2/3 79/2/3 148/2/3
f 155/1/3 148/1/3 154/1/3
f 156/2/3 79/2/3 155/2/3
f 157/3/3 86/3/3 85/3/3
f 157/2/3 149/2/3 86/2/3
f 158/1/3 151/1/3 150/1/3
f 158/2/3 149/2/3 157/2/3
f 158/1/3 150/1/3 149/1/3
f 159/1/3 151/1/3 158/1/3
f 160/2/3 152/2/3 151/2/3
f 160/1/3 151/1/3 159/1/3
f 161/1/3 156/1/3 155/1/3
f 161/2/3 154/2/3 153/2/3
f 161/1/3 155/1/3 154/1/3
f 162/1/3 156/1/3 161/1/3
f 163/2/3 79/2/3 156/2/3
f 163/1/3 156/1/3 162/1/3
f 164/2/3 79/2/3 163/2/3
f 165/3/3 157/3/3 85/3/3
f 166/1/3 159/1/3 158/1/3
f 166/3/3 157/3/3 165/3/3
f 166/1/3 158/1/3 157/1/3
f 167/1/3 159/1/3 166/1/3
f 168/2/3 160/2/3 159/2/3
f 168/1/3 159/1/3 167/1/3
f 169/3/3 162/3/3 161/3/3
f 169/1/3 164/1/3 163/1/3
f 169/1/3 163/1/3 162/1/3
f 170/1/3 164/1/3 169/1/3
f 171/2/3 79/2/3 164/2/3
f 171/1/3 164/1/3 170/1/3
f 172/2/3 79/2/3 171/2/3
f 173/2/3 85/2/3 84/2/3
f 173/3/3 165/3/3 85/3/3
f 174/1/3 167/1/3 166/1/3
f 174/3/3 165/3/3 173/3/3
f 174/1/3 166/1/3 165/1/3
f 175/1/3 167/1/3 174/1/3
f 176/2/3 168/2/3 167/2/3
f 176/1/3 167/1/3 175/1/3
f 177/1/3 172/1/3 171/1/3
f 177/3/3 170/3/3 169/3/3
f 177/1/3 171/1/3 170/1/3
f 178/1/3 172/1/3 177/1/3
f 179/2/3 79/2/3 172/2/3
f 179/1/3 172/1/3 178/1/3
f 180/2/3 79/2/3 179/2/3
f 181/2/3 173/2/3 84/2/3
f 182/1/3 175/1/3 174/1/3
f 182/2/3 173/2/3 181/2/3
f 182/1/3 174/1/3 173/1/3
f 183/1/3 175/1/3 182/1/3
f 184/2/3 176/2/3 175/2/3
f 184/1/3 175/1/3 183/1/3
f 185/2/3 178/2/3 177/2/3
f 185/1/3 180/1/3 179/1/3
f 185/1/3 179/1/3 178/1/3
f 186/1/3 180/1/3 185/1/3
f 187/2/3 79/2/3 180/2/3
f 187/1/3 180/1/3 186/1/3
f 188/2/3 79/2/3 187/2/3
f 189/2/3 181/2/3 84/2/3
f 190/1/3 183/1/3 182/1/3
f 190/2/3 181/2/3 189/2/3
f 190/1/3 182/1/3 181/1/3
f 191/1/3 183/1/3 190/1/3
f 192/2/3 184/2/3 183/2/3
f 192/1/3 183/1/3 191/1/3
f 193/2/3 186/2/3 185/2/3
f 193/1/3 188/1/3 187/1/3
f 193/1/3 187/1/3 186/1/3
f 194/1/3 188/1/3 193/1/3
f 195/2/3 79/2/3 188/2/3
f 195/1/3 188/1/3 194/1/3
f 196/2/3 79/2/3 195/2/3
f 197/2/3 189/2/3 84/2/3
f 198/1/3 191/1/3 190/1/3
f 198/2/3 189/2/3 197/2/3
f 198/1/3 190/1/3 189/1/3
f 199/1/3 191/1/3 198/1/3
f 200/3/3 192/3/3 191/3/3
f 200/1/3 191/1/3 199/1/3
f 201/2/3 194/2/3 193/2/3
f 201/1/3 196/1/3 195/1/3
f 201/1/3 195/1/3 194/1/3
f 202/1/3 196/1/3 201/1/3
f 203/2/3 79/2/3 196/2/3
f 203/1/3 196/1/3 202/1/3
f 204/3/3 80/3/3 79/3/3
f 204/2/3 79/2/3 203/2/3
f 205/2/3 197/2/3 84/2/3
f 206/1/3 199/1/3 198/1/3
f 206/2/3 197/2/3 205/2/3
f 206/1/3 198/1/3 197/1/3
f 207/1/3 199/1/3 206/1/3
f 208/3/3 200/3/3 199/3/3
f 208/1/3 199/1/3 207/1/3
f 209/1/3 203/1/3 202/1/3
f 209/2/3 202/2/3 201/2/3
f 209/1/3 204/1/3 203/1/3
f 210/1/3 204/1/3 209/1/3
f 211/3/3 80/3/3 204/3/3
f 211/1/3 204/1/3 210/1/3
f 212/3/3 80/3/3 211/3/3
f 213/2/3 205/2/3 84/2/3
f 214/1/3 207/1/3 206/1/3
f 214/2/3 205/2/3 213/2/3
f 214/1/3 206/1/3 205/1/3
f 215/1/3 207/1/3 214/1/3
f 216/2/3 208/2/3 207/2/3
f 216/1/3 207/1/3 215/1/3
f 217/2/3 210/2/3 209/2/3
f 217/1/3 212/1/3 211/1/3
f 217/1/3 211/1/3 210/1/3
f 218/1/3 212/1/3 217/1/3
f 219/3/3 80/3/3 212/3/3
f 219/1/3 212/1/3 218/1/3
f 220/2/3 81/2/3 80/2/3
f 220/3/3 80/3/3 219/3/3
f 221/2/3 213/2/3 84/2/3
f 222/1/3 215/1/3 214/1/3
f 222/2/3 213/2/3 221/2/3
f 222/1/3 214/1/3 213/1/3
f 223/1/3 215/1/3 222/1/3
f 224/2/3 216/2/3 215/2/3
f 224/1/3 215/1/3 223/1/3
f 225/1/3 219/1/3 218/1/3
f 225/2/3 218/2/3 217/2/3
f 225/1/3 220/1/3 219/1/3
f 226/1/3 220/1/3 225/1/3
f 227/2/3 81/2/3 220/2/3
f 227/1/3 220/1/3 226/1/3
f 228/2/3 81/2/3 227/2/3
f 229/3/3 84/3/3 83/3/3
f 229/2/3 221/2/3 84/2/3
f 230/1/3 223/1/3 222/1/3
f 230/2/3 221/2/3 229/2/3
f 230/1/3 222/1/3 221/1/3
f 231/1/3 223/1/3 230/1/3
f 232/2/3 224/2/3 223/2/3
f 232/1/3 223/1/3 231/1/3
f 233/1/3 228/1/3 227/1/3
f 233/2/3 226/2/3 225/2/3
f 233/1/3 227/1/3 226/1/3
f 234/1/3 228/1/3 233/1/3
f 235/2/3 81/2/3 228/2/3
f 235/1/3 228/1/3 234/1/3
f 236/2/3 81/2/3 235/2/3
f 237/3/3 229/3/3 83/3/3
f 238/1/3 231/1/3 230/1/3
f 238/3/3 229/3/3 237/3/3
f 238/1/3 230/1/3 229/1/3
f 239/1/3 231/1/3 238/1/3
f 240/2/3 232/2/3 231/2/3
f 240/1/3 231/1/3 239/1/3
f 241/3/3 234/3/3 233/3/3
f 241/1/3 236/1/3 235/1/3
f 241/1/3 235/1/3 234/1/3
f 242/1/3 236/1/3 241/1/3
f 243/2/3 81/2/3 236/2/3
f 243/1/3 236/1/3 242/1/3
f 244/2/3 81/2/3 243/2/3
f 245/2/3 83/2/3 82/2/3
f 245/3/3 237/3/3 83/3/3
f 246/1/3 239/1/3 238/1/3
f 246/3/3 237/3/3 245/3/3
f 246/1/3 238/1/3 237/1/3
f 247/1/3 239/1/3 246/1/3
f 248/2/3 240/2/3 239/2/3
f 248/1/3 239/1/3 247/1/3
f 249/1/3 244/1/3 243/1/3
f 249/3/3 242/3/3 241/3/3
f 249/1/3 243/1/3 242/1/3
f 250/1/3 244/1/3 249/1/3
f 251/2/3 81/2/3 244/2/3
f 251/1/3 244/1/3 250/1/3
f 252/2/3 81/2/3 251/2/3
f 253/2/3 245/2/3 82/2/3
f 254/1/3 247/1/3 246/1/3
f 254/2/3 245/2/3 253/2/3
f 254/1/3 246/1/3 245/1/3
f 255/1/3 247/1/3 254/1/3
f 256/2/3 248/2/3 247/2/3
f 256/1/3 247/1/3 255/1/3
f 257/2/3 250/2/3 249/2/3
f 257/1/3 252/1/3 251/1/3
f 257/1/3 251/1/3 250/1/3
f 258/1/3 252/1/3 257/1/3
f 259/2/3 81/2/3 252/2/3
f 259/1/3 252/1/3 258/1/3
f 260/2/3 81/2/3 259/2/3
f 261/2/3 253/2/3 82/2/3
f 262/1/3 255/1/3 254/1/3
f 262/2/3 253/2/3 261/2/3
f 262/1/3 254/1/3 253/1/3
f 263/1/3 255/1/3 262/1/3
f 264/2/3 256/2/3 255/2/3
f 264/1/3 255/1/3 263/1/3
f 265/2/3 258/2/3 257/2/3
f 265/1/3 260/1/3 259/1/3
f 265/1/3 259/1/3 258/1/3
f 266/1/3 260/1/3 265/1/3
f 267/2/3 81/2/3 260/2/3
f 267/1/3 260/1/3 266/1/3
f 268/2/3 81/2/3 267/2/3
f 269/2/3 261/2/3 82/2/3
f 270/1/3 263/1/3 262/1/3
f 270/2/3 261/2/3 269/2/3
f 270/1/3 262/1/3 261/1/3
f 271/1/3 263/1/3 270/1/3
f 272/3/3 264/3/3 263/3/3
f 272/1/3 263/1/3 271/1/3
f 273/2/3 266/2/3 265/2/3
f 273/1/3 268/1/3 267/1/3
f 273/1/3 267/1/3 266/1/3
f 274/1/3 268/1/3 273/1/3
f 275/2/3 81/2/3 268/2/3
f 275/1/3 268/1/3 274/1/3
f 276/2/3 81/2/3 275/2/3
f 277/2/3 269/2/3 82/2/3
f 278/1/3 271/1/3 270/1/3
f 278/2/3 269/2/3 277/2/3
f 278/1/3 270/1/3 269/1/3
f 279/1/3 271/1/3 278/1/3
f 280/3/3 272/3/3 271/3/3
f 280/1/3 271/1/3 279/1/3
f 281/3/3 74/3/3 73/3/3
f 282/3/3 74/3/3 281/3/3
f 283/2/3 274/2/3 273/2/3
f 283/1/3 276/1/3 275/1/3
f 283/1/3 275/1/3 274/1/3
f 284/1/3 276/1/3 283/1/3
f 285/2/3 81/2/3 276/2/3
f 285/1/3 276/1/3 284/1/3
f 286/3/3 82/3/3 81/3/3
f 286/2/3 81/2/3 285/2/3
f 287/2/3 277/2/3 82/2/3
f 288/1/3 279/1/3 278/1/3
f 288/2/3 277/2/3 287/2/3
f 288/1/3 278/1/3 277/1/3
f 289/1/3 279/1/3 288/1/3
f 290/2/3 280/2/3 279/2/3
f 290/1/3 279/1/3 289/1/3
f 291/1/3 285/1/3 284/1/3
f 291/2/3 284/2/3 283/2/3
f 291/1/3 286/1/3 285/1/3
f 292/1/3 286/1/3 291/1/3
f 293/3/3 82/3/3 286/3/3
f 293/1/3 286/1/3 292/1/3
f 294/3/3 82/3/3 293/3/3
f 295/2/3 287/2/3 82/2/3
f 296/1/3 288/1/3 287/1/3
f 296/2/3 287/2/3 295/2/3
f 296/1/3 289/1/3 288/1/3
f 297/1/3 289/1/3 296/1/3
f 298/2/3 290/2/3 289/2/3
f 298/1/3 289/1/3 297/1/3
f 299/2/3 292/2/3 291/2/3
f 299/1/3 294/1/3 293/1/3
f 299/1/3 293/1/3 292/1/3
f 300/1/3 294/1/3 299/1/3
f 301/3/3 82/3/3 294/3/3
f 301/1/3 294/1/3 300/1/3
f 302/2/3 295/2/3 82/2/3
f 302/3/3 82/3/3 301/3/3
f 303/2/3 295/2/3 302/2/3
f 304/1/3 297/1/3 296/1/3
f 304/2/3 295/2/3 303/2/3
f 304/1/3 296/1/3 295/1/3
f 305/1/3 297/1/3 304/1/3
f 306/2/3 298/2/3 297/2/3
f 306/1/3 297/1/3 305/1/3
f 307/2/3 300/2/3 299/2/3
f 307/1/3 301/1/3 300/1/3
f 307/1/3 302/1/3 301/1/3
f 308/1/3 302/1/3 307/1/3
f 309/2/3 303/2/3 302/2/3
f 309/1/3 302/1/3 308/1/3
f 310/1/3 305/1/3 304/1/3
f 310/2/3 303/2/3 309/2/3
f 310/1/3 304/1/3 303/1/3
f 311/1/3 305/1/3 310/1/3
f 312/2/3 306/2/3 305/2/3
f 312/1/3 305/1/3 311/1/3
f 313/2/3 308/2/3 307/2/3
f 313/1/3 311/1/3 310/1/3
f 313/1/3 309/1/3 308/1/3
f 313/1/3 310/1/3 309/1/3
f 314/1/3 311/1/3 313/1/3
f 315/2/3 313/2/3 307/2/3
f 315/3/3 314/3/3 313/3/3
f 316/1/3 311/1/3 314/1/3
f 316/3/3 314/3/3 315/3/3
f 317/2/3 312/2/3 311/2/3
f 317/1/3 311/1/3 316/1/3
f 318/2/3 306/2/3 312/2/3
f 318/2/3 312/2/3 317/2/3
f 319/4/3 282/4/3 281/4/3
f 319/3/3 281/3/3 73/3/3
f 320/3/3 74/3/3 282/3/3
f 320/4/3 282/4/3 319/4/3
f 321/2/3 307/2/3 299/2/3
f 321/2/3 315/2/3 307/2/3
f 322/1/3 317/1/3 316/1/3
f 322/2/3 315/2/3 321/2/3
f 322/1/3 318/1/3 317/1/3
f 322/1/3 316/1/3 315/1/3
f 323/1/3 318/1/3 322/1/3
f 324/1/3 318/1/3 323/1/3
f 325/2/3 306/2/3 318/2/3
f 325/1/3 318/1/3 324/1/3
f 326/2/3 298/2/3 306/2/3
f 326/2/3 306/2/3 325/2/3
f 327/2/3 321/2/3 299/2/3
f 327/2/3 299/2/3 291/2/3
f 328/1/3 322/1/3 321/1/3
f 328/2/3 321/2/3 327/2/3
f 328/1/3 323/1/3 322/1/3
f 329/1/3 323/1/3 328/1/3
f 330/2/3 324/2/3 323/2/3
f 330/1/3 323/1/3 329/1/3
f 331/1/3 325/1/3 324/1/3
f 331/2/3 324/2/3 330/2/3
f 331/1/3 326/1/3 325/1/3
f 332/1/3 326/1/3 331/1/3
f 333/2/3 298/2/3 326/2/3
f 333/1/3 326/1/3 332/1/3
f 334/2/3 290/2/3 298/2/3
f 334/2/3 298/2/3 333/2/3
f 335/2/3 291/2/3 283/2/3
f 335/2/3 327/2/3 291/2/3
f 336/1/3 329/1/3 328/1/3
f 336/2/3 327/2/3 335/2/3
f 336/1/3 328/1/3 327/1/3
f 337/1/3 329/1/3 336/1/3
f 338/3/3 330/3/3 329/3/3
f 338/1/3 329/1/3 337/1/3
f 339/2/3 332/2/3 331/2/3
f 339/1/3 333/1/3 332/1/3
f 339/2/3 331/2/3 330/2/3
f 339/1/3 334/1/3 333/1/3
f 340/1/3 334/1/3 339/1/3
f 341/2/3 290/2/3 334/2/3
f 341/1/3 334/1/3 340/1/3
f 342/2/3 280/2/3 290/2/3
f 342/2/3 290/2/3 341/2/3
f 343/2/3 335/2/3 283/2/3
f 343/2/3 283/2/3 273/2/3
f 344/1/3 337/1/3 336/1/3
f 344/2/3 335/2/3 343/2/3
f 344/1/3 336/1/3 335/1/3
f 345/1/3 337/1/3 344/1/3
f 346/3/3 338/3/3 337/3/3
f 346/1/3 337/1/3 345/1/3
f 347/1/3 341/1/3 340/1/3
f 347/1/3 342/1/3 341/1/3
f 347/2/3 340/2/3 339/2/3
f 348/1/3 342/1/3 347/1/3
f 349/2/3 280/2/3 342/2/3
f 349/1/3 342/1/3 348/1/3
f 350/3/3 272/3/3 280/3/3
f 350/2/3 280/2/3 349/2/3
f 351/2/3 343/2/3 273/2/3
f 351/2/3 273/2/3 265/2/3
f 352/1/3 345/1/3 344/1/3
f 352/2/3 343/2/3 351/2/3
f 352/1/3 344/1/3 343/1/3
f 353/1/3 345/1/3 352/1/3
f 354/2/3 346/2/3 345/2/3
f 354/1/3 345/1/3 353/1/3
f 355/1/3 349/1/3 348/1/3
f 355/2/3 348/2/3 347/2/3
f 355/1/3 350/1/3 349/1/3
f 356/1/3 350/1/3 355/1/3
f 357/3/3 272/3/3 350/3/3
f 357/1/3 350/1/3 356/1/3
f 358/3/3 264/3/3 272/3/3
f 358/3/3 272/3/3 357/3/3
f 359/2/3 351/2/3 265/2/3
f 359/2/3 265/2/3 257/2/3
f 360/1/3 352/1/3 351/1/3
f 360/2/3 351/2/3 359/2/3
f 360/1/3 353/1/3 352/1/3
f 361/1/3 353/1/3 360/1/3
f 362/2/3 354/2/3 353/2/3
f 362/1/3 353/1/3 361/1/3
f 363/1/3 357/1/3 356/1/3
f 363/2/3 356/2/3 355/2/3
f 363/1/3 358/1/3 357/1/3
f 364/1/3 358/1/3 363/1/3
f 365/3/3 264/3/3 358/3/3
f 365/1/3 358/1/3 364/1/3
f 366/2/3 256/2/3 264/2/3
f 366/3/3 264/3/3 365/3/3
f 367/2/3 257/2/3 249/2/3
f 367/2/3 359/2/3 257/2/3
f 368/1/3 360/1/3 359/1/3
f 368/2/3 359/2/3 367/2/3
f 368/1/3 361/1/3 360/1/3
f 369/1/3 361/1/3 368/1/3
f 370/2/3 362/2/3 361/2/3
f 370/1/3 361/1/3 369/1/3
f 371/1/3 365/1/3 364/1/3
f 371/2/3 364/2/3 363/2/3
f 371/1/3 366/1/3 365/1/3
f 372/1/3 366/1/3 371/1/3
f 373/2/3 256/2/3 366/2/3
f 373/1/3 366/1/3 372/1/3
f 374/2/3 248/2/3 256/2/3
f 374/2/3 256/2/3 373/2/3
f 375/3/3 249/3/3 241/3/3
f 375/2/3 367/2/3 249/2/3
f 376/1/3 369/1/3 368/1/3
f 376/2/3 367/2/3 375/2/3
f 376/1/3 368/1/3 367/1/3
f 377/1/3 369/1/3 376/1/3
f 378/2/3 370/2/3 369/2/3
f 378/1/3 369/1/3 377/1/3
f 379/1/3 373/1/3 372/1/3
f 379/2/3 372/2/3 371/2/3
f 379/1/3 374/1/3 373/1/3
f 380/1/3 374/1/3 379/1/3
f 381/2/3 248/2/3 374/2/3
f 381/1/3 374/1/3 380/1/3
f 382/2/3 240/2/3 248/2/3
f 382/2/3 248/2/3 381/2/3
f 383/3/3 241/3/3 233/3/3
f 383/3/3 375/3/3 241/3/3
f 384/1/3 377/1/3 376/1/3
f 384/3/3 375/3/3 383/3/3
f 384/1/3 376/1/3 375/1/3
f 385/1/3 377/1/3 384/1/3
f 386/2/3 378/2/3 377/2/3
f 386/1/3 377/1/3 385/1/3
f 387/1/3 381/1/3 380/1/3
f 387/3/3 380/3/3 379/3/3
f 387/1/3 382/1/3 381/1/3
f 388/1/3 382/1/3 387/1/3
f 389/2/3 240/2/3 382/2/3
f 389/1/3 382/1/3 388/1/3
f 390/2/3 232/2/3 240/2/3
f 390/2/3 240/2/3 389/2/3
f 391/2/3 233/2/3 225/2/3
f 391/3/3 383/3/3 233/3/3
f 392/1/3 385/1/3 384/1/3
f 392/3/3 383/3/3 391/3/3
f 392/1/3 384/1/3 383/1/3
f 393/1/3 385/1/3 392/1/3
f 394/2/3 386/2/3 385/2/3
f 394/1/3 385/1/3 393/1/3
f 395/1/3 389/1/3 388/1/3
f 395/3/3 388/3/3 387/3/3
f 395/1/3 390/1/3 389/1/3
f 396/1/3 390/1/3 395/1/3
f 397/2/3 232/2/3 390/2/3
f 397/1/3 390/1/3 396/1/3
f 398/2/3 224/2/3 232/2/3
f 398/2/3 232/2/3 397/2/3
f 399/2/3 217/2/3 209/2/3
f 399/2/3 225/2/3 217/2/3
f 399/2/3 391/2/3 225/2/3
f 400/1/3 393/1/3 392/1/3
f 400/2/3 391/2/3 399/2/3
f 400/1/3 392/1/3 391/1/3
f 401/1/3 393/1/3 400/1/3
f 402/2/3 394/2/3 393/2/3
f 402/1/3 393/1/3 401/1/3
f 403/1/3 397/1/3 396/1/3
f 403/1/3 398/1/3 397/1/3
f 403/2/3 396/2/3 395/2/3
f 404/1/3 398/1/3 403/1/3
f 405/2/3 224/2/3 398/2/3
f 405/1/3 398/1/3 404/1/3
f 406/2/3 216/2/3 224/2/3
f 406/2/3 224/2/3 405/2/3
f 407/2/3 209/2/3 201/2/3
f 407/2/3 399/2/3 209/2/3
f 408/1/3 400/1/3 399/1/3
f 408/2/3 399/2/3 407/2/3
f 408/1/3 401/1/3 400/1/3
f 409/1/3 401/1/3 408/1/3
f 410/2/3 402/2/3 401/2/3
f 410/1/3 401/1/3 409/1/3
f 411/1/3 405/1/3 404/1/3
f 411/2/3 404/2/3 403/2/3
f 411/1/3 406/1/3 405/1/3
f 412/1/3 406/1/3 411/1/3
f 413/2/3 216/2/3 406/2/3
f 413/1/3 406/1/3 412/1/3
f 414/2/3 216/2/3 413/2/3
f 415/2/3 201/2/3 193/2/3
f 415/2/3 407/2/3 201/2/3
f 416/1/3 409/1/3 408/1/3
f 416/2/3 407/2/3 415/2/3
f 416/1/3 408/1/3 407/1/3
f 417/1/3 409/1/3 416/1/3
f 418/1/3 409/1/3 417/1/3
f 419/3/3 410/3/3 409/3/3
f 419/1/3 409/1/3 418/1/3
f 420/2/3 412/2/3 411/2/3
f 420/1/3 414/1/3 413/1/3
f 420/1/3 413/1/3 412/1/3
f 421/1/3 414/1/3 420/1/3
f 422/2/3 216/2/3 414/2/3
f 422/1/3 414/1/3 421/1/3
f 423/2/3 208/2/3 216/2/3
f 423/2/3 216/2/3 422/2/3
f 424/2/3 193/2/3 185/2/3
f 424/2/3 415/2/3 193/2/3
f 425/1/3 417/1/3 416/1/3
f 425/2/3 415/2/3 424/2/3
f 425/1/3 416/1/3 415/1/3
f 426/1/3 417/1/3 425/1/3
f 427/2/3 418/2/3 417/2/3
f 427/1/3 417/1/3 426/1/3
f 428/1/3 422/1/3 421/1/3
f 428/2/3 421/2/3 420/2/3
f 428/1/3 423/1/3 422/1/3
f 429/1/3 423/1/3 428/1/3
f 430/2/3 208/2/3 423/2/3
f 430/1/3 423/1/3 429/1/3
f 431/3/3 200/3/3 208/3/3
f 431/2/3 208/2/3 430/2/3
f 432/2/3 185/2/3 177/2/3
f 432/2/3 424/2/3 185/2/3
f 433/1/3 426/1/3 425/1/3
f 433/2/3 424/2/3 432/2/3
f 433/1/3 425/1/3 424/1/3
f 434/1/3 426/1/3 433/1/3
f 435/2/3 427/2/3 426/2/3
f 435/1/3 426/1/3 434/1/3
f 436/1/3 430/1/3 429/1/3
f 436/2/3 429/2/3 428/2/3
f 436/1/3 431/1/3 430/1/3
f 437/1/3 431/1/3 436/1/3
f 438/3/3 200/3/3 431/3/3
f 438/1/3 431/1/3 437/1/3
f 439/3/3 192/3/3 200/3/3
f 439/3/3 200/3/3 438/3/3
f 440/2/3 432/2/3 177/2/3
f 441/1/3 434/1/3 433/1/3
f 441/2/3 432/2/3 440/2/3
f 441/1/3 433/1/3 432/1/3
f 442/1/3 434/1/3 441/1/3
f 443/2/3 435/2/3 434/2/3
f 443/1/3 434/1/3 442/1/3
f 444/1/3 438/1/3 437/1/3
f 444/2/3 437/2/3 436/2/3
f 444/1/3 439/1/3 438/1/3
f 445/1/3 439/1/3 444/1/3
f 446/3/3 192/3/3 439/3/3
f 446/1/3 439/1/3 445/1/3
f 447/2/3 184/2/3 192/2/3
f 447/3/3 192/3/3 446/3/3
f 448/3/3 177/3/3 169/3/3
f 448/2/3 440/2/3 177/2/3
f 449/1/3 442/1/3 441/1/3
f 449/2/3 440/2/3 448/2/3
f 449/1/3 441/1/3 440/1/3
f 450/1/3 442/1/3 449/1/3
f 451/2/3 443/2/3 442/2/3
f 451/1/3 442/1/3 450/1/3
f 452/1/3 446/1/3 445/1/3
f 452/1/3 447/1/3 446/1/3
f 452/2/3 445/2/3 444/2/3
f 453/1/3 447/1/3 452/1/3
f 454/2/3 184/2/3 447/2/3
f 454/1/3 447/1/3 453/1/3
f 455/2/3 176/2/3 184/2/3
f 455/2/3 184/2/3 454/2/3
f 455/2/3 168/2/3 176/2/3
f 456/3/3 169/3/3 161/3/3
f 456/3/3 448/3/3 169/3/3
f 457/1/3 450/1/3 449/1/3
f 457/3/3 448/3/3 456/3/3
f 457/1/3 449/1/3 448/1/3
f 458/1/3 450/1/3 457/1/3
f 459/2/3 451/2/3 450/2/3
f 459/1/3 450/1/3 458/1/3
f 460/1/3 454/1/3 453/1/3
f 460/2/3 453/2/3 452/2/3
f 460/1/3 455/1/3 454/1/3
f 461/1/3 455/1/3 460/1/3
f 462/2/3 168/2/3 455/2/3
f 462/1/3 455/1/3 461/1/3
f 463/2/3 160/2/3 168/2/3
f 463/2/3 168/2/3 462/2/3
f 464/2/3 161/2/3 153/2/3
f 464/3/3 456/3/3 161/3/3
f 465/1/3 457/1/3 456/1/3
f 465/3/3 456/3/3 464/3/3
f 465/1/3 458/1/3 457/1/3
f 466/1/3 458/1/3 465/1/3
f 467/2/3 459/2/3 458/2/3
f 467/1/3 458/1/3 466/1/3
f 468/1/3 462/1/3 461/1/3
f 468/3/3 461/3/3 460/3/3
f 468/1/3 463/1/3 462/1/3
f 469/1/3 463/1/3 468/1/3
f 470/2/3 160/2/3 463/2/3
f 470/1/3 463/1/3 469/1/3
f 471/2/3 152/2/3 160/2/3
f 471/2/3 160/2/3 470/2/3
f 472/2/3 153/2/3 145/2/3
f 472/2/3 464/2/3 153/2/3
f 473/1/3 466/1/3 465/1/3
f 473/2/3 464/2/3 472/2/3
f 473/1/3 465/1/3 464/1/3
f 474/1/3 466/1/3 473/1/3
f 475/2/3 467/2/3 466/2/3
f 475/1/3 466/1/3 474/1/3
f 476/1/3 470/1/3 469/1/3
f 476/3/3 469/3/3 468/3/3
f 476/1/3 471/1/3 470/1/3
f 477/1/3 471/1/3 476/1/3
f 478/2/3 152/2/3 471/2/3
f 478/1/3 471/1/3 477/1/3
f 479/2/3 144/2/3 152/2/3
f 479/2/3 152/2/3 478/2/3
f 480/2/3 145/2/3 137/2/3
f 480/2/3 472/2/3 145/2/3
f 481/1/3 474/1/3 473/1/3
f 481/2/3 472/2/3 480/2/3
f 481/1/3 473/1/3 472/1/3
f 482/1/3 474/1/3 481/1/3
f 483/2/3 475/2/3 474/2/3
f 483/1/3 474/1/3 482/1/3
f 484/1/3 478/1/3 477/1/3
f 484/2/3 477/2/3 476/2/3
f 484/1/3 479/1/3 478/1/3
f 485/1/3 479/1/3 484/1/3
f 486/2/3 144/2/3 479/2/3
f 486/1/3 479/1/3 485/1/3
f 487/2/3 136/2/3 144/2/3
f 487/2/3 144/2/3 486/2/3
f 488/2/3 137/2/3 129/2/3
f 488/2/3 480/2/3 137/2/3
f 489/1/3 482/1/3 481/1/3
f 489/2/3 480/2/3 488/2/3
f 489/1/3 481/1/3 480/1/3
f 490/1/3 482/1/3 489/1/3
f 491/3/3 483/3/3 482/3/3
f 491/1/3 482/1/3 490/1/3
f 492/1/3 486/1/3 485/1/3
f 492/2/3 485/2/3 484/2/3
f 492/1/3 487/1/3 486/1/3
f 493/1/3 487/1/3 492/1/3
f 494/2/3 136/2/3 487/2/3
f 494/1/3 487/1/3 493/1/3
f 495/2/3 128/2/3 136/2/3
f 495/2/3 136/2/3 494/2/3
f 496/2/3 129/2/3 121/2/3
f 496/2/3 488/2/3 129/2/3
f 497/1/3 490/1/3 489/1/3
f 497/2/3 488/2/3 496/2/3
f 497/1/3 489/1/3 488/1/3
f 498/1/3 490/1/3 497/1/3
f 499/3/3 491/3/3 490/3/3
f 499/1/3 490/1/3 498/1/3
f 500/1/3 494/1/3 493/1/3
f 500/2/3 493/2/3 492/2/3
f 500/1/3 495/1/3 494/1/3
f 501/1/3 495/1/3 500/1/3
f 502/2/3 128/2/3 495/2/3
f 502/1/3 495/1/3 501/1/3
f 503/3/3 120/3/3 128/3/3
f 503/2/3 128/2/3 502/2/3
f 504/2/3 121/2/3 113/2/3
f 504/2/3 496/2/3 121/2/3
f 505/1/3 498/1/3 497/1/3
f 505/2/3 496/2/3 504/2/3
f 505/1/3 497/1/3 496/1/3
f 506/1/3 498/1/3 505/1/3
f 507/2/3 499/2/3 498/2/3
f 507/1/3 498/1/3 506/1/3
f 508/1/3 502/1/3 501/1/3
f 508/2/3 501/2/3 500/2/3
f 508/1/3 503/1/3 502/1/3
f 509/1/3 503/1/3 508/1/3
f 510/3/3 120/3/3 503/3/3
f 510/1/3 503/1/3 509/1/3
f 511/3/3 112/3/3 120/3/3
f 511/3/3 120/3/3 510/3/3
f 512/2/3 113/2/3 105/2/3
f 512/2/3 504/2/3 113/2/3
f 513/1/3 506/1/3 505/1/3
f 513/2/3 504/2/3 512/2/3
f 513/1/3 505/1/3 504/1/3
f 514/1/3 506/1/3 513/1/3
f 515/2/3 507/2/3 506/2/3
f 515/1/3 506/1/3 514/1/3
f 516/1/3 510/1/3 509/1/3
f 516/2/3 509/2/3 508/2/3
f 516/1/3 511/1/3 510/1/3
f 517/1/3 511/1/3 516/1/3
f 518/3/3 112/3/3 511/3/3
f 518/1/3 511/1/3 517/1/3
f 519/2/3 104/2/3 112/2/3
f 519/3/3 112/3/3 518/3/3
f 520/1/3 514/1/3 513/1/3
f 520/2/3 512/2/3 105/2/3
f 520/1/3 513/1/3 512/1/3
f 521/1/3 514/1/3 520/1/3
f 522/1/3 514/1/3 521/1/3
f 523/2/3 515/2/3 514/2/3
f 523/1/3 514/1/3 522/1/3
f 524/1/3 518/1/3 517/1/3
f 524/2/3 517/2/3 516/2/3
f 524/1/3 519/1/3 518/1/3
f 525/1/3 519/1/3 524/1/3
f 526/2/3 104/2/3 519/2/3
f 526/1/3 519/1/3 525/1/3
f 527/2/3 89/2/3 104/2/3
f 527/2/3 104/2/3 526/2/3
f 528/1/3 522/1/3 521/1/3
f 528/2/3 521/2/3 520/2/3
f 529/2/3 523/2/3 522/2/3
f 529/1/3 522/1/3 528/1/3
f 530/1/3 526/1/3 525/1/3
f 530/2/3 525/2/3 524/2/3
f 530/1/3 527/1/3 526/1/3
f 531/1/3 527/1/3 530/1/3
f 532/3/3 531/3/3 530/3/3
f 532/1/3 527/1/3 531/1/3
f 533/1/3 527/1/3 532/1/3
f 534/3/3 533/3/3 532/3/3
f 534/1/3 527/1/3 533/1/3
f 535/2/3 89/2/3 527/2/3
f 535/1/3 527/1/3 534/1/3
f 536/3/3 319/3/3 73/3/3
f 536/3/3 320/3/3 319/3/3
f 537/2/3 75/2/3 74/2/3
f 537/3/3 320/3/3 536/3/3
f 537/3/3 74/3/3 320/3/3
f 538/3/3 76/3/3 75/3/3
f 538/2/3 75/2/3 537/2/3
f 539/2/3 105/2/3 76/2/3
f 539/3/3 76/3/3 538/3/3
f 539/2/3 528/2/3 520/2/3
f 539/2/3 529/2/3 528/2/3
f 539/2/3 520/2/3 105/2/3
f 540/2/3 499/2/3 507/2/3
f 540/2/3 529/2/3 539/2/3
f 540/3/3 491/3/3 499/3/3
f 540/2/3 523/2/3 529/2/3
f 540/2/3 515/2/3 523/2/3
f 540/2/3 507/2/3 515/2/3
f 541/2/3 475/2/3 483/2/3
f 541/3/3 491/3/3 540/3/3
f 541/3/3 483/3/3 491/3/3
f 542/2/3 427/2/3 435/2/3
f 542/2/3 475/2/3 541/2/3
f 542/2/3 451/2/3 459/2/3
f 542/2/3 459/2/3 467/2/3
f 542/2/3 467/2/3 475/2/3
f 542/2/3 443/2/3 451/2/3
f 542/2/3 435/2/3 443/2/3
f 542/2/3 418/2/3 427/2/3
f 542/3/3 419/3/3 418/3/3
f 543/2/3 402/2/3 410/2/3
f 543/3/3 419/3/3 542/3/3
f 543/3/3 410/3/3 419/3/3
f 544/2/3 346/2/3 354/2/3
f 544/2/3 402/2/3 543/2/3
f 544/3/3 338/3/3 346/3/3
f 544/2/3 370/2/3 378/2/3
f 544/2/3 386/2/3 394/2/3
f 544/2/3 394/2/3 402/2/3
f 544/2/3 378/2/3 386/2/3
f 544/2/3 354/2/3 362/2/3
f 544/2/3 362/2/3 370/2/3
f 545/3/3 330/3/3 338/3/3
f 545/3/3 338/3/3 544/3/3
f 545/2/3 371/2/3 363/2/3
f 545/2/3 363/2/3 355/2/3
f 545/2/3 355/2/3 347/2/3
f 545/2/3 339/2/3 330/2/3
f 545/2/3 379/2/3 371/2/3
f 545/2/3 347/2/3 339/2/3
f 546/3/3 387/3/3 379/3/3
f 546/2/3 379/2/3 545/2/3
f 546/3/3 395/3/3 387/3/3
f 547/2/3 411/2/3 403/2/3
f 547/3/3 395/3/3 546/3/3
f 547/2/3 444/2/3 436/2/3
f 547/2/3 428/2/3 420/2/3
f 547/2/3 460/2/3 452/2/3
f 547/2/3 403/2/3 395/2/3
f 547/2/3 452/2/3 444/2/3
f 547/2/3 436/2/3 428/2/3
f 547/2/3 420/2/3 411/2/3
f 548/3/3 476/3/3 468/3/3
f 548/2/3 460/2/3 547/2/3
f 548/3/3 468/3/3 460/3/3
f 549/2/3 484/2/3 476/2/3
f 549/3/3 476/3/3 548/3/3
f 549/2/3 500/2/3 492/2/3
f 549/2/3 508/2/3 500/2/3
f 549/2/3 524/2/3 516/2/3
f 549/2/3 530/2/3 524/2/3
f 549/2/3 492/2/3 484/2/3
f 549/2/3 516/2/3 508/2/3
f 550/3/3 534/3/3 532/3/3
f 550/2/3 530/2/3 549/2/3
f 550/3/3 532/3/3 530/3/3
f 551/2/3 535/2/3 534/2/3
f 551/3/3 534/3/3 550/3/3
f 552/2/3 89/2/3 535/2/3
f 552/2/3 535/2/3 551/2/3
f 552/3/3 90/3/3 89/3/3
f 553/3/3 90/3/3 552/3/3
f 554/3/4 555/3/4 572/3/4
f 572/3/4 555/3/4 573/3/4
f 554/3/4 572/3/4 574/3/4
f 572/4/4 573/4/4 574/4/4
f 573/3/4 555/3/4 575/3/4
f 574/4/4 573/4/4 575/4/4
f 554/3/4 574/3/4 576/3/4
f 574/3/4 575/3/4 576/3/4
f 555/2/4 556/2/4 577/2/4
f 576/3/4 575/3/4 577/3/4
f 575/3/4 555/3/4 577/3/4
f 556/3/4 557/3/4 578/3/4
f 577/2/4 556/2/4 578/2/4
f 557/2/4 558/2/4 579/2/4
f 578/3/4 557/3/4 579/3/4
f 558/3/4 559/3/4 580/3/4
f 579/2/4 558/2/4 580/2/4
f 559/2/4 560/2/4 581/2/4
f 580/3/4 559/3/4 581/3/4
f 560/3/4 561/3/4 582/3/4
f 581/2/4 560/2/4 582/2/4
f 561/2/4 562/2/4 583/2/4
f 582/3/4 561/3/4 583/3/4
f 562/3/4 563/3/4 584/3/4
f 583/2/4 562/2/4 584/2/4
f 563/2/4 564/2/4 585/2/4
f 584/3/4 563/3/4 585/3/4
f 564/3/4 565/3/4 586/3/4
f 585/2/4 564/2/4 586/2/4
f 565/2/4 566/2/4 587/2/4
f 586/3/4 565/3/4 587/3/4
f 566/3/4 567/3/4 588/3/4
f 587/2/4 566/2/4 588/2/4
f 567/2/4 568/2/4 589/2/4
f 588/3/4 567/3/4 589/3/4
f 568/3/4 569/3/4 590/3/4
f 589/2/4 568/2/4 590/2/4
f 569/2/4 570/2/4 591/2/4
f 590/3/4 569/3/4 591/3/4
f 570/3/4 571/3/4 592/3/4
f 591/2/4 570/2/4 592/2/4
f 592/3/4 571/3/4 593/3/4
f 596/3/5 595/3/5 594/3/5
f 597/3/5 595/3/5 596/3/5
f 598/3/5 596/3/5 594/3/5
f 598/2/5 597/2/5 596/2/5
f 599/3/5 595/3/5 597/3/5
f 599/2/5 597/2/5 598/2/5
f 600/3/5 598/3/5 594/3/5
f 600/3/5 599/3/5 598/3/5
f 601/3/5 595/3/5 599/3/5
f 601/3/5 599/3/5 600/3/5
f 602/3/6 603/3/6 604/3/6
f 604/3/6 603/3/6 605/3/6
f 602/3/6 604/3/6 606/3/6
f 604/2/6 605/2/6 606/2/6
f 605/3/6 603/3/6 607/3/6
f 606/2/6 605/2/6 607/2/6
f 602/3/6 606/3/6 608/3/6
f 606/3/6 607/3/6 608/3/6
f 607/3/6 603/3/6 609/3/6
f 608/3/6 607/3/6 609/3/6
