# MagicaVoxel @ Ephtracy

# group
o 

# material
mtllib GreenButton.mtl
usemtl palette

# normals
vn -1 0 0
vn 1 0 0
vn 0 0 1
vn 0 0 -1
vn 0 -1 0
vn 0 1 0

# texcoords
vt 0.541016 0.5
vt 0.982422 0.5

# verts
v -2 0 1.6
v -2 0 -1.6
v -2 0.3 1.6
v -2 0.3 -1.6
v -1.9 0 1.8
v -1.9 0 1.6
v -1.9 0 -1.6
v -1.9 0 -1.8
v -1.9 0.3 1.8
v -1.9 0.3 1.6
v -1.9 0.3 -1.6
v -1.9 0.3 -1.8
v -1.8 0 1.9
v -1.8 0 1.8
v -1.8 0 -1.8
v -1.8 0 -1.9
v -1.8 0.3 1.9
v -1.8 0.3 1.8
v -1.8 0.3 1.4
v -1.8 0.3 -1.4
v -1.8 0.3 -1.8
v -1.8 0.3 -1.9
v -1.8 0.4 1.4
v -1.8 0.4 -1.4
v -1.7 0.3 1.6
v -1.7 0.3 1.4
v -1.7 0.3 -1.4
v -1.7 0.3 -1.6
v -1.7 0.4 1.6
v -1.7 0.4 1.4
v -1.7 0.4 1.1
v -1.7 0.4 -1.1
v -1.7 0.4 -1.4
v -1.7 0.4 -1.6
v -1.7 0.5 1.1
v -1.7 0.5 -1.1
v -1.6 0 2
v -1.6 0 1.9
v -1.6 0 -1.9
v -1.6 0 -2
v -1.6 0.3 2
v -1.6 0.3 1.9
v -1.6 0.3 1.7
v -1.6 0.3 1.6
v -1.6 0.3 -1.6
v -1.6 0.3 -1.7
v -1.6 0.3 -1.9
v -1.6 0.3 -2
v -1.6 0.4 1.7
v -1.6 0.4 1.6
v -1.6 0.4 1.3
v -1.6 0.4 1.1
v -1.6 0.4 -1.1
v -1.6 0.4 -1.3
v -1.6 0.4 -1.6
v -1.6 0.4 -1.7
v -1.6 0.5 1.3
v -1.6 0.5 1.1
v -1.6 0.5 0.7
v -1.6 0.5 -0.7
v -1.6 0.5 -1.1
v -1.6 0.5 -1.3
v -1.6 0.6 0.7
v -1.6 0.6 -0.7
v -1.5 0.4 1.4
v -1.5 0.4 1.3
v -1.5 0.4 -1.3
v -1.5 0.4 -1.4
v -1.5 0.5 1.4
v -1.5 0.5 1.3
v -1.5 0.5 0.9
v -1.5 0.5 0.7
v -1.5 0.5 -0.7
v -1.5 0.5 -0.9
v -1.5 0.5 -1.3
v -1.5 0.5 -1.4
v -1.5 0.6 0.9
v -1.5 0.6 0.7
v -1.5 0.6 -0.7
v -1.5 0.6 -0.9
v -1.4 0.3 1.8
v -1.4 0.3 1.7
v -1.4 0.3 -1.7
v -1.4 0.3 -1.8
v -1.4 0.4 1.8
v -1.4 0.4 1.7
v -1.4 0.4 1.5
v -1.4 0.4 1.4
v -1.4 0.4 -1.4
v -1.4 0.4 -1.5
v -1.4 0.4 -1.7
v -1.4 0.4 -1.8
v -1.4 0.5 1.5
v -1.4 0.5 1.4
v -1.4 0.5 1.1
v -1.4 0.5 0.9
v -1.4 0.5 -0.9
v -1.4 0.5 -1.1
v -1.4 0.5 -1.4
v -1.4 0.5 -1.5
v -1.4 0.6 1.1
v -1.4 0.6 0.9
v -1.4 0.6 -0.9
v -1.4 0.6 -1.1
v -1.3 0.4 1.6
v -1.3 0.4 1.5
v -1.3 0.4 -1.5
v -1.3 0.4 -1.6
v -1.3 0.5 1.6
v -1.3 0.5 1.5
v -1.3 0.5 1.2
v -1.3 0.5 1.1
v -1.3 0.5 -1.1
v -1.3 0.5 -1.2
v -1.3 0.5 -1.5
v -1.3 0.5 -1.6
v -1.3 0.6 1.2
v -1.3 0.6 1.1
v -1.3 0.6 -1.1
v -1.3 0.6 -1.2
v -1.2 0.1 1.1
v -1.2 0.1 1
v -1.2 0.1 -1
v -1.2 0.1 -1.1
v -1.2 0.2 1.1
v -1.2 0.2 1
v -1.2 0.2 -1
v -1.2 0.2 -1.1
v -1.2 0.5 1.3
v -1.2 0.5 1.2
v -1.2 0.5 -1.2
v -1.2 0.5 -1.3
v -1.2 0.6 1.3
v -1.2 0.6 1.2
v -1.2 0.6 -1.2
v -1.2 0.6 -1.3
v -1.1 0.1 1.2
v -1.1 0.1 1.1
v -1.1 0.1 -1.1
v -1.1 0.1 -1.2
v -1.1 0.2 1.2
v -1.1 0.2 1.1
v -1.1 0.2 -1.1
v -1.1 0.2 -1.2
v -1.1 0.4 1.7
v -1.1 0.4 1.6
v -1.1 0.4 -1.6
v -1.1 0.4 -1.7
v -1.1 0.5 1.7
v -1.1 0.5 1.6
v -1.1 0.5 1.4
v -1.1 0.5 1.3
v -1.1 0.5 -1.3
v -1.1 0.5 -1.4
v -1.1 0.5 -1.6
v -1.1 0.5 -1.7
v -1.1 0.6 1.4
v -1.1 0.6 1.3
v -1.1 0.6 -1.3
v -1.1 0.6 -1.4
v -1 0.1 1.3
v -1 0.1 1.2
v -1 0.1 -1.2
v -1 0.1 -1.3
v -1 0.2 1.3
v -1 0.2 1.2
v -1 0.2 -1.2
v -1 0.2 -1.3
v -0.9 0.5 1.5
v -0.9 0.5 1.4
v -0.9 0.5 -1.4
v -0.9 0.5 -1.5
v -0.9 0.6 1.5
v -0.9 0.6 1.4
v -0.9 0.6 -1.4
v -0.9 0.6 -1.5
v -0.7 0.5 1.6
v -0.7 0.5 1.5
v -0.7 0.5 -1.5
v -0.7 0.5 -1.6
v -0.7 0.6 1.6
v -0.7 0.6 1.5
v -0.7 0.6 -1.5
v -0.7 0.6 -1.6
v 1.1 0.1 1.3
v 1.1 0.1 1.2
v 1.1 0.1 -1.2
v 1.1 0.1 -1.3
v 1.1 0.2 1.3
v 1.1 0.2 1.2
v 1.1 0.2 -1.2
v 1.1 0.2 -1.3
v 1.2 0.1 1.2
v 1.2 0.1 1.1
v 1.2 0.1 -1.1
v 1.2 0.1 -1.2
v 1.2 0.2 1.2
v 1.2 0.2 1.1
v 1.2 0.2 -1.1
v 1.2 0.2 -1.2
v 1.3 0.1 1.1
v 1.3 0.1 1
v 1.3 0.1 -1
v 1.3 0.1 -1.1
v 1.3 0.2 1.1
v 1.3 0.2 1
v 1.3 0.2 -1
v 1.3 0.2 -1.1
v -1.3 0.1 1.1
v -1.3 0.1 1
v -1.3 0.1 -1
v -1.3 0.1 -1.1
v -1.3 0.2 1.1
v -1.3 0.2 1
v -1.3 0.2 -1
v -1.3 0.2 -1.1
v -1.2 0.1 1.2
v -1.2 0.1 1.1
v -1.2 0.1 -1.1
v -1.2 0.1 -1.2
v -1.2 0.2 1.2
v -1.2 0.2 1.1
v -1.2 0.2 -1.1
v -1.2 0.2 -1.2
v -1.1 0.1 1.3
v -1.1 0.1 1.2
v -1.1 0.1 -1.2
v -1.1 0.1 -1.3
v -1.1 0.2 1.3
v -1.1 0.2 1.2
v -1.1 0.2 -1.2
v -1.1 0.2 -1.3
v 0.7 0.5 1.6
v 0.7 0.5 1.5
v 0.7 0.5 -1.5
v 0.7 0.5 -1.6
v 0.7 0.6 1.6
v 0.7 0.6 1.5
v 0.7 0.6 -1.5
v 0.7 0.6 -1.6
v 0.9 0.5 1.5
v 0.9 0.5 1.4
v 0.9 0.5 -1.4
v 0.9 0.5 -1.5
v 0.9 0.6 1.5
v 0.9 0.6 1.4
v 0.9 0.6 -1.4
v 0.9 0.6 -1.5
v 1 0.1 1.3
v 1 0.1 1.2
v 1 0.1 -1.2
v 1 0.1 -1.3
v 1 0.2 1.3
v 1 0.2 1.2
v 1 0.2 -1.2
v 1 0.2 -1.3
v 1.1 0.1 1.2
v 1.1 0.1 1.1
v 1.1 0.1 -1.1
v 1.1 0.1 -1.2
v 1.1 0.2 1.2
v 1.1 0.2 1.1
v 1.1 0.2 -1.1
v 1.1 0.2 -1.2
v 1.1 0.4 1.7
v 1.1 0.4 1.6
v 1.1 0.4 -1.6
v 1.1 0.4 -1.7
v 1.1 0.5 1.7
v 1.1 0.5 1.6
v 1.1 0.5 1.4
v 1.1 0.5 1.3
v 1.1 0.5 -1.3
v 1.1 0.5 -1.4
v 1.1 0.5 -1.6
v 1.1 0.5 -1.7
v 1.1 0.6 1.4
v 1.1 0.6 1.3
v 1.1 0.6 -1.3
v 1.1 0.6 -1.4
v 1.2 0.1 1.1
v 1.2 0.1 1
v 1.2 0.1 -1
v 1.2 0.1 -1.1
v 1.2 0.2 1.1
v 1.2 0.2 1
v 1.2 0.2 -1
v 1.2 0.2 -1.1
v 1.2 0.5 1.3
v 1.2 0.5 1.2
v 1.2 0.5 -1.2
v 1.2 0.5 -1.3
v 1.2 0.6 1.3
v 1.2 0.6 1.2
v 1.2 0.6 -1.2
v 1.2 0.6 -1.3
v 1.3 0.4 1.6
v 1.3 0.4 1.5
v 1.3 0.4 -1.5
v 1.3 0.4 -1.6
v 1.3 0.5 1.6
v 1.3 0.5 1.5
v 1.3 0.5 1.2
v 1.3 0.5 1.1
v 1.3 0.5 -1.1
v 1.3 0.5 -1.2
v 1.3 0.5 -1.5
v 1.3 0.5 -1.6
v 1.3 0.6 1.2
v 1.3 0.6 1.1
v 1.3 0.6 -1.1
v 1.3 0.6 -1.2
v 1.4 0.3 1.8
v 1.4 0.3 1.7
v 1.4 0.3 -1.7
v 1.4 0.3 -1.8
v 1.4 0.4 1.8
v 1.4 0.4 1.7
v 1.4 0.4 1.5
v 1.4 0.4 1.4
v 1.4 0.4 -1.4
v 1.4 0.4 -1.5
v 1.4 0.4 -1.7
v 1.4 0.4 -1.8
v 1.4 0.5 1.5
v 1.4 0.5 1.4
v 1.4 0.5 1.1
v 1.4 0.5 0.9
v 1.4 0.5 -0.9
v 1.4 0.5 -1.1
v 1.4 0.5 -1.4
v 1.4 0.5 -1.5
v 1.4 0.6 1.1
v 1.4 0.6 0.9
v 1.4 0.6 -0.9
v 1.4 0.6 -1.1
v 1.5 0.4 1.4
v 1.5 0.4 1.3
v 1.5 0.4 -1.3
v 1.5 0.4 -1.4
v 1.5 0.5 1.4
v 1.5 0.5 1.3
v 1.5 0.5 0.9
v 1.5 0.5 0.7
v 1.5 0.5 -0.7
v 1.5 0.5 -0.9
v 1.5 0.5 -1.3
v 1.5 0.5 -1.4
v 1.5 0.6 0.9
v 1.5 0.6 0.7
v 1.5 0.6 -0.7
v 1.5 0.6 -0.9
v 1.6 0 2
v 1.6 0 1.9
v 1.6 0 -1.9
v 1.6 0 -2
v 1.6 0.3 2
v 1.6 0.3 1.9
v 1.6 0.3 1.7
v 1.6 0.3 1.6
v 1.6 0.3 -1.6
v 1.6 0.3 -1.7
v 1.6 0.3 -1.9
v 1.6 0.3 -2
v 1.6 0.4 1.7
v 1.6 0.4 1.6
v 1.6 0.4 1.3
v 1.6 0.4 1.1
v 1.6 0.4 -1.1
v 1.6 0.4 -1.3
v 1.6 0.4 -1.6
v 1.6 0.4 -1.7
v 1.6 0.5 1.3
v 1.6 0.5 1.1
v 1.6 0.5 0.7
v 1.6 0.5 -0.7
v 1.6 0.5 -1.1
v 1.6 0.5 -1.3
v 1.6 0.6 0.7
v 1.6 0.6 -0.7
v 1.7 0.3 1.6
v 1.7 0.3 1.4
v 1.7 0.3 -1.4
v 1.7 0.3 -1.6
v 1.7 0.4 1.6
v 1.7 0.4 1.4
v 1.7 0.4 1.1
v 1.7 0.4 -1.1
v 1.7 0.4 -1.4
v 1.7 0.4 -1.6
v 1.7 0.5 1.1
v 1.7 0.5 -1.1
v 1.8 0 1.9
v 1.8 0 1.8
v 1.8 0 -1.8
v 1.8 0 -1.9
v 1.8 0.3 1.9
v 1.8 0.3 1.8
v 1.8 0.3 1.4
v 1.8 0.3 -1.4
v 1.8 0.3 -1.8
v 1.8 0.3 -1.9
v 1.8 0.4 1.4
v 1.8 0.4 -1.4
v 1.9 0 1.8
v 1.9 0 1.6
v 1.9 0 -1.6
v 1.9 0 -1.8
v 1.9 0.3 1.8
v 1.9 0.3 1.6
v 1.9 0.3 -1.6
v 1.9 0.3 -1.8
v 2 0 1.6
v 2 0 -1.6
v 2 0.3 1.6
v 2 0.3 -1.6
v -1.6 0 2
v -1.6 0.3 2
v 1.6 0 2
v 1.6 0.3 2
v -1.8 0 1.9
v -1.8 0.3 1.9
v -1.6 0 1.9
v -1.6 0.3 1.9
v 1.6 0 1.9
v 1.6 0.3 1.9
v 1.8 0 1.9
v 1.8 0.3 1.9
v -1.9 0 1.8
v -1.9 0.3 1.8
v -1.8 0 1.8
v -1.8 0.3 1.8
v -1.4 0.3 1.8
v -1.4 0.4 1.8
v 1.4 0.3 1.8
v 1.4 0.4 1.8
v 1.8 0 1.8
v 1.8 0.3 1.8
v 1.9 0 1.8
v 1.9 0.3 1.8
v -1.6 0.3 1.7
v -1.6 0.4 1.7
v -1.4 0.3 1.7
v -1.4 0.4 1.7
v -1.1 0.4 1.7
v -1.1 0.5 1.7
v 1.1 0.4 1.7
v 1.1 0.5 1.7
v 1.4 0.3 1.7
v 1.4 0.4 1.7
v 1.6 0.3 1.7
v 1.6 0.4 1.7
v -2 0 1.6
v -2 0.3 1.6
v -1.9 0 1.6
v -1.9 0.3 1.6
v -1.7 0.3 1.6
v -1.7 0.4 1.6
v -1.6 0.3 1.6
v -1.6 0.4 1.6
v -1.3 0.4 1.6
v -1.3 0.5 1.6
v -1.1 0.4 1.6
v -1.1 0.5 1.6
v -0.7 0.5 1.6
v -0.7 0.6 1.6
v 0.7 0.5 1.6
v 0.7 0.6 1.6
v 1.1 0.4 1.6
v 1.1 0.5 1.6
v 1.3 0.4 1.6
v 1.3 0.5 1.6
v 1.6 0.3 1.6
v 1.6 0.4 1.6
v 1.7 0.3 1.6
v 1.7 0.4 1.6
v 1.9 0 1.6
v 1.9 0.3 1.6
v 2 0 1.6
v 2 0.3 1.6
v -1.4 0.4 1.5
v -1.4 0.5 1.5
v -1.3 0.4 1.5
v -1.3 0.5 1.5
v -0.9 0.5 1.5
v -0.9 0.6 1.5
v -0.7 0.5 1.5
v -0.7 0.6 1.5
v 0.7 0.5 1.5
v 0.7 0.6 1.5
v 0.9 0.5 1.5
v 0.9 0.6 1.5
v 1.3 0.4 1.5
v 1.3 0.5 1.5
v 1.4 0.4 1.5
v 1.4 0.5 1.5
v -1.8 0.3 1.4
v -1.8 0.4 1.4
v -1.7 0.3 1.4
v -1.7 0.4 1.4
v -1.5 0.4 1.4
v -1.5 0.5 1.4
v -1.4 0.4 1.4
v -1.4 0.5 1.4
v -1.1 0.5 1.4
v -1.1 0.6 1.4
v -0.9 0.5 1.4
v -0.9 0.6 1.4
v 0.9 0.5 1.4
v 0.9 0.6 1.4
v 1.1 0.5 1.4
v 1.1 0.6 1.4
v 1.4 0.4 1.4
v 1.4 0.5 1.4
v 1.5 0.4 1.4
v 1.5 0.5 1.4
v 1.7 0.3 1.4
v 1.7 0.4 1.4
v 1.8 0.3 1.4
v 1.8 0.4 1.4
v -1.6 0.4 1.3
v -1.6 0.5 1.3
v -1.5 0.4 1.3
v -1.5 0.5 1.3
v -1.2 0.5 1.3
v -1.2 0.6 1.3
v -1.1 0.5 1.3
v -1.1 0.6 1.3
v 1.1 0.5 1.3
v 1.1 0.6 1.3
v 1.2 0.5 1.3
v 1.2 0.6 1.3
v 1.5 0.4 1.3
v 1.5 0.5 1.3
v 1.6 0.4 1.3
v 1.6 0.5 1.3
v -1.3 0.5 1.2
v -1.3 0.6 1.2
v -1.2 0.5 1.2
v -1.2 0.6 1.2
v -1.1 0.1 1.2
v -1.1 0.2 1.2
v -1 0.1 1.2
v -1 0.2 1.2
v 1 0.1 1.2
v 1 0.2 1.2
v 1.1 0.1 1.2
v 1.1 0.2 1.2
v 1.2 0.5 1.2
v 1.2 0.6 1.2
v 1.3 0.5 1.2
v 1.3 0.6 1.2
v -1.7 0.4 1.1
v -1.7 0.5 1.1
v -1.6 0.4 1.1
v -1.6 0.5 1.1
v -1.4 0.5 1.1
v -1.4 0.6 1.1
v -1.3 0.5 1.1
v -1.3 0.6 1.1
v -1.2 0.1 1.1
v -1.2 0.2 1.1
v -1.1 0.1 1.1
v -1.1 0.2 1.1
v 1.1 0.1 1.1
v 1.1 0.2 1.1
v 1.2 0.1 1.1
v 1.2 0.2 1.1
v 1.3 0.5 1.1
v 1.3 0.6 1.1
v 1.4 0.5 1.1
v 1.4 0.6 1.1
v 1.6 0.4 1.1
v 1.6 0.5 1.1
v 1.7 0.4 1.1
v 1.7 0.5 1.1
v -1.3 0.1 1
v -1.3 0.2 1
v -1.2 0.1 1
v -1.2 0.2 1
v 1.2 0.1 1
v 1.2 0.2 1
v 1.3 0.1 1
v 1.3 0.2 1
v -1.5 0.5 0.9
v -1.5 0.6 0.9
v -1.4 0.5 0.9
v -1.4 0.6 0.9
v 1.4 0.5 0.9
v 1.4 0.6 0.9
v 1.5 0.5 0.9
v 1.5 0.6 0.9
v -1.6 0.5 0.7
v -1.6 0.6 0.7
v -1.5 0.5 0.7
v -1.5 0.6 0.7
v 1.5 0.5 0.7
v 1.5 0.6 0.7
v 1.6 0.5 0.7
v 1.6 0.6 0.7
v -1.3 0.1 -1.1
v -1.3 0.2 -1.1
v -1.2 0.1 -1.1
v -1.2 0.2 -1.1
v 1.2 0.1 -1.1
v 1.2 0.2 -1.1
v 1.3 0.1 -1.1
v 1.3 0.2 -1.1
v -1.2 0.1 -1.2
v -1.2 0.2 -1.2
v -1.1 0.1 -1.2
v -1.1 0.2 -1.2
v 1.1 0.1 -1.2
v 1.1 0.2 -1.2
v 1.2 0.1 -1.2
v 1.2 0.2 -1.2
v -1.1 0.1 -1.3
v -1.1 0.2 -1.3
v -1 0.1 -1.3
v -1 0.2 -1.3
v 1 0.1 -1.3
v 1 0.2 -1.3
v 1.1 0.1 -1.3
v 1.1 0.2 -1.3
v -1.1 0.1 1.3
v -1.1 0.2 1.3
v -1 0.1 1.3
v -1 0.2 1.3
v 1 0.1 1.3
v 1 0.2 1.3
v 1.1 0.1 1.3
v 1.1 0.2 1.3
v -1.2 0.1 1.2
v -1.2 0.2 1.2
v -1.1 0.1 1.2
v -1.1 0.2 1.2
v 1.1 0.1 1.2
v 1.1 0.2 1.2
v 1.2 0.1 1.2
v 1.2 0.2 1.2
v -1.3 0.1 1.1
v -1.3 0.2 1.1
v -1.2 0.1 1.1
v -1.2 0.2 1.1
v 1.2 0.1 1.1
v 1.2 0.2 1.1
v 1.3 0.1 1.1
v 1.3 0.2 1.1
v -1.6 0.5 -0.7
v -1.6 0.6 -0.7
v -1.5 0.5 -0.7
v -1.5 0.6 -0.7
v 1.5 0.5 -0.7
v 1.5 0.6 -0.7
v 1.6 0.5 -0.7
v 1.6 0.6 -0.7
v -1.5 0.5 -0.9
v -1.5 0.6 -0.9
v -1.4 0.5 -0.9
v -1.4 0.6 -0.9
v 1.4 0.5 -0.9
v 1.4 0.6 -0.9
v 1.5 0.5 -0.9
v 1.5 0.6 -0.9
v -1.3 0.1 -1
v -1.3 0.2 -1
v -1.2 0.1 -1
v -1.2 0.2 -1
v 1.2 0.1 -1
v 1.2 0.2 -1
v 1.3 0.1 -1
v 1.3 0.2 -1
v -1.7 0.4 -1.1
v -1.7 0.5 -1.1
v -1.6 0.4 -1.1
v -1.6 0.5 -1.1
v -1.4 0.5 -1.1
v -1.4 0.6 -1.1
v -1.3 0.5 -1.1
v -1.3 0.6 -1.1
v -1.2 0.1 -1.1
v -1.2 0.2 -1.1
v -1.1 0.1 -1.1
v -1.1 0.2 -1.1
v 1.1 0.1 -1.1
v 1.1 0.2 -1.1
v 1.2 0.1 -1.1
v 1.2 0.2 -1.1
v 1.3 0.5 -1.1
v 1.3 0.6 -1.1
v 1.4 0.5 -1.1
v 1.4 0.6 -1.1
v 1.6 0.4 -1.1
v 1.6 0.5 -1.1
v 1.7 0.4 -1.1
v 1.7 0.5 -1.1
v -1.3 0.5 -1.2
v -1.3 0.6 -1.2
v -1.2 0.5 -1.2
v -1.2 0.6 -1.2
v -1.1 0.1 -1.2
v -1.1 0.2 -1.2
v -1 0.1 -1.2
v -1 0.2 -1.2
v 1 0.1 -1.2
v 1 0.2 -1.2
v 1.1 0.1 -1.2
v 1.1 0.2 -1.2
v 1.2 0.5 -1.2
v 1.2 0.6 -1.2
v 1.3 0.5 -1.2
v 1.3 0.6 -1.2
v -1.6 0.4 -1.3
v -1.6 0.5 -1.3
v -1.5 0.4 -1.3
v -1.5 0.5 -1.3
v -1.2 0.5 -1.3
v -1.2 0.6 -1.3
v -1.1 0.5 -1.3
v -1.1 0.6 -1.3
v 1.1 0.5 -1.3
v 1.1 0.6 -1.3
v 1.2 0.5 -1.3
v 1.2 0.6 -1.3
v 1.5 0.4 -1.3
v 1.5 0.5 -1.3
v 1.6 0.4 -1.3
v 1.6 0.5 -1.3
v -1.8 0.3 -1.4
v -1.8 0.4 -1.4
v -1.7 0.3 -1.4
v -1.7 0.4 -1.4
v -1.5 0.4 -1.4
v -1.5 0.5 -1.4
v -1.4 0.4 -1.4
v -1.4 0.5 -1.4
v -1.1 0.5 -1.4
v -1.1 0.6 -1.4
v -0.9 0.5 -1.4
v -0.9 0.6 -1.4
v 0.9 0.5 -1.4
v 0.9 0.6 -1.4
v 1.1 0.5 -1.4
v 1.1 0.6 -1.4
v 1.4 0.4 -1.4
v 1.4 0.5 -1.4
v 1.5 0.4 -1.4
v 1.5 0.5 -1.4
v 1.7 0.3 -1.4
v 1.7 0.4 -1.4
v 1.8 0.3 -1.4
v 1.8 0.4 -1.4
v -1.4 0.4 -1.5
v -1.4 0.5 -1.5
v -1.3 0.4 -1.5
v -1.3 0.5 -1.5
v -0.9 0.5 -1.5
v -0.9 0.6 -1.5
v -0.7 0.5 -1.5
v -0.7 0.6 -1.5
v 0.7 0.5 -1.5
v 0.7 0.6 -1.5
v 0.9 0.5 -1.5
v 0.9 0.6 -1.5
v 1.3 0.4 -1.5
v 1.3 0.5 -1.5
v 1.4 0.4 -1.5
v 1.4 0.5 -1.5
v -2 0 -1.6
v -2 0.3 -1.6
v -1.9 0 -1.6
v -1.9 0.3 -1.6
v -1.7 0.3 -1.6
v -1.7 0.4 -1.6
v -1.6 0.3 -1.6
v -1.6 0.4 -1.6
v -1.3 0.4 -1.6
v -1.3 0.5 -1.6
v -1.1 0.4 -1.6
v -1.1 0.5 -1.6
v -0.7 0.5 -1.6
v -0.7 0.6 -1.6
v 0.7 0.5 -1.6
v 0.7 0.6 -1.6
v 1.1 0.4 -1.6
v 1.1 0.5 -1.6
v 1.3 0.4 -1.6
v 1.3 0.5 -1.6
v 1.6 0.3 -1.6
v 1.6 0.4 -1.6
v 1.7 0.3 -1.6
v 1.7 0.4 -1.6
v 1.9 0 -1.6
v 1.9 0.3 -1.6
v 2 0 -1.6
v 2 0.3 -1.6
v -1.6 0.3 -1.7
v -1.6 0.4 -1.7
v -1.4 0.3 -1.7
v -1.4 0.4 -1.7
v -1.1 0.4 -1.7
v -1.1 0.5 -1.7
v 1.1 0.4 -1.7
v 1.1 0.5 -1.7
v 1.4 0.3 -1.7
v 1.4 0.4 -1.7
v 1.6 0.3 -1.7
v 1.6 0.4 -1.7
v -1.9 0 -1.8
v -1.9 0.3 -1.8
v -1.8 0 -1.8
v -1.8 0.3 -1.8
v -1.4 0.3 -1.8
v -1.4 0.4 -1.8
v 1.4 0.3 -1.8
v 1.4 0.4 -1.8
v 1.8 0 -1.8
v 1.8 0.3 -1.8
v 1.9 0 -1.8
v 1.9 0.3 -1.8
v -1.8 0 -1.9
v -1.8 0.3 -1.9
v -1.6 0 -1.9
v -1.6 0.3 -1.9
v 1.6 0 -1.9
v 1.6 0.3 -1.9
v 1.8 0 -1.9
v 1.8 0.3 -1.9
v -1.6 0 -2
v -1.6 0.3 -2
v 1.6 0 -2
v 1.6 0.3 -2
v -1.6 0 2
v 1.6 0 2
v -1.8 0 1.9
v -1.6 0 1.9
v 1.6 0 1.9
v 1.8 0 1.9
v -1.9 0 1.8
v -1.8 0 1.8
v 1.8 0 1.8
v 1.9 0 1.8
v -2 0 1.6
v -1.9 0 1.6
v 1.9 0 1.6
v 2 0 1.6
v -2 0 -1.6
v -1.9 0 -1.6
v 1.9 0 -1.6
v 2 0 -1.6
v -1.9 0 -1.8
v -1.8 0 -1.8
v 1.8 0 -1.8
v 1.9 0 -1.8
v -1.8 0 -1.9
v -1.6 0 -1.9
v 1.6 0 -1.9
v 1.8 0 -1.9
v -1.6 0 -2
v 1.6 0 -2
v -1.1 0.2 1.3
v -1 0.2 1.3
v 1 0.2 1.3
v 1.1 0.2 1.3
v -1.2 0.2 1.2
v -1.1 0.2 1.2
v -1 0.2 1.2
v 1 0.2 1.2
v 1.1 0.2 1.2
v 1.2 0.2 1.2
v -1.3 0.2 1.1
v -1.2 0.2 1.1
v -1.1 0.2 1.1
v 1.1 0.2 1.1
v 1.2 0.2 1.1
v 1.3 0.2 1.1
v -1.3 0.2 1
v -1.2 0.2 1
v 1.2 0.2 1
v 1.3 0.2 1
v -1.3 0.2 -1
v -1.2 0.2 -1
v 1.2 0.2 -1
v 1.3 0.2 -1
v -1.3 0.2 -1.1
v -1.2 0.2 -1.1
v -1.1 0.2 -1.1
v 1.1 0.2 -1.1
v 1.2 0.2 -1.1
v 1.3 0.2 -1.1
v -1.2 0.2 -1.2
v -1.1 0.2 -1.2
v -1 0.2 -1.2
v 1 0.2 -1.2
v 1.1 0.2 -1.2
v 1.2 0.2 -1.2
v -1.1 0.2 -1.3
v -1 0.2 -1.3
v 1 0.2 -1.3
v 1.1 0.2 -1.3
v -1.1 0.1 1.3
v -1 0.1 1.3
v 1 0.1 1.3
v 1.1 0.1 1.3
v -1.2 0.1 1.2
v -1.1 0.1 1.2
v -1 0.1 1.2
v 1 0.1 1.2
v 1.1 0.1 1.2
v 1.2 0.1 1.2
v -1.3 0.1 1.1
v -1.2 0.1 1.1
v -1.1 0.1 1.1
v 1.1 0.1 1.1
v 1.2 0.1 1.1
v 1.3 0.1 1.1
v -1.3 0.1 1
v -1.2 0.1 1
v 1.2 0.1 1
v 1.3 0.1 1
v -1.3 0.1 -1
v -1.2 0.1 -1
v 1.2 0.1 -1
v 1.3 0.1 -1
v -1.3 0.1 -1.1
v -1.2 0.1 -1.1
v -1.1 0.1 -1.1
v 1.1 0.1 -1.1
v 1.2 0.1 -1.1
v 1.3 0.1 -1.1
v -1.2 0.1 -1.2
v -1.1 0.1 -1.2
v -1 0.1 -1.2
v 1 0.1 -1.2
v 1.1 0.1 -1.2
v 1.2 0.1 -1.2
v -1.1 0.1 -1.3
v -1 0.1 -1.3
v 1 0.1 -1.3
v 1.1 0.1 -1.3
v -1.6 0.3 2
v 1.6 0.3 2
v -1.8 0.3 1.9
v -1.6 0.3 1.9
v 1.6 0.3 1.9
v 1.8 0.3 1.9
v -1.9 0.3 1.8
v -1.8 0.3 1.8
v -1.4 0.3 1.8
v 1.4 0.3 1.8
v 1.8 0.3 1.8
v 1.9 0.3 1.8
v -1.6 0.3 1.7
v -1.4 0.3 1.7
v 1.4 0.3 1.7
v 1.6 0.3 1.7
v -2 0.3 1.6
v -1.9 0.3 1.6
v -1.7 0.3 1.6
v -1.6 0.3 1.6
v 1.6 0.3 1.6
v 1.7 0.3 1.6
v 1.9 0.3 1.6
v 2 0.3 1.6
v -1.8 0.3 1.4
v -1.7 0.3 1.4
v 1.7 0.3 1.4
v 1.8 0.3 1.4
v -1.8 0.3 -1.4
v -1.7 0.3 -1.4
v 1.7 0.3 -1.4
v 1.8 0.3 -1.4
v -2 0.3 -1.6
v -1.9 0.3 -1.6
v -1.7 0.3 -1.6
v -1.6 0.3 -1.6
v 1.6 0.3 -1.6
v 1.7 0.3 -1.6
v 1.9 0.3 -1.6
v 2 0.3 -1.6
v -1.6 0.3 -1.7
v -1.4 0.3 -1.7
v 1.4 0.3 -1.7
v 1.6 0.3 -1.7
v -1.9 0.3 -1.8
v -1.8 0.3 -1.8
v -1.4 0.3 -1.8
v 1.4 0.3 -1.8
v 1.8 0.3 -1.8
v 1.9 0.3 -1.8
v -1.8 0.3 -1.9
v -1.6 0.3 -1.9
v 1.6 0.3 -1.9
v 1.8 0.3 -1.9
v -1.6 0.3 -2
v 1.6 0.3 -2
v -1.4 0.4 1.8
v 1.4 0.4 1.8
v -1.6 0.4 1.7
v -1.4 0.4 1.7
v -1.1 0.4 1.7
v 1.1 0.4 1.7
v 1.4 0.4 1.7
v 1.6 0.4 1.7
v -1.7 0.4 1.6
v -1.6 0.4 1.6
v -1.3 0.4 1.6
v -1.1 0.4 1.6
v 1.1 0.4 1.6
v 1.3 0.4 1.6
v 1.6 0.4 1.6
v 1.7 0.4 1.6
v -1.4 0.4 1.5
v -1.3 0.4 1.5
v 1.3 0.4 1.5
v 1.4 0.4 1.5
v -1.8 0.4 1.4
v -1.7 0.4 1.4
v -1.5 0.4 1.4
v -1.4 0.4 1.4
v 1.4 0.4 1.4
v 1.5 0.4 1.4
v 1.7 0.4 1.4
v 1.8 0.4 1.4
v -1.6 0.4 1.3
v -1.5 0.4 1.3
v 1.5 0.4 1.3
v 1.6 0.4 1.3
v -1.7 0.4 1.1
v -1.6 0.4 1.1
v 1.6 0.4 1.1
v 1.7 0.4 1.1
v -1.7 0.4 -1.1
v -1.6 0.4 -1.1
v 1.6 0.4 -1.1
v 1.7 0.4 -1.1
v -1.6 0.4 -1.3
v -1.5 0.4 -1.3
v 1.5 0.4 -1.3
v 1.6 0.4 -1.3
v -1.8 0.4 -1.4
v -1.7 0.4 -1.4
v -1.5 0.4 -1.4
v -1.4 0.4 -1.4
v 1.4 0.4 -1.4
v 1.5 0.4 -1.4
v 1.7 0.4 -1.4
v 1.8 0.4 -1.4
v -1.4 0.4 -1.5
v -1.3 0.4 -1.5
v 1.3 0.4 -1.5
v 1.4 0.4 -1.5
v -1.7 0.4 -1.6
v -1.6 0.4 -1.6
v -1.3 0.4 -1.6
v -1.1 0.4 -1.6
v 1.1 0.4 -1.6
v 1.3 0.4 -1.6
v 1.6 0.4 -1.6
v 1.7 0.4 -1.6
v -1.6 0.4 -1.7
v -1.4 0.4 -1.7
v -1.1 0.4 -1.7
v 1.1 0.4 -1.7
v 1.4 0.4 -1.7
v 1.6 0.4 -1.7
v -1.4 0.4 -1.8
v 1.4 0.4 -1.8
v -1.1 0.5 1.7
v 1.1 0.5 1.7
v -1.3 0.5 1.6
v -1.1 0.5 1.6
v -0.7 0.5 1.6
v 0.7 0.5 1.6
v 1.1 0.5 1.6
v 1.3 0.5 1.6
v -1.4 0.5 1.5
v -1.3 0.5 1.5
v -0.9 0.5 1.5
v -0.7 0.5 1.5
v 0.7 0.5 1.5
v 0.9 0.5 1.5
v 1.3 0.5 1.5
v 1.4 0.5 1.5
v -1.5 0.5 1.4
v -1.4 0.5 1.4
v -1.1 0.5 1.4
v -0.9 0.5 1.4
v 0.9 0.5 1.4
v 1.1 0.5 1.4
v 1.4 0.5 1.4
v 1.5 0.5 1.4
v -1.6 0.5 1.3
v -1.5 0.5 1.3
v -1.2 0.5 1.3
v -1.1 0.5 1.3
v 1.1 0.5 1.3
v 1.2 0.5 1.3
v 1.5 0.5 1.3
v 1.6 0.5 1.3
v -1.3 0.5 1.2
v -1.2 0.5 1.2
v 1.2 0.5 1.2
v 1.3 0.5 1.2
v -1.7 0.5 1.1
v -1.6 0.5 1.1
v -1.4 0.5 1.1
v -1.3 0.5 1.1
v 1.3 0.5 1.1
v 1.4 0.5 1.1
v 1.6 0.5 1.1
v 1.7 0.5 1.1
v -1.5 0.5 0.9
v -1.4 0.5 0.9
v 1.4 0.5 0.9
v 1.5 0.5 0.9
v -1.6 0.5 0.7
v -1.5 0.5 0.7
v 1.5 0.5 0.7
v 1.6 0.5 0.7
v -1.6 0.5 -0.7
v -1.5 0.5 -0.7
v 1.5 0.5 -0.7
v 1.6 0.5 -0.7
v -1.5 0.5 -0.9
v -1.4 0.5 -0.9
v 1.4 0.5 -0.9
v 1.5 0.5 -0.9
v -1.7 0.5 -1.1
v -1.6 0.5 -1.1
v -1.4 0.5 -1.1
v -1.3 0.5 -1.1
v 1.3 0.5 -1.1
v 1.4 0.5 -1.1
v 1.6 0.5 -1.1
v 1.7 0.5 -1.1
v -1.3 0.5 -1.2
v -1.2 0.5 -1.2
v 1.2 0.5 -1.2
v 1.3 0.5 -1.2
v -1.6 0.5 -1.3
v -1.5 0.5 -1.3
v -1.2 0.5 -1.3
v -1.1 0.5 -1.3
v 1.1 0.5 -1.3
v 1.2 0.5 -1.3
v 1.5 0.5 -1.3
v 1.6 0.5 -1.3
v -1.5 0.5 -1.4
v -1.4 0.5 -1.4
v -1.1 0.5 -1.4
v -0.9 0.5 -1.4
v 0.9 0.5 -1.4
v 1.1 0.5 -1.4
v 1.4 0.5 -1.4
v 1.5 0.5 -1.4
v -1.4 0.5 -1.5
v -1.3 0.5 -1.5
v -0.9 0.5 -1.5
v -0.7 0.5 -1.5
v 0.7 0.5 -1.5
v 0.9 0.5 -1.5
v 1.3 0.5 -1.5
v 1.4 0.5 -1.5
v -1.3 0.5 -1.6
v -1.1 0.5 -1.6
v -0.7 0.5 -1.6
v 0.7 0.5 -1.6
v 1.1 0.5 -1.6
v 1.3 0.5 -1.6
v -1.1 0.5 -1.7
v 1.1 0.5 -1.7
v -0.7 0.6 1.6
v 0.7 0.6 1.6
v -0.9 0.6 1.5
v -0.7 0.6 1.5
v 0.7 0.6 1.5
v 0.9 0.6 1.5
v -1.1 0.6 1.4
v -0.9 0.6 1.4
v 0.9 0.6 1.4
v 1.1 0.6 1.4
v -1.2 0.6 1.3
v -1.1 0.6 1.3
v 1.1 0.6 1.3
v 1.2 0.6 1.3
v -1.3 0.6 1.2
v -1.2 0.6 1.2
v 1.2 0.6 1.2
v 1.3 0.6 1.2
v -1.4 0.6 1.1
v -1.3 0.6 1.1
v 1.3 0.6 1.1
v 1.4 0.6 1.1
v -1.5 0.6 0.9
v -1.4 0.6 0.9
v 1.4 0.6 0.9
v 1.5 0.6 0.9
v -1.6 0.6 0.7
v -1.5 0.6 0.7
v 1.5 0.6 0.7
v 1.6 0.6 0.7
v -1.6 0.6 -0.7
v -1.5 0.6 -0.7
v 1.5 0.6 -0.7
v 1.6 0.6 -0.7
v -1.5 0.6 -0.9
v -1.4 0.6 -0.9
v 1.4 0.6 -0.9
v 1.5 0.6 -0.9
v -1.4 0.6 -1.1
v -1.3 0.6 -1.1
v 1.3 0.6 -1.1
v 1.4 0.6 -1.1
v -1.3 0.6 -1.2
v -1.2 0.6 -1.2
v 1.2 0.6 -1.2
v 1.3 0.6 -1.2
v -1.2 0.6 -1.3
v -1.1 0.6 -1.3
v 1.1 0.6 -1.3
v 1.2 0.6 -1.3
v -1.1 0.6 -1.4
v -0.9 0.6 -1.4
v 0.9 0.6 -1.4
v 1.1 0.6 -1.4
v -0.9 0.6 -1.5
v -0.7 0.6 -1.5
v 0.7 0.6 -1.5
v 0.9 0.6 -1.5
v -0.7 0.6 -1.6
v 0.7 0.6 -1.6

# faces
f 3/2/1 2/2/1 1/2/1
f 4/2/1 2/2/1 3/2/1
f 9/2/1 6/2/1 5/2/1
f 10/2/1 6/2/1 9/2/1
f 11/2/1 8/2/1 7/2/1
f 12/2/1 8/2/1 11/2/1
f 17/2/1 14/2/1 13/2/1
f 18/2/1 14/2/1 17/2/1
f 21/2/1 16/2/1 15/2/1
f 22/2/1 16/2/1 21/2/1
f 23/1/1 20/1/1 19/1/1
f 24/1/1 20/1/1 23/1/1
f 29/1/1 26/1/1 25/1/1
f 30/1/1 26/1/1 29/1/1
f 33/1/1 28/1/1 27/1/1
f 34/1/1 28/1/1 33/1/1
f 35/1/1 32/1/1 31/1/1
f 36/1/1 32/1/1 35/1/1
f 41/2/1 38/2/1 37/2/1
f 42/2/1 38/2/1 41/2/1
f 47/2/1 40/2/1 39/2/1
f 48/2/1 40/2/1 47/2/1
f 49/1/1 44/1/1 43/1/1
f 50/1/1 44/1/1 49/1/1
f 55/1/1 46/1/1 45/1/1
f 56/1/1 46/1/1 55/1/1
f 57/1/1 52/1/1 51/1/1
f 58/1/1 52/1/1 57/1/1
f 61/1/1 54/1/1 53/1/1
f 62/1/1 54/1/1 61/1/1
f 63/1/1 60/1/1 59/1/1
f 64/1/1 60/1/1 63/1/1
f 69/1/1 66/1/1 65/1/1
f 70/1/1 66/1/1 69/1/1
f 75/1/1 68/1/1 67/1/1
f 76/1/1 68/1/1 75/1/1
f 77/1/1 72/1/1 71/1/1
f 78/1/1 72/1/1 77/1/1
f 79/1/1 74/1/1 73/1/1
f 80/1/1 74/1/1 79/1/1
f 85/1/1 82/1/1 81/1/1
f 86/1/1 82/1/1 85/1/1
f 91/1/1 84/1/1 83/1/1
f 92/1/1 84/1/1 91/1/1
f 93/1/1 88/1/1 87/1/1
f 94/1/1 88/1/1 93/1/1
f 99/1/1 90/1/1 89/1/1
f 100/1/1 90/1/1 99/1/1
f 101/1/1 96/1/1 95/1/1
f 102/1/1 96/1/1 101/1/1
f 103/1/1 98/1/1 97/1/1
f 104/1/1 98/1/1 103/1/1
f 109/1/1 106/1/1 105/1/1
f 110/1/1 106/1/1 109/1/1
f 115/1/1 108/1/1 107/1/1
f 116/1/1 108/1/1 115/1/1
f 117/1/1 112/1/1 111/1/1
f 118/1/1 112/1/1 117/1/1
f 119/1/1 114/1/1 113/1/1
f 120/1/1 114/1/1 119/1/1
f 125/2/1 122/2/1 121/2/1
f 126/2/1 122/2/1 125/2/1
f 127/2/1 124/2/1 123/2/1
f 128/2/1 124/2/1 127/2/1
f 133/1/1 130/1/1 129/1/1
f 134/1/1 130/1/1 133/1/1
f 135/1/1 132/1/1 131/1/1
f 136/1/1 132/1/1 135/1/1
f 141/2/1 138/2/1 137/2/1
f 142/2/1 138/2/1 141/2/1
f 143/2/1 140/2/1 139/2/1
f 144/2/1 140/2/1 143/2/1
f 149/1/1 146/1/1 145/1/1
f 150/1/1 146/1/1 149/1/1
f 155/1/1 148/1/1 147/1/1
f 156/1/1 148/1/1 155/1/1
f 157/1/1 152/1/1 151/1/1
f 158/1/1 152/1/1 157/1/1
f 159/1/1 154/1/1 153/1/1
f 160/1/1 154/1/1 159/1/1
f 165/2/1 162/2/1 161/2/1
f 166/2/1 162/2/1 165/2/1
f 167/2/1 164/2/1 163/2/1
f 168/2/1 164/2/1 167/2/1
f 173/1/1 170/1/1 169/1/1
f 174/1/1 170/1/1 173/1/1
f 175/1/1 172/1/1 171/1/1
f 176/1/1 172/1/1 175/1/1
f 181/1/1 178/1/1 177/1/1
f 182/1/1 178/1/1 181/1/1
f 183/1/1 180/1/1 179/1/1
f 184/1/1 180/1/1 183/1/1
f 189/2/1 186/2/1 185/2/1
f 190/2/1 186/2/1 189/2/1
f 191/2/1 188/2/1 187/2/1
f 192/2/1 188/2/1 191/2/1
f 197/2/1 194/2/1 193/2/1
f 198/2/1 194/2/1 197/2/1
f 199/2/1 196/2/1 195/2/1
f 200/2/1 196/2/1 199/2/1
f 205/2/1 202/2/1 201/2/1
f 206/2/1 202/2/1 205/2/1
f 207/2/1 204/2/1 203/2/1
f 208/2/1 204/2/1 207/2/1
f 209/2/2 210/2/2 213/2/2
f 213/2/2 210/2/2 214/2/2
f 211/2/2 212/2/2 215/2/2
f 215/2/2 212/2/2 216/2/2
f 217/2/2 218/2/2 221/2/2
f 221/2/2 218/2/2 222/2/2
f 219/2/2 220/2/2 223/2/2
f 223/2/2 220/2/2 224/2/2
f 225/2/2 226/2/2 229/2/2
f 229/2/2 226/2/2 230/2/2
f 227/2/2 228/2/2 231/2/2
f 231/2/2 228/2/2 232/2/2
f 233/1/2 234/1/2 237/1/2
f 237/1/2 234/1/2 238/1/2
f 235/1/2 236/1/2 239/1/2
f 239/1/2 236/1/2 240/1/2
f 241/1/2 242/1/2 245/1/2
f 245/1/2 242/1/2 246/1/2
f 243/1/2 244/1/2 247/1/2
f 247/1/2 244/1/2 248/1/2
f 249/2/2 250/2/2 253/2/2
f 253/2/2 250/2/2 254/2/2
f 251/2/2 252/2/2 255/2/2
f 255/2/2 252/2/2 256/2/2
f 257/2/2 258/2/2 261/2/2
f 261/2/2 258/2/2 262/2/2
f 259/2/2 260/2/2 263/2/2
f 263/2/2 260/2/2 264/2/2
f 265/1/2 266/1/2 269/1/2
f 269/1/2 266/1/2 270/1/2
f 267/1/2 268/1/2 275/1/2
f 275/1/2 268/1/2 276/1/2
f 271/1/2 272/1/2 277/1/2
f 277/1/2 272/1/2 278/1/2
f 273/1/2 274/1/2 279/1/2
f 279/1/2 274/1/2 280/1/2
f 281/2/2 282/2/2 285/2/2
f 285/2/2 282/2/2 286/2/2
f 283/2/2 284/2/2 287/2/2
f 287/2/2 284/2/2 288/2/2
f 289/1/2 290/1/2 293/1/2
f 293/1/2 290/1/2 294/1/2
f 291/1/2 292/1/2 295/1/2
f 295/1/2 292/1/2 296/1/2
f 297/1/2 298/1/2 301/1/2
f 301/1/2 298/1/2 302/1/2
f 299/1/2 300/1/2 307/1/2
f 307/1/2 300/1/2 308/1/2
f 303/1/2 304/1/2 309/1/2
f 309/1/2 304/1/2 310/1/2
f 305/1/2 306/1/2 311/1/2
f 311/1/2 306/1/2 312/1/2
f 313/1/2 314/1/2 317/1/2
f 317/1/2 314/1/2 318/1/2
f 315/1/2 316/1/2 323/1/2
f 323/1/2 316/1/2 324/1/2
f 319/1/2 320/1/2 325/1/2
f 325/1/2 320/1/2 326/1/2
f 321/1/2 322/1/2 331/1/2
f 331/1/2 322/1/2 332/1/2
f 327/1/2 328/1/2 333/1/2
f 333/1/2 328/1/2 334/1/2
f 329/1/2 330/1/2 335/1/2
f 335/1/2 330/1/2 336/1/2
f 337/1/2 338/1/2 341/1/2
f 341/1/2 338/1/2 342/1/2
f 339/1/2 340/1/2 347/1/2
f 347/1/2 340/1/2 348/1/2
f 343/1/2 344/1/2 349/1/2
f 349/1/2 344/1/2 350/1/2
f 345/1/2 346/1/2 351/1/2
f 351/1/2 346/1/2 352/1/2
f 353/2/2 354/2/2 357/2/2
f 357/2/2 354/2/2 358/2/2
f 355/2/2 356/2/2 363/2/2
f 363/2/2 356/2/2 364/2/2
f 359/1/2 360/1/2 365/1/2
f 365/1/2 360/1/2 366/1/2
f 361/1/2 362/1/2 371/1/2
f 371/1/2 362/1/2 372/1/2
f 367/1/2 368/1/2 373/1/2
f 373/1/2 368/1/2 374/1/2
f 369/1/2 370/1/2 377/1/2
f 377/1/2 370/1/2 378/1/2
f 375/1/2 376/1/2 379/1/2
f 379/1/2 376/1/2 380/1/2
f 381/1/2 382/1/2 385/1/2
f 385/1/2 382/1/2 386/1/2
f 383/1/2 384/1/2 389/1/2
f 389/1/2 384/1/2 390/1/2
f 387/1/2 388/1/2 391/1/2
f 391/1/2 388/1/2 392/1/2
f 393/2/2 394/2/2 397/2/2
f 397/2/2 394/2/2 398/2/2
f 395/2/2 396/2/2 401/2/2
f 401/2/2 396/2/2 402/2/2
f 399/1/2 400/1/2 403/1/2
f 403/1/2 400/1/2 404/1/2
f 405/2/2 406/2/2 409/2/2
f 409/2/2 406/2/2 410/2/2
f 407/2/2 408/2/2 411/2/2
f 411/2/2 408/2/2 412/2/2
f 413/2/2 414/2/2 415/2/2
f 415/2/2 414/2/2 416/2/2
f 419/2/3 418/2/3 417/2/3
f 420/2/3 418/2/3 419/2/3
f 423/2/3 422/2/3 421/2/3
f 424/2/3 422/2/3 423/2/3
f 427/2/3 426/2/3 425/2/3
f 428/2/3 426/2/3 427/2/3
f 431/2/3 430/2/3 429/2/3
f 432/2/3 430/2/3 431/2/3
f 435/1/3 434/1/3 433/1/3
f 436/1/3 434/1/3 435/1/3
f 439/2/3 438/2/3 437/2/3
f 440/2/3 438/2/3 439/2/3
f 443/1/3 442/1/3 441/1/3
f 444/1/3 442/1/3 443/1/3
f 447/1/3 446/1/3 445/1/3
f 448/1/3 446/1/3 447/1/3
f 451/1/3 450/1/3 449/1/3
f 452/1/3 450/1/3 451/1/3
f 455/2/3 454/2/3 453/2/3
f 456/2/3 454/2/3 455/2/3
f 459/1/3 458/1/3 457/1/3
f 460/1/3 458/1/3 459/1/3
f 463/1/3 462/1/3 461/1/3
f 464/1/3 462/1/3 463/1/3
f 467/1/3 466/1/3 465/1/3
f 468/1/3 466/1/3 467/1/3
f 471/1/3 470/1/3 469/1/3
f 472/1/3 470/1/3 471/1/3
f 475/1/3 474/1/3 473/1/3
f 476/1/3 474/1/3 475/1/3
f 479/2/3 478/2/3 477/2/3
f 480/2/3 478/2/3 479/2/3
f 483/1/3 482/1/3 481/1/3
f 484/1/3 482/1/3 483/1/3
f 487/1/3 486/1/3 485/1/3
f 488/1/3 486/1/3 487/1/3
f 491/1/3 490/1/3 489/1/3
f 492/1/3 490/1/3 491/1/3
f 495/1/3 494/1/3 493/1/3
f 496/1/3 494/1/3 495/1/3
f 499/1/3 498/1/3 497/1/3
f 500/1/3 498/1/3 499/1/3
f 503/1/3 502/1/3 501/1/3
f 504/1/3 502/1/3 503/1/3
f 507/1/3 506/1/3 505/1/3
f 508/1/3 506/1/3 507/1/3
f 511/1/3 510/1/3 509/1/3
f 512/1/3 510/1/3 511/1/3
f 515/1/3 514/1/3 513/1/3
f 516/1/3 514/1/3 515/1/3
f 519/1/3 518/1/3 517/1/3
f 520/1/3 518/1/3 519/1/3
f 523/1/3 522/1/3 521/1/3
f 524/1/3 522/1/3 523/1/3
f 527/1/3 526/1/3 525/1/3
f 528/1/3 526/1/3 527/1/3
f 531/1/3 530/1/3 529/1/3
f 532/1/3 530/1/3 531/1/3
f 535/1/3 534/1/3 533/1/3
f 536/1/3 534/1/3 535/1/3
f 539/1/3 538/1/3 537/1/3
f 540/1/3 538/1/3 539/1/3
f 543/2/3 542/2/3 541/2/3
f 544/2/3 542/2/3 543/2/3
f 547/2/3 546/2/3 545/2/3
f 548/2/3 546/2/3 547/2/3
f 551/1/3 550/1/3 549/1/3
f 552/1/3 550/1/3 551/1/3
f 555/1/3 554/1/3 553/1/3
f 556/1/3 554/1/3 555/1/3
f 559/1/3 558/1/3 557/1/3
f 560/1/3 558/1/3 559/1/3
f 563/2/3 562/2/3 561/2/3
f 564/2/3 562/2/3 563/2/3
f 567/2/3 566/2/3 565/2/3
f 568/2/3 566/2/3 567/2/3
f 571/1/3 570/1/3 569/1/3
f 572/1/3 570/1/3 571/1/3
f 575/1/3 574/1/3 573/1/3
f 576/1/3 574/1/3 575/1/3
f 579/2/3 578/2/3 577/2/3
f 580/2/3 578/2/3 579/2/3
f 583/2/3 582/2/3 581/2/3
f 584/2/3 582/2/3 583/2/3
f 587/1/3 586/1/3 585/1/3
f 588/1/3 586/1/3 587/1/3
f 591/1/3 590/1/3 589/1/3
f 592/1/3 590/1/3 591/1/3
f 595/1/3 594/1/3 593/1/3
f 596/1/3 594/1/3 595/1/3
f 599/1/3 598/1/3 597/1/3
f 600/1/3 598/1/3 599/1/3
f 603/2/3 602/2/3 601/2/3
f 604/2/3 602/2/3 603/2/3
f 607/2/3 606/2/3 605/2/3
f 608/2/3 606/2/3 607/2/3
f 611/2/3 610/2/3 609/2/3
f 612/2/3 610/2/3 611/2/3
f 615/2/3 614/2/3 613/2/3
f 616/2/3 614/2/3 615/2/3
f 619/2/3 618/2/3 617/2/3
f 620/2/3 618/2/3 619/2/3
f 623/2/3 622/2/3 621/2/3
f 624/2/3 622/2/3 623/2/3
f 625/2/4 626/2/4 627/2/4
f 627/2/4 626/2/4 628/2/4
f 629/2/4 630/2/4 631/2/4
f 631/2/4 630/2/4 632/2/4
f 633/2/4 634/2/4 635/2/4
f 635/2/4 634/2/4 636/2/4
f 637/2/4 638/2/4 639/2/4
f 639/2/4 638/2/4 640/2/4
f 641/2/4 642/2/4 643/2/4
f 643/2/4 642/2/4 644/2/4
f 645/2/4 646/2/4 647/2/4
f 647/2/4 646/2/4 648/2/4
f 649/1/4 650/1/4 651/1/4
f 651/1/4 650/1/4 652/1/4
f 653/1/4 654/1/4 655/1/4
f 655/1/4 654/1/4 656/1/4
f 657/1/4 658/1/4 659/1/4
f 659/1/4 658/1/4 660/1/4
f 661/1/4 662/1/4 663/1/4
f 663/1/4 662/1/4 664/1/4
f 665/2/4 666/2/4 667/2/4
f 667/2/4 666/2/4 668/2/4
f 669/2/4 670/2/4 671/2/4
f 671/2/4 670/2/4 672/2/4
f 673/1/4 674/1/4 675/1/4
f 675/1/4 674/1/4 676/1/4
f 677/1/4 678/1/4 679/1/4
f 679/1/4 678/1/4 680/1/4
f 681/2/4 682/2/4 683/2/4
f 683/2/4 682/2/4 684/2/4
f 685/2/4 686/2/4 687/2/4
f 687/2/4 686/2/4 688/2/4
f 689/1/4 690/1/4 691/1/4
f 691/1/4 690/1/4 692/1/4
f 693/1/4 694/1/4 695/1/4
f 695/1/4 694/1/4 696/1/4
f 697/1/4 698/1/4 699/1/4
f 699/1/4 698/1/4 700/1/4
f 701/2/4 702/2/4 703/2/4
f 703/2/4 702/2/4 704/2/4
f 705/2/4 706/2/4 707/2/4
f 707/2/4 706/2/4 708/2/4
f 709/1/4 710/1/4 711/1/4
f 711/1/4 710/1/4 712/1/4
f 713/1/4 714/1/4 715/1/4
f 715/1/4 714/1/4 716/1/4
f 717/1/4 718/1/4 719/1/4
f 719/1/4 718/1/4 720/1/4
f 721/1/4 722/1/4 723/1/4
f 723/1/4 722/1/4 724/1/4
f 725/1/4 726/1/4 727/1/4
f 727/1/4 726/1/4 728/1/4
f 729/1/4 730/1/4 731/1/4
f 731/1/4 730/1/4 732/1/4
f 733/1/4 734/1/4 735/1/4
f 735/1/4 734/1/4 736/1/4
f 737/1/4 738/1/4 739/1/4
f 739/1/4 738/1/4 740/1/4
f 741/1/4 742/1/4 743/1/4
f 743/1/4 742/1/4 744/1/4
f 745/1/4 746/1/4 747/1/4
f 747/1/4 746/1/4 748/1/4
f 749/1/4 750/1/4 751/1/4
f 751/1/4 750/1/4 752/1/4
f 753/1/4 754/1/4 755/1/4
f 755/1/4 754/1/4 756/1/4
f 757/1/4 758/1/4 759/1/4
f 759/1/4 758/1/4 760/1/4
f 761/1/4 762/1/4 763/1/4
f 763/1/4 762/1/4 764/1/4
f 765/1/4 766/1/4 767/1/4
f 767/1/4 766/1/4 768/1/4
f 769/2/4 770/2/4 771/2/4
f 771/2/4 770/2/4 772/2/4
f 773/1/4 774/1/4 775/1/4
f 775/1/4 774/1/4 776/1/4
f 777/1/4 778/1/4 779/1/4
f 779/1/4 778/1/4 780/1/4
f 781/1/4 782/1/4 783/1/4
f 783/1/4 782/1/4 784/1/4
f 785/1/4 786/1/4 787/1/4
f 787/1/4 786/1/4 788/1/4
f 789/1/4 790/1/4 791/1/4
f 791/1/4 790/1/4 792/1/4
f 793/2/4 794/2/4 795/2/4
f 795/2/4 794/2/4 796/2/4
f 797/1/4 798/1/4 799/1/4
f 799/1/4 798/1/4 800/1/4
f 801/1/4 802/1/4 803/1/4
f 803/1/4 802/1/4 804/1/4
f 805/1/4 806/1/4 807/1/4
f 807/1/4 806/1/4 808/1/4
f 809/2/4 810/2/4 811/2/4
f 811/2/4 810/2/4 812/2/4
f 813/1/4 814/1/4 815/1/4
f 815/1/4 814/1/4 816/1/4
f 817/2/4 818/2/4 819/2/4
f 819/2/4 818/2/4 820/2/4
f 821/2/4 822/2/4 823/2/4
f 823/2/4 822/2/4 824/2/4
f 825/2/4 826/2/4 827/2/4
f 827/2/4 826/2/4 828/2/4
f 829/2/4 830/2/4 831/2/4
f 831/2/4 830/2/4 832/2/4
f 836/2/5 834/2/5 833/2/5
f 837/2/5 834/2/5 836/2/5
f 840/2/5 836/2/5 835/2/5
f 840/2/5 838/2/5 837/2/5
f 840/2/5 837/2/5 836/2/5
f 841/2/5 838/2/5 840/2/5
f 844/2/5 840/2/5 839/2/5
f 844/2/5 842/2/5 841/2/5
f 844/2/5 841/2/5 840/2/5
f 845/2/5 842/2/5 844/2/5
f 847/2/5 844/2/5 843/2/5
f 847/2/5 846/2/5 845/2/5
f 847/2/5 845/2/5 844/2/5
f 848/2/5 846/2/5 847/2/5
f 849/2/5 846/2/5 848/2/5
f 850/2/5 846/2/5 849/2/5
f 851/2/5 849/2/5 848/2/5
f 852/2/5 849/2/5 851/2/5
f 853/2/5 849/2/5 852/2/5
f 854/2/5 849/2/5 853/2/5
f 855/2/5 853/2/5 852/2/5
f 856/2/5 853/2/5 855/2/5
f 857/2/5 853/2/5 856/2/5
f 858/2/5 853/2/5 857/2/5
f 859/2/5 857/2/5 856/2/5
f 860/2/5 857/2/5 859/2/5
f 866/2/5 862/2/5 861/2/5
f 867/2/5 862/2/5 866/2/5
f 868/2/5 864/2/5 863/2/5
f 869/2/5 864/2/5 868/2/5
f 872/2/5 866/2/5 865/2/5
f 873/2/5 866/2/5 872/2/5
f 874/2/5 870/2/5 869/2/5
f 875/2/5 870/2/5 874/2/5
f 877/2/5 872/2/5 871/2/5
f 878/2/5 872/2/5 877/2/5
f 879/2/5 876/2/5 875/2/5
f 880/2/5 876/2/5 879/2/5
f 885/2/5 882/2/5 881/2/5
f 886/2/5 882/2/5 885/2/5
f 889/2/5 884/2/5 883/2/5
f 890/2/5 884/2/5 889/2/5
f 891/2/5 887/2/5 886/2/5
f 892/2/5 887/2/5 891/2/5
f 895/2/5 889/2/5 888/2/5
f 896/2/5 889/2/5 895/2/5
f 897/2/5 893/2/5 892/2/5
f 898/2/5 893/2/5 897/2/5
f 899/2/5 895/2/5 894/2/5
f 900/2/5 895/2/5 899/2/5
f 901/2/6 902/2/6 906/2/6
f 906/2/6 902/2/6 907/2/6
f 903/2/6 904/2/6 908/2/6
f 908/2/6 904/2/6 909/2/6
f 905/2/6 906/2/6 912/2/6
f 912/2/6 906/2/6 913/2/6
f 909/2/6 910/2/6 914/2/6
f 914/2/6 910/2/6 915/2/6
f 911/2/6 912/2/6 917/2/6
f 917/2/6 912/2/6 918/2/6
f 915/2/6 916/2/6 919/2/6
f 919/2/6 916/2/6 920/2/6
f 921/2/6 922/2/6 925/2/6
f 925/2/6 922/2/6 926/2/6
f 923/2/6 924/2/6 929/2/6
f 929/2/6 924/2/6 930/2/6
f 926/2/6 927/2/6 931/2/6
f 931/2/6 927/2/6 932/2/6
f 928/2/6 929/2/6 935/2/6
f 935/2/6 929/2/6 936/2/6
f 932/2/6 933/2/6 937/2/6
f 937/2/6 933/2/6 938/2/6
f 934/2/6 935/2/6 939/2/6
f 939/2/6 935/2/6 940/2/6
f 941/2/6 942/2/6 944/2/6
f 944/2/6 942/2/6 945/2/6
f 943/2/6 944/2/6 948/2/6
f 945/2/6 946/2/6 948/2/6
f 944/2/6 945/2/6 948/2/6
f 948/2/6 946/2/6 949/2/6
f 949/2/6 946/2/6 950/2/6
f 950/2/6 946/2/6 951/2/6
f 947/2/6 948/2/6 953/2/6
f 948/2/6 949/2/6 953/2/6
f 953/2/6 949/2/6 954/2/6
f 951/2/6 952/2/6 955/2/6
f 950/2/6 951/2/6 955/2/6
f 955/2/6 952/2/6 956/2/6
f 947/2/6 953/2/6 958/2/6
f 958/2/6 953/2/6 959/2/6
f 959/2/6 953/2/6 960/2/6
f 956/2/6 952/2/6 961/2/6
f 961/2/6 952/2/6 962/2/6
f 962/2/6 952/2/6 963/2/6
f 957/2/6 958/2/6 965/2/6
f 958/2/6 959/2/6 965/2/6
f 965/2/6 959/2/6 966/2/6
f 963/2/6 964/2/6 967/2/6
f 962/2/6 963/2/6 967/2/6
f 967/2/6 964/2/6 968/2/6
f 957/2/6 965/2/6 969/2/6
f 968/2/6 964/2/6 972/2/6
f 969/2/6 970/2/6 973/2/6
f 957/2/6 969/2/6 973/2/6
f 973/2/6 970/2/6 974/2/6
f 974/2/6 970/2/6 975/2/6
f 971/2/6 972/2/6 978/2/6
f 972/2/6 964/2/6 979/2/6
f 978/2/6 972/2/6 979/2/6
f 979/2/6 964/2/6 980/2/6
f 975/2/6 976/2/6 981/2/6
f 974/2/6 975/2/6 981/2/6
f 977/2/6 978/2/6 984/2/6
f 978/2/6 979/2/6 984/2/6
f 981/2/6 982/2/6 985/2/6
f 974/2/6 981/2/6 985/2/6
f 985/2/6 982/2/6 986/2/6
f 986/2/6 982/2/6 987/2/6
f 983/2/6 984/2/6 988/2/6
f 984/2/6 979/2/6 989/2/6
f 988/2/6 984/2/6 989/2/6
f 989/2/6 979/2/6 990/2/6
f 986/2/6 987/2/6 991/2/6
f 987/2/6 988/2/6 991/2/6
f 988/2/6 989/2/6 991/2/6
f 991/2/6 989/2/6 992/2/6
f 992/2/6 989/2/6 993/2/6
f 993/2/6 989/2/6 994/2/6
f 992/2/6 993/2/6 995/2/6
f 995/2/6 993/2/6 996/2/6
f 997/1/6 998/1/6 1000/1/6
f 1000/1/6 998/1/6 1001/1/6
f 1001/1/6 998/1/6 1002/1/6
f 1002/1/6 998/1/6 1003/1/6
f 999/1/6 1000/1/6 1006/1/6
f 1000/1/6 1001/1/6 1006/1/6
f 1006/1/6 1001/1/6 1007/1/6
f 1007/1/6 1001/1/6 1008/1/6
f 1002/1/6 1003/1/6 1009/1/6
f 1003/1/6 1004/1/6 1009/1/6
f 1009/1/6 1004/1/6 1010/1/6
f 1010/1/6 1004/1/6 1011/1/6
f 1006/1/6 1007/1/6 1013/1/6
f 1005/1/6 1006/1/6 1013/1/6
f 1013/1/6 1007/1/6 1014/1/6
f 1011/1/6 1012/1/6 1015/1/6
f 1010/1/6 1011/1/6 1015/1/6
f 1015/1/6 1012/1/6 1016/1/6
f 1005/1/6 1013/1/6 1018/1/6
f 1018/1/6 1013/1/6 1019/1/6
f 1019/1/6 1013/1/6 1020/1/6
f 1016/1/6 1012/1/6 1021/1/6
f 1021/1/6 1012/1/6 1022/1/6
f 1022/1/6 1012/1/6 1023/1/6
f 1017/1/6 1018/1/6 1025/1/6
f 1018/1/6 1019/1/6 1025/1/6
f 1025/1/6 1019/1/6 1026/1/6
f 1023/1/6 1024/1/6 1027/1/6
f 1022/1/6 1023/1/6 1027/1/6
f 1027/1/6 1024/1/6 1028/1/6
f 1017/1/6 1025/1/6 1029/1/6
f 1029/1/6 1025/1/6 1030/1/6
f 1028/1/6 1024/1/6 1031/1/6
f 1031/1/6 1024/1/6 1032/1/6
f 1017/1/6 1029/1/6 1033/1/6
f 1032/1/6 1024/1/6 1036/1/6
f 1033/1/6 1034/1/6 1037/1/6
f 1035/1/6 1036/1/6 1040/1/6
f 1037/1/6 1038/1/6 1041/1/6
f 1017/1/6 1033/1/6 1041/1/6
f 1033/1/6 1037/1/6 1041/1/6
f 1041/1/6 1038/1/6 1042/1/6
f 1042/1/6 1038/1/6 1043/1/6
f 1039/1/6 1040/1/6 1046/1/6
f 1040/1/6 1036/1/6 1047/1/6
f 1036/1/6 1024/1/6 1047/1/6
f 1046/1/6 1040/1/6 1047/1/6
f 1047/1/6 1024/1/6 1048/1/6
f 1043/1/6 1044/1/6 1049/1/6
f 1042/1/6 1043/1/6 1049/1/6
f 1045/1/6 1046/1/6 1052/1/6
f 1046/1/6 1047/1/6 1052/1/6
f 1049/1/6 1050/1/6 1053/1/6
f 1042/1/6 1049/1/6 1053/1/6
f 1053/1/6 1050/1/6 1054/1/6
f 1054/1/6 1050/1/6 1055/1/6
f 1051/1/6 1052/1/6 1058/1/6
f 1052/1/6 1047/1/6 1059/1/6
f 1058/1/6 1052/1/6 1059/1/6
f 1059/1/6 1047/1/6 1060/1/6
f 1055/1/6 1056/1/6 1061/1/6
f 1054/1/6 1055/1/6 1061/1/6
f 1061/1/6 1056/1/6 1062/1/6
f 1062/1/6 1056/1/6 1063/1/6
f 1057/1/6 1058/1/6 1064/1/6
f 1058/1/6 1059/1/6 1064/1/6
f 1064/1/6 1059/1/6 1065/1/6
f 1065/1/6 1059/1/6 1066/1/6
f 1062/1/6 1063/1/6 1067/1/6
f 1064/1/6 1065/1/6 1067/1/6
f 1063/1/6 1064/1/6 1067/1/6
f 1067/1/6 1065/1/6 1068/1/6
f 1069/1/6 1070/1/6 1072/1/6
f 1072/1/6 1070/1/6 1073/1/6
f 1073/1/6 1070/1/6 1074/1/6
f 1074/1/6 1070/1/6 1075/1/6
f 1071/1/6 1072/1/6 1078/1/6
f 1072/1/6 1073/1/6 1078/1/6
f 1078/1/6 1073/1/6 1079/1/6
f 1079/1/6 1073/1/6 1080/1/6
f 1074/1/6 1075/1/6 1081/1/6
f 1075/1/6 1076/1/6 1081/1/6
f 1081/1/6 1076/1/6 1082/1/6
f 1082/1/6 1076/1/6 1083/1/6
f 1078/1/6 1079/1/6 1086/1/6
f 1077/1/6 1078/1/6 1086/1/6
f 1086/1/6 1079/1/6 1087/1/6
f 1087/1/6 1079/1/6 1088/1/6
f 1083/1/6 1084/1/6 1089/1/6
f 1082/1/6 1083/1/6 1089/1/6
f 1089/1/6 1084/1/6 1090/1/6
f 1090/1/6 1084/1/6 1091/1/6
f 1086/1/6 1087/1/6 1094/1/6
f 1085/1/6 1086/1/6 1094/1/6
f 1094/1/6 1087/1/6 1095/1/6
f 1095/1/6 1087/1/6 1096/1/6
f 1091/1/6 1092/1/6 1097/1/6
f 1090/1/6 1091/1/6 1097/1/6
f 1097/1/6 1092/1/6 1098/1/6
f 1098/1/6 1092/1/6 1099/1/6
f 1094/1/6 1095/1/6 1101/1/6
f 1093/1/6 1094/1/6 1101/1/6
f 1101/1/6 1095/1/6 1102/1/6
f 1099/1/6 1100/1/6 1103/1/6
f 1098/1/6 1099/1/6 1103/1/6
f 1103/1/6 1100/1/6 1104/1/6
f 1093/1/6 1101/1/6 1106/1/6
f 1106/1/6 1101/1/6 1107/1/6
f 1107/1/6 1101/1/6 1108/1/6
f 1104/1/6 1100/1/6 1109/1/6
f 1109/1/6 1100/1/6 1110/1/6
f 1110/1/6 1100/1/6 1111/1/6
f 1105/1/6 1106/1/6 1113/1/6
f 1106/1/6 1107/1/6 1113/1/6
f 1113/1/6 1107/1/6 1114/1/6
f 1111/1/6 1112/1/6 1115/1/6
f 1110/1/6 1111/1/6 1115/1/6
f 1115/1/6 1112/1/6 1116/1/6
f 1105/1/6 1113/1/6 1117/1/6
f 1117/1/6 1113/1/6 1118/1/6
f 1116/1/6 1112/1/6 1119/1/6
f 1119/1/6 1112/1/6 1120/1/6
f 1105/1/6 1117/1/6 1121/1/6
f 1120/1/6 1112/1/6 1124/1/6
f 1121/1/6 1122/1/6 1125/1/6
f 1123/1/6 1124/1/6 1128/1/6
f 1125/1/6 1126/1/6 1129/1/6
f 1105/1/6 1121/1/6 1129/1/6
f 1121/1/6 1125/1/6 1129/1/6
f 1129/1/6 1126/1/6 1130/1/6
f 1130/1/6 1126/1/6 1131/1/6
f 1127/1/6 1128/1/6 1134/1/6
f 1128/1/6 1124/1/6 1135/1/6
f 1124/1/6 1112/1/6 1135/1/6
f 1134/1/6 1128/1/6 1135/1/6
f 1135/1/6 1112/1/6 1136/1/6
f 1131/1/6 1132/1/6 1137/1/6
f 1130/1/6 1131/1/6 1137/1/6
f 1133/1/6 1134/1/6 1140/1/6
f 1134/1/6 1135/1/6 1140/1/6
f 1137/1/6 1138/1/6 1141/1/6
f 1130/1/6 1137/1/6 1141/1/6
f 1141/1/6 1138/1/6 1142/1/6
f 1142/1/6 1138/1/6 1143/1/6
f 1139/1/6 1140/1/6 1146/1/6
f 1140/1/6 1135/1/6 1147/1/6
f 1146/1/6 1140/1/6 1147/1/6
f 1147/1/6 1135/1/6 1148/1/6
f 1143/1/6 1144/1/6 1149/1/6
f 1142/1/6 1143/1/6 1149/1/6
f 1149/1/6 1144/1/6 1150/1/6
f 1150/1/6 1144/1/6 1151/1/6
f 1145/1/6 1146/1/6 1154/1/6
f 1146/1/6 1147/1/6 1154/1/6
f 1154/1/6 1147/1/6 1155/1/6
f 1155/1/6 1147/1/6 1156/1/6
f 1151/1/6 1152/1/6 1157/1/6
f 1150/1/6 1151/1/6 1157/1/6
f 1157/1/6 1152/1/6 1158/1/6
f 1158/1/6 1152/1/6 1159/1/6
f 1154/1/6 1155/1/6 1162/1/6
f 1153/1/6 1154/1/6 1162/1/6
f 1162/1/6 1155/1/6 1163/1/6
f 1163/1/6 1155/1/6 1164/1/6
f 1159/1/6 1160/1/6 1165/1/6
f 1158/1/6 1159/1/6 1165/1/6
f 1165/1/6 1160/1/6 1166/1/6
f 1166/1/6 1160/1/6 1167/1/6
f 1162/1/6 1163/1/6 1168/1/6
f 1161/1/6 1162/1/6 1168/1/6
f 1168/1/6 1163/1/6 1169/1/6
f 1169/1/6 1163/1/6 1170/1/6
f 1166/1/6 1167/1/6 1171/1/6
f 1168/1/6 1169/1/6 1171/1/6
f 1167/1/6 1168/1/6 1171/1/6
f 1171/1/6 1169/1/6 1172/1/6
f 1173/1/6 1174/1/6 1176/1/6
f 1176/1/6 1174/1/6 1177/1/6
f 1175/1/6 1176/1/6 1180/1/6
f 1177/1/6 1178/1/6 1180/1/6
f 1176/1/6 1177/1/6 1180/1/6
f 1180/1/6 1178/1/6 1181/1/6
f 1179/1/6 1180/1/6 1184/1/6
f 1181/1/6 1182/1/6 1184/1/6
f 1180/1/6 1181/1/6 1184/1/6
f 1184/1/6 1182/1/6 1185/1/6
f 1183/1/6 1184/1/6 1188/1/6
f 1185/1/6 1186/1/6 1188/1/6
f 1184/1/6 1185/1/6 1188/1/6
f 1188/1/6 1186/1/6 1189/1/6
f 1187/1/6 1188/1/6 1192/1/6
f 1189/1/6 1190/1/6 1192/1/6
f 1188/1/6 1189/1/6 1192/1/6
f 1192/1/6 1190/1/6 1193/1/6
f 1191/1/6 1192/1/6 1196/1/6
f 1193/1/6 1194/1/6 1196/1/6
f 1192/1/6 1193/1/6 1196/1/6
f 1196/1/6 1194/1/6 1197/1/6
f 1195/1/6 1196/1/6 1200/1/6
f 1197/1/6 1198/1/6 1200/1/6
f 1196/1/6 1197/1/6 1200/1/6
f 1200/1/6 1198/1/6 1201/1/6
f 1199/1/6 1200/1/6 1203/1/6
f 1201/1/6 1202/1/6 1203/1/6
f 1200/1/6 1201/1/6 1203/1/6
f 1203/1/6 1202/1/6 1204/1/6
f 1204/1/6 1202/1/6 1205/1/6
f 1205/1/6 1202/1/6 1206/1/6
f 1204/1/6 1205/1/6 1207/1/6
f 1207/1/6 1205/1/6 1208/1/6
f 1208/1/6 1205/1/6 1209/1/6
f 1209/1/6 1205/1/6 1210/1/6
f 1208/1/6 1209/1/6 1211/1/6
f 1211/1/6 1209/1/6 1212/1/6
f 1212/1/6 1209/1/6 1213/1/6
f 1213/1/6 1209/1/6 1214/1/6
f 1212/1/6 1213/1/6 1215/1/6
f 1215/1/6 1213/1/6 1216/1/6
f 1216/1/6 1213/1/6 1217/1/6
f 1217/1/6 1213/1/6 1218/1/6
f 1216/1/6 1217/1/6 1219/1/6
f 1219/1/6 1217/1/6 1220/1/6
f 1220/1/6 1217/1/6 1221/1/6
f 1221/1/6 1217/1/6 1222/1/6
f 1220/1/6 1221/1/6 1223/1/6
f 1223/1/6 1221/1/6 1224/1/6
f 1224/1/6 1221/1/6 1225/1/6
f 1225/1/6 1221/1/6 1226/1/6
f 1224/1/6 1225/1/6 1227/1/6
f 1227/1/6 1225/1/6 1228/1/6
f 1228/1/6 1225/1/6 1229/1/6
f 1229/1/6 1225/1/6 1230/1/6
f 1228/1/6 1229/1/6 1231/1/6
f 1231/1/6 1229/1/6 1232/1/6
