# MagicaVoxel @ Ephtracy

# group
o 

# material
mtllib Platform.mtl
usemtl palette

# normals
vn -1 0 0
vn 1 0 0
vn 0 0 1
vn 0 0 -1
vn 0 -1 0
vn 0 1 0

# texcoords
vt 0.927734 0.5
vt 0.990234 0.5
vt 0.994141 0.5

# verts
v -2 3.8 1.9
v -2 3.8 -1.9
v -2 4 1.9
v -2 4 -1.9
v -1.9 3.7 1.8
v -1.9 3.7 -1.8
v -1.9 3.8 2
v -1.9 3.8 1.9
v -1.9 3.8 1.8
v -1.9 3.8 -1.8
v -1.9 3.8 -1.9
v -1.9 3.8 -2
v -1.9 4 2
v -1.9 4 1.9
v -1.9 4 -1.9
v -1.9 4 -2
v -1.8 0 1.6
v -1.8 0 -1.6
v -1.8 3.7 1.9
v -1.8 3.7 1.8
v -1.8 3.7 1.6
v -1.8 3.7 -1.6
v -1.8 3.7 -1.8
v -1.8 3.7 -1.9
v -1.8 3.8 1.9
v -1.8 3.8 1.8
v -1.8 3.8 -1.8
v -1.8 3.8 -1.9
v -1.7 0 1.7
v -1.7 0 1.6
v -1.7 0 -1.6
v -1.7 0 -1.7
v -1.7 3.7 1.7
v -1.7 3.7 1.6
v -1.7 3.7 -1.6
v -1.7 3.7 -1.7
v -1.6 0 1.8
v -1.6 0 1.7
v -1.6 0 -1.7
v -1.6 0 -1.8
v -1.6 3.7 1.8
v -1.6 3.7 1.7
v -1.6 3.7 -1.7
v -1.6 3.7 -1.8
v 1.6 0 1.8
v 1.6 0 1.7
v 1.6 0 -1.7
v 1.6 0 -1.8
v 1.6 3.7 1.8
v 1.6 3.7 1.7
v 1.6 3.7 -1.7
v 1.6 3.7 -1.8
v 1.7 0 1.7
v 1.7 0 1.6
v 1.7 0 -1.6
v 1.7 0 -1.7
v 1.7 3.7 1.7
v 1.7 3.7 1.6
v 1.7 3.7 -1.6
v 1.7 3.7 -1.7
v 1.8 0 1.6
v 1.8 0 -1.6
v 1.8 3.7 1.9
v 1.8 3.7 1.8
v 1.8 3.7 1.6
v 1.8 3.7 -1.6
v 1.8 3.7 -1.8
v 1.8 3.7 -1.9
v 1.8 3.8 1.9
v 1.8 3.8 1.8
v 1.8 3.8 -1.8
v 1.8 3.8 -1.9
v 1.9 3.7 1.8
v 1.9 3.7 -1.8
v 1.9 3.8 2
v 1.9 3.8 1.9
v 1.9 3.8 1.8
v 1.9 3.8 -1.8
v 1.9 3.8 -1.9
v 1.9 3.8 -2
v 1.9 4 2
v 1.9 4 1.9
v 1.9 4 -1.9
v 1.9 4 -2
v 2 3.8 1.9
v 2 3.8 -1.9
v 2 4 1.9
v 2 4 -1.9
v -1.9 3.8 2
v -1.9 4 2
v 1.9 3.8 2
v 1.9 4 2
v -2 3.8 1.9
v -2 4 1.9
v -1.9 3.8 1.9
v -1.9 4 1.9
v -1.8 3.7 1.9
v -1.8 3.8 1.9
v 1.8 3.7 1.9
v 1.8 3.8 1.9
v 1.9 3.8 1.9
v 1.9 4 1.9
v 2 3.8 1.9
v 2 4 1.9
v -1.9 3.7 1.8
v -1.9 3.8 1.8
v -1.8 3.7 1.8
v -1.8 3.8 1.8
v -1.6 0 1.8
v -1.6 3.7 1.8
v 1.6 0 1.8
v 1.6 3.7 1.8
v 1.8 3.7 1.8
v 1.8 3.8 1.8
v 1.9 3.7 1.8
v 1.9 3.8 1.8
v -1.7 0 1.7
v -1.7 3.7 1.7
v -1.6 0 1.7
v -1.6 3.7 1.7
v 1.6 0 1.7
v 1.6 3.7 1.7
v 1.7 0 1.7
v 1.7 3.7 1.7
v -1.8 0 1.6
v -1.8 3.7 1.6
v -1.7 0 1.6
v -1.7 3.7 1.6
v 1.7 0 1.6
v 1.7 3.7 1.6
v 1.8 0 1.6
v 1.8 3.7 1.6
v -1.8 0 -1.6
v -1.8 3.7 -1.6
v -1.7 0 -1.6
v -1.7 3.7 -1.6
v 1.7 0 -1.6
v 1.7 3.7 -1.6
v 1.8 0 -1.6
v 1.8 3.7 -1.6
v -1.7 0 -1.7
v -1.7 3.7 -1.7
v -1.6 0 -1.7
v -1.6 3.7 -1.7
v 1.6 0 -1.7
v 1.6 3.7 -1.7
v 1.7 0 -1.7
v 1.7 3.7 -1.7
v -1.9 3.7 -1.8
v -1.9 3.8 -1.8
v -1.8 3.7 -1.8
v -1.8 3.8 -1.8
v -1.6 0 -1.8
v -1.6 3.7 -1.8
v 1.6 0 -1.8
v 1.6 3.7 -1.8
v 1.8 3.7 -1.8
v 1.8 3.8 -1.8
v 1.9 3.7 -1.8
v 1.9 3.8 -1.8
v -2 3.8 -1.9
v -2 4 -1.9
v -1.9 3.8 -1.9
v -1.9 4 -1.9
v -1.8 3.7 -1.9
v -1.8 3.8 -1.9
v 1.8 3.7 -1.9
v 1.8 3.8 -1.9
v 1.9 3.8 -1.9
v 1.9 4 -1.9
v 2 3.8 -1.9
v 2 4 -1.9
v -1.9 3.8 -2
v -1.9 4 -2
v 1.9 3.8 -2
v 1.9 4 -2
v -1.6 0 1.8
v 1.6 0 1.8
v -1.7 0 1.7
v -1.6 0 1.7
v 1.6 0 1.7
v 1.7 0 1.7
v -1.8 0 1.6
v -1.7 0 1.6
v -1.5 0 1.6
v 1.6 0 1.6
v 1.7 0 1.6
v 1.8 0 1.6
v -1.8 0 -1.6
v -1.7 0 -1.6
v -1.5 0 -1.6
v 1.6 0 -1.6
v 1.7 0 -1.6
v 1.8 0 -1.6
v -1.7 0 -1.7
v -1.6 0 -1.7
v 1.6 0 -1.7
v 1.7 0 -1.7
v -1.6 0 -1.8
v 1.6 0 -1.8
v -1.8 3.7 1.9
v 1.8 3.7 1.9
v -1.9 3.7 1.8
v -1.8 3.7 1.8
v -1.6 3.7 1.8
v 1.6 3.7 1.8
v 1.8 3.7 1.8
v 1.9 3.7 1.8
v -1.7 3.7 1.7
v -1.6 3.7 1.7
v 1.6 3.7 1.7
v 1.7 3.7 1.7
v -1.8 3.7 1.6
v -1.7 3.7 1.6
v 1.7 3.7 1.6
v 1.8 3.7 1.6
v -1.8 3.7 -1.6
v -1.7 3.7 -1.6
v 1.7 3.7 -1.6
v 1.8 3.7 -1.6
v -1.7 3.7 -1.7
v -1.6 3.7 -1.7
v 1.6 3.7 -1.7
v 1.7 3.7 -1.7
v -1.9 3.7 -1.8
v -1.8 3.7 -1.8
v -1.6 3.7 -1.8
v 1.6 3.7 -1.8
v 1.8 3.7 -1.8
v 1.9 3.7 -1.8
v -1.8 3.7 -1.9
v 1.8 3.7 -1.9
v -1.9 3.8 2
v 1.9 3.8 2
v -2 3.8 1.9
v -1.9 3.8 1.9
v -1.8 3.8 1.9
v 1.8 3.8 1.9
v 1.9 3.8 1.9
v 2 3.8 1.9
v -1.9 3.8 1.8
v -1.8 3.8 1.8
v 1.8 3.8 1.8
v 1.9 3.8 1.8
v -1.9 3.8 -1.8
v -1.8 3.8 -1.8
v 1.8 3.8 -1.8
v 1.9 3.8 -1.8
v -2 3.8 -1.9
v -1.9 3.8 -1.9
v -1.8 3.8 -1.9
v 1.8 3.8 -1.9
v 1.9 3.8 -1.9
v 2 3.8 -1.9
v -1.9 3.8 -2
v 1.9 3.8 -2
v -1.9 4 2
v 1.9 4 2
v -2 4 1.9
v -1.9 4 1.9
v 1.9 4 1.9
v 2 4 1.9
v -2 4 -1.9
v -1.9 4 -1.9
v 1.9 4 -1.9
v 2 4 -1.9
v -1.9 4 -2
v 1.9 4 -2

# faces
f 3/1/1 2/1/1 1/1/1
f 4/1/1 2/1/1 3/1/1
f 9/1/1 6/1/1 5/1/1
f 10/1/1 6/1/1 9/1/1
f 13/1/1 8/1/1 7/1/1
f 14/1/1 8/1/1 13/1/1
f 15/1/1 12/1/1 11/1/1
f 16/1/1 12/1/1 15/1/1
f 21/2/1 18/2/1 17/2/1
f 22/2/1 18/2/1 21/2/1
f 25/1/1 20/1/1 19/1/1
f 26/1/1 20/1/1 25/1/1
f 27/1/1 24/1/1 23/1/1
f 28/1/1 24/1/1 27/1/1
f 33/2/1 30/2/1 29/2/1
f 34/2/1 30/2/1 33/2/1
f 35/2/1 32/2/1 31/2/1
f 36/2/1 32/2/1 35/2/1
f 41/2/1 38/2/1 37/2/1
f 42/2/1 38/2/1 41/2/1
f 43/2/1 40/2/1 39/2/1
f 44/2/1 40/2/1 43/2/1
f 45/2/2 46/2/2 49/2/2
f 49/2/2 46/2/2 50/2/2
f 47/2/2 48/2/2 51/2/2
f 51/2/2 48/2/2 52/2/2
f 53/2/2 54/2/2 57/2/2
f 57/2/2 54/2/2 58/2/2
f 55/2/2 56/2/2 59/2/2
f 59/2/2 56/2/2 60/2/2
f 61/2/2 62/2/2 65/2/2
f 65/2/2 62/2/2 66/2/2
f 63/1/2 64/1/2 69/1/2
f 69/1/2 64/1/2 70/1/2
f 67/1/2 68/1/2 71/1/2
f 71/1/2 68/1/2 72/1/2
f 73/1/2 74/1/2 77/1/2
f 77/1/2 74/1/2 78/1/2
f 75/1/2 76/1/2 81/1/2
f 81/1/2 76/1/2 82/1/2
f 79/1/2 80/1/2 83/1/2
f 83/1/2 80/1/2 84/1/2
f 85/1/2 86/1/2 87/1/2
f 87/1/2 86/1/2 88/1/2
f 91/1/3 90/1/3 89/1/3
f 92/1/3 90/1/3 91/1/3
f 95/1/3 94/1/3 93/1/3
f 96/1/3 94/1/3 95/1/3
f 99/1/3 98/1/3 97/1/3
f 100/1/3 98/1/3 99/1/3
f 103/1/3 102/1/3 101/1/3
f 104/1/3 102/1/3 103/1/3
f 107/1/3 106/1/3 105/1/3
f 108/1/3 106/1/3 107/1/3
f 111/2/3 110/2/3 109/2/3
f 112/2/3 110/2/3 111/2/3
f 115/1/3 114/1/3 113/1/3
f 116/1/3 114/1/3 115/1/3
f 119/2/3 118/2/3 117/2/3
f 120/2/3 118/2/3 119/2/3
f 123/2/3 122/2/3 121/2/3
f 124/2/3 122/2/3 123/2/3
f 127/2/3 126/2/3 125/2/3
f 128/2/3 126/2/3 127/2/3
f 131/2/3 130/2/3 129/2/3
f 132/2/3 130/2/3 131/2/3
f 133/2/4 134/2/4 135/2/4
f 135/2/4 134/2/4 136/2/4
f 137/2/4 138/2/4 139/2/4
f 139/2/4 138/2/4 140/2/4
f 141/2/4 142/2/4 143/2/4
f 143/2/4 142/2/4 144/2/4
f 145/2/4 146/2/4 147/2/4
f 147/2/4 146/2/4 148/2/4
f 149/1/4 150/1/4 151/1/4
f 151/1/4 150/1/4 152/1/4
f 153/2/4 154/2/4 155/2/4
f 155/2/4 154/2/4 156/2/4
f 157/1/4 158/1/4 159/1/4
f 159/1/4 158/1/4 160/1/4
f 161/1/4 162/1/4 163/1/4
f 163/1/4 162/1/4 164/1/4
f 165/1/4 166/1/4 167/1/4
f 167/1/4 166/1/4 168/1/4
f 169/1/4 170/1/4 171/1/4
f 171/1/4 170/1/4 172/1/4
f 173/1/4 174/1/4 175/1/4
f 175/1/4 174/1/4 176/1/4
f 180/2/5 178/2/5 177/2/5
f 181/2/5 178/2/5 180/2/5
f 184/2/5 180/2/5 179/2/5
f 184/2/5 182/2/5 181/2/5
f 184/2/5 181/2/5 180/2/5
f 185/2/5 182/2/5 184/2/5
f 186/2/5 182/2/5 185/2/5
f 187/2/5 182/2/5 186/2/5
f 189/2/5 184/2/5 183/2/5
f 189/2/5 185/2/5 184/2/5
f 190/2/5 185/2/5 189/2/5
f 191/3/5 186/3/5 185/3/5
f 191/2/5 185/2/5 190/2/5
f 192/2/5 188/2/5 187/2/5
f 192/3/5 186/3/5 191/3/5
f 192/2/5 187/2/5 186/2/5
f 193/2/5 188/2/5 192/2/5
f 194/2/5 188/2/5 193/2/5
f 195/2/5 191/2/5 190/2/5
f 195/2/5 193/2/5 192/2/5
f 195/2/5 192/2/5 191/2/5
f 196/2/5 193/2/5 195/2/5
f 197/2/5 193/2/5 196/2/5
f 198/2/5 193/2/5 197/2/5
f 199/2/5 197/2/5 196/2/5
f 200/2/5 197/2/5 199/2/5
f 204/1/5 202/1/5 201/1/5
f 205/1/5 202/1/5 204/1/5
f 206/1/5 202/1/5 205/1/5
f 207/1/5 202/1/5 206/1/5
f 209/1/5 204/1/5 203/1/5
f 209/1/5 205/1/5 204/1/5
f 210/1/5 205/1/5 209/1/5
f 211/1/5 208/1/5 207/1/5
f 211/1/5 207/1/5 206/1/5
f 212/1/5 208/1/5 211/1/5
f 213/1/5 209/1/5 203/1/5
f 214/1/5 209/1/5 213/1/5
f 215/1/5 208/1/5 212/1/5
f 216/1/5 208/1/5 215/1/5
f 217/1/5 213/1/5 203/1/5
f 220/1/5 208/1/5 216/1/5
f 221/1/5 218/1/5 217/1/5
f 224/1/5 220/1/5 219/1/5
f 225/1/5 222/1/5 221/1/5
f 225/1/5 217/1/5 203/1/5
f 225/1/5 221/1/5 217/1/5
f 226/1/5 222/1/5 225/1/5
f 227/1/5 222/1/5 226/1/5
f 228/1/5 224/1/5 223/1/5
f 229/1/5 220/1/5 224/1/5
f 229/1/5 208/1/5 220/1/5
f 229/1/5 224/1/5 228/1/5
f 230/1/5 208/1/5 229/1/5
f 231/1/5 227/1/5 226/1/5
f 231/1/5 228/1/5 227/1/5
f 231/1/5 229/1/5 228/1/5
f 232/1/5 229/1/5 231/1/5
f 236/1/5 234/1/5 233/1/5
f 237/1/5 234/1/5 236/1/5
f 238/1/5 234/1/5 237/1/5
f 239/1/5 234/1/5 238/1/5
f 241/1/5 236/1/5 235/1/5
f 241/1/5 237/1/5 236/1/5
f 242/1/5 237/1/5 241/1/5
f 243/1/5 240/1/5 239/1/5
f 243/1/5 239/1/5 238/1/5
f 244/1/5 240/1/5 243/1/5
f 245/1/5 241/1/5 235/1/5
f 248/1/5 240/1/5 244/1/5
f 249/1/5 246/1/5 245/1/5
f 249/1/5 245/1/5 235/1/5
f 250/1/5 246/1/5 249/1/5
f 251/1/5 246/1/5 250/1/5
f 252/1/5 248/1/5 247/1/5
f 253/1/5 240/1/5 248/1/5
f 253/1/5 248/1/5 252/1/5
f 254/1/5 240/1/5 253/1/5
f 255/1/5 251/1/5 250/1/5
f 255/1/5 252/1/5 251/1/5
f 255/1/5 253/1/5 252/1/5
f 256/1/5 253/1/5 255/1/5
f 257/1/6 258/1/6 260/1/6
f 260/1/6 258/1/6 261/1/6
f 259/1/6 260/1/6 263/1/6
f 261/1/6 262/1/6 263/1/6
f 260/1/6 261/1/6 263/1/6
f 263/1/6 262/1/6 264/1/6
f 264/1/6 262/1/6 265/1/6
f 265/1/6 262/1/6 266/1/6
f 264/1/6 265/1/6 267/1/6
f 267/1/6 265/1/6 268/1/6
