# MagicaVoxel @ Ephtracy

# group
o 

# material
mtllib PressedOrangButton.mtl
usemtl palette

# normals
vn -1 0 0
vn 1 0 0
vn 0 0 1
vn 0 0 -1
vn 0 -1 0
vn 0 1 0

# texcoords
vt 0.283203 0.5
vt 0.982422 0.5

# verts
v -2 0 1.6
v -2 0 -1.6
v -2 0.3 1.6
v -2 0.3 -1.6
v -1.9 0 1.8
v -1.9 0 1.6
v -1.9 0 -1.6
v -1.9 0 -1.8
v -1.9 0.3 1.8
v -1.9 0.3 1.6
v -1.9 0.3 -1.6
v -1.9 0.3 -1.8
v -1.8 0 1.9
v -1.8 0 1.8
v -1.8 0 -1.8
v -1.8 0 -1.9
v -1.8 0.3 1.9
v -1.8 0.3 1.8
v -1.8 0.3 1.4
v -1.8 0.3 -1.4
v -1.8 0.3 -1.8
v -1.8 0.3 -1.9
v -1.8 0.4 1.4
v -1.8 0.4 -1.4
v -1.7 0.3 1.6
v -1.7 0.3 1.4
v -1.7 0.3 -1.4
v -1.7 0.3 -1.6
v -1.7 0.4 1.6
v -1.7 0.4 1.4
v -1.7 0.4 -1.4
v -1.7 0.4 -1.6
v -1.6 0 2
v -1.6 0 1.9
v -1.6 0 -1.9
v -1.6 0 -2
v -1.6 0.3 2
v -1.6 0.3 1.9
v -1.6 0.3 1.7
v -1.6 0.3 1.6
v -1.6 0.3 -1.6
v -1.6 0.3 -1.7
v -1.6 0.3 -1.9
v -1.6 0.3 -2
v -1.6 0.4 1.7
v -1.6 0.4 1.6
v -1.6 0.4 -1.6
v -1.6 0.4 -1.7
v -1.4 0.3 1.8
v -1.4 0.3 1.7
v -1.4 0.3 -1.7
v -1.4 0.3 -1.8
v -1.4 0.4 1.8
v -1.4 0.4 1.7
v -1.4 0.4 -1.7
v -1.4 0.4 -1.8
v -1.2 0.1 1.1
v -1.2 0.1 1
v -1.2 0.1 -1
v -1.2 0.1 -1.1
v -1.2 0.2 1.1
v -1.2 0.2 1
v -1.2 0.2 -1
v -1.2 0.2 -1.1
v -1.1 0.1 1.2
v -1.1 0.1 1.1
v -1.1 0.1 -1.1
v -1.1 0.1 -1.2
v -1.1 0.2 1.2
v -1.1 0.2 1.1
v -1.1 0.2 -1.1
v -1.1 0.2 -1.2
v -1 0.1 1.3
v -1 0.1 1.2
v -1 0.1 -1.2
v -1 0.1 -1.3
v -1 0.2 1.3
v -1 0.2 1.2
v -1 0.2 -1.2
v -1 0.2 -1.3
v 1.1 0.1 1.3
v 1.1 0.1 1.2
v 1.1 0.1 -1.2
v 1.1 0.1 -1.3
v 1.1 0.2 1.3
v 1.1 0.2 1.2
v 1.1 0.2 -1.2
v 1.1 0.2 -1.3
v 1.2 0.1 1.2
v 1.2 0.1 1.1
v 1.2 0.1 -1.1
v 1.2 0.1 -1.2
v 1.2 0.2 1.2
v 1.2 0.2 1.1
v 1.2 0.2 -1.1
v 1.2 0.2 -1.2
v 1.3 0.1 1.1
v 1.3 0.1 1
v 1.3 0.1 -1
v 1.3 0.1 -1.1
v 1.3 0.2 1.1
v 1.3 0.2 1
v 1.3 0.2 -1
v 1.3 0.2 -1.1
v -1.3 0.1 1.1
v -1.3 0.1 1
v -1.3 0.1 -1
v -1.3 0.1 -1.1
v -1.3 0.2 1.1
v -1.3 0.2 1
v -1.3 0.2 -1
v -1.3 0.2 -1.1
v -1.2 0.1 1.2
v -1.2 0.1 1.1
v -1.2 0.1 -1.1
v -1.2 0.1 -1.2
v -1.2 0.2 1.2
v -1.2 0.2 1.1
v -1.2 0.2 -1.1
v -1.2 0.2 -1.2
v -1.1 0.1 1.3
v -1.1 0.1 1.2
v -1.1 0.1 -1.2
v -1.1 0.1 -1.3
v -1.1 0.2 1.3
v -1.1 0.2 1.2
v -1.1 0.2 -1.2
v -1.1 0.2 -1.3
v 1 0.1 1.3
v 1 0.1 1.2
v 1 0.1 -1.2
v 1 0.1 -1.3
v 1 0.2 1.3
v 1 0.2 1.2
v 1 0.2 -1.2
v 1 0.2 -1.3
v 1.1 0.1 1.2
v 1.1 0.1 1.1
v 1.1 0.1 -1.1
v 1.1 0.1 -1.2
v 1.1 0.2 1.2
v 1.1 0.2 1.1
v 1.1 0.2 -1.1
v 1.1 0.2 -1.2
v 1.2 0.1 1.1
v 1.2 0.1 1
v 1.2 0.1 -1
v 1.2 0.1 -1.1
v 1.2 0.2 1.1
v 1.2 0.2 1
v 1.2 0.2 -1
v 1.2 0.2 -1.1
v 1.4 0.3 1.8
v 1.4 0.3 1.7
v 1.4 0.3 -1.7
v 1.4 0.3 -1.8
v 1.4 0.4 1.8
v 1.4 0.4 1.7
v 1.4 0.4 -1.7
v 1.4 0.4 -1.8
v 1.6 0 2
v 1.6 0 1.9
v 1.6 0 -1.9
v 1.6 0 -2
v 1.6 0.3 2
v 1.6 0.3 1.9
v 1.6 0.3 1.7
v 1.6 0.3 1.6
v 1.6 0.3 -1.6
v 1.6 0.3 -1.7
v 1.6 0.3 -1.9
v 1.6 0.3 -2
v 1.6 0.4 1.7
v 1.6 0.4 1.6
v 1.6 0.4 -1.6
v 1.6 0.4 -1.7
v 1.7 0.3 1.6
v 1.7 0.3 1.4
v 1.7 0.3 -1.4
v 1.7 0.3 -1.6
v 1.7 0.4 1.6
v 1.7 0.4 1.4
v 1.7 0.4 -1.4
v 1.7 0.4 -1.6
v 1.8 0 1.9
v 1.8 0 1.8
v 1.8 0 -1.8
v 1.8 0 -1.9
v 1.8 0.3 1.9
v 1.8 0.3 1.8
v 1.8 0.3 1.4
v 1.8 0.3 -1.4
v 1.8 0.3 -1.8
v 1.8 0.3 -1.9
v 1.8 0.4 1.4
v 1.8 0.4 -1.4
v 1.9 0 1.8
v 1.9 0 1.6
v 1.9 0 -1.6
v 1.9 0 -1.8
v 1.9 0.3 1.8
v 1.9 0.3 1.6
v 1.9 0.3 -1.6
v 1.9 0.3 -1.8
v 2 0 1.6
v 2 0 -1.6
v 2 0.3 1.6
v 2 0.3 -1.6
v -1.6 0 2
v -1.6 0.3 2
v 1.6 0 2
v 1.6 0.3 2
v -1.8 0 1.9
v -1.8 0.3 1.9
v -1.6 0 1.9
v -1.6 0.3 1.9
v 1.6 0 1.9
v 1.6 0.3 1.9
v 1.8 0 1.9
v 1.8 0.3 1.9
v -1.9 0 1.8
v -1.9 0.3 1.8
v -1.8 0 1.8
v -1.8 0.3 1.8
v -1.4 0.3 1.8
v -1.4 0.4 1.8
v 1.4 0.3 1.8
v 1.4 0.4 1.8
v 1.8 0 1.8
v 1.8 0.3 1.8
v 1.9 0 1.8
v 1.9 0.3 1.8
v -1.6 0.3 1.7
v -1.6 0.4 1.7
v -1.4 0.3 1.7
v -1.4 0.4 1.7
v 1.4 0.3 1.7
v 1.4 0.4 1.7
v 1.6 0.3 1.7
v 1.6 0.4 1.7
v -2 0 1.6
v -2 0.3 1.6
v -1.9 0 1.6
v -1.9 0.3 1.6
v -1.7 0.3 1.6
v -1.7 0.4 1.6
v -1.6 0.3 1.6
v -1.6 0.4 1.6
v 1.6 0.3 1.6
v 1.6 0.4 1.6
v 1.7 0.3 1.6
v 1.7 0.4 1.6
v 1.9 0 1.6
v 1.9 0.3 1.6
v 2 0 1.6
v 2 0.3 1.6
v -1.8 0.3 1.4
v -1.8 0.4 1.4
v -1.7 0.3 1.4
v -1.7 0.4 1.4
v 1.7 0.3 1.4
v 1.7 0.4 1.4
v 1.8 0.3 1.4
v 1.8 0.4 1.4
v -1.1 0.1 1.2
v -1.1 0.2 1.2
v -1 0.1 1.2
v -1 0.2 1.2
v 1 0.1 1.2
v 1 0.2 1.2
v 1.1 0.1 1.2
v 1.1 0.2 1.2
v -1.2 0.1 1.1
v -1.2 0.2 1.1
v -1.1 0.1 1.1
v -1.1 0.2 1.1
v 1.1 0.1 1.1
v 1.1 0.2 1.1
v 1.2 0.1 1.1
v 1.2 0.2 1.1
v -1.3 0.1 1
v -1.3 0.2 1
v -1.2 0.1 1
v -1.2 0.2 1
v 1.2 0.1 1
v 1.2 0.2 1
v 1.3 0.1 1
v 1.3 0.2 1
v -1.3 0.1 -1.1
v -1.3 0.2 -1.1
v -1.2 0.1 -1.1
v -1.2 0.2 -1.1
v 1.2 0.1 -1.1
v 1.2 0.2 -1.1
v 1.3 0.1 -1.1
v 1.3 0.2 -1.1
v -1.2 0.1 -1.2
v -1.2 0.2 -1.2
v -1.1 0.1 -1.2
v -1.1 0.2 -1.2
v 1.1 0.1 -1.2
v 1.1 0.2 -1.2
v 1.2 0.1 -1.2
v 1.2 0.2 -1.2
v -1.1 0.1 -1.3
v -1.1 0.2 -1.3
v -1 0.1 -1.3
v -1 0.2 -1.3
v 1 0.1 -1.3
v 1 0.2 -1.3
v 1.1 0.1 -1.3
v 1.1 0.2 -1.3
v -1.1 0.1 1.3
v -1.1 0.2 1.3
v -1 0.1 1.3
v -1 0.2 1.3
v 1 0.1 1.3
v 1 0.2 1.3
v 1.1 0.1 1.3
v 1.1 0.2 1.3
v -1.2 0.1 1.2
v -1.2 0.2 1.2
v -1.1 0.1 1.2
v -1.1 0.2 1.2
v 1.1 0.1 1.2
v 1.1 0.2 1.2
v 1.2 0.1 1.2
v 1.2 0.2 1.2
v -1.3 0.1 1.1
v -1.3 0.2 1.1
v -1.2 0.1 1.1
v -1.2 0.2 1.1
v 1.2 0.1 1.1
v 1.2 0.2 1.1
v 1.3 0.1 1.1
v 1.3 0.2 1.1
v -1.3 0.1 -1
v -1.3 0.2 -1
v -1.2 0.1 -1
v -1.2 0.2 -1
v 1.2 0.1 -1
v 1.2 0.2 -1
v 1.3 0.1 -1
v 1.3 0.2 -1
v -1.2 0.1 -1.1
v -1.2 0.2 -1.1
v -1.1 0.1 -1.1
v -1.1 0.2 -1.1
v 1.1 0.1 -1.1
v 1.1 0.2 -1.1
v 1.2 0.1 -1.1
v 1.2 0.2 -1.1
v -1.1 0.1 -1.2
v -1.1 0.2 -1.2
v -1 0.1 -1.2
v -1 0.2 -1.2
v 1 0.1 -1.2
v 1 0.2 -1.2
v 1.1 0.1 -1.2
v 1.1 0.2 -1.2
v -1.8 0.3 -1.4
v -1.8 0.4 -1.4
v -1.7 0.3 -1.4
v -1.7 0.4 -1.4
v 1.7 0.3 -1.4
v 1.7 0.4 -1.4
v 1.8 0.3 -1.4
v 1.8 0.4 -1.4
v -2 0 -1.6
v -2 0.3 -1.6
v -1.9 0 -1.6
v -1.9 0.3 -1.6
v -1.7 0.3 -1.6
v -1.7 0.4 -1.6
v -1.6 0.3 -1.6
v -1.6 0.4 -1.6
v 1.6 0.3 -1.6
v 1.6 0.4 -1.6
v 1.7 0.3 -1.6
v 1.7 0.4 -1.6
v 1.9 0 -1.6
v 1.9 0.3 -1.6
v 2 0 -1.6
v 2 0.3 -1.6
v -1.6 0.3 -1.7
v -1.6 0.4 -1.7
v -1.4 0.3 -1.7
v -1.4 0.4 -1.7
v 1.4 0.3 -1.7
v 1.4 0.4 -1.7
v 1.6 0.3 -1.7
v 1.6 0.4 -1.7
v -1.9 0 -1.8
v -1.9 0.3 -1.8
v -1.8 0 -1.8
v -1.8 0.3 -1.8
v -1.4 0.3 -1.8
v -1.4 0.4 -1.8
v 1.4 0.3 -1.8
v 1.4 0.4 -1.8
v 1.8 0 -1.8
v 1.8 0.3 -1.8
v 1.9 0 -1.8
v 1.9 0.3 -1.8
v -1.8 0 -1.9
v -1.8 0.3 -1.9
v -1.6 0 -1.9
v -1.6 0.3 -1.9
v 1.6 0 -1.9
v 1.6 0.3 -1.9
v 1.8 0 -1.9
v 1.8 0.3 -1.9
v -1.6 0 -2
v -1.6 0.3 -2
v 1.6 0 -2
v 1.6 0.3 -2
v -1.6 0 2
v 1.6 0 2
v -1.8 0 1.9
v -1.6 0 1.9
v 1.6 0 1.9
v 1.8 0 1.9
v -1.9 0 1.8
v -1.8 0 1.8
v 1.8 0 1.8
v 1.9 0 1.8
v -2 0 1.6
v -1.9 0 1.6
v 1.9 0 1.6
v 2 0 1.6
v -2 0 -1.6
v -1.9 0 -1.6
v 1.9 0 -1.6
v 2 0 -1.6
v -1.9 0 -1.8
v -1.8 0 -1.8
v 1.8 0 -1.8
v 1.9 0 -1.8
v -1.8 0 -1.9
v -1.6 0 -1.9
v 1.6 0 -1.9
v 1.8 0 -1.9
v -1.6 0 -2
v 1.6 0 -2
v -1.1 0.2 1.3
v -1 0.2 1.3
v 1 0.2 1.3
v 1.1 0.2 1.3
v -1.2 0.2 1.2
v -1.1 0.2 1.2
v -1 0.2 1.2
v 1 0.2 1.2
v 1.1 0.2 1.2
v 1.2 0.2 1.2
v -1.3 0.2 1.1
v -1.2 0.2 1.1
v -1.1 0.2 1.1
v 1.1 0.2 1.1
v 1.2 0.2 1.1
v 1.3 0.2 1.1
v -1.3 0.2 1
v -1.2 0.2 1
v 1.2 0.2 1
v 1.3 0.2 1
v -1.3 0.2 -1
v -1.2 0.2 -1
v 1.2 0.2 -1
v 1.3 0.2 -1
v -1.3 0.2 -1.1
v -1.2 0.2 -1.1
v -1.1 0.2 -1.1
v 1.1 0.2 -1.1
v 1.2 0.2 -1.1
v 1.3 0.2 -1.1
v -1.2 0.2 -1.2
v -1.1 0.2 -1.2
v -1 0.2 -1.2
v 1 0.2 -1.2
v 1.1 0.2 -1.2
v 1.2 0.2 -1.2
v -1.1 0.2 -1.3
v -1 0.2 -1.3
v 1 0.2 -1.3
v 1.1 0.2 -1.3
v -1.1 0.1 1.3
v -1 0.1 1.3
v 1 0.1 1.3
v 1.1 0.1 1.3
v -1.2 0.1 1.2
v -1.1 0.1 1.2
v -1 0.1 1.2
v 1 0.1 1.2
v 1.1 0.1 1.2
v 1.2 0.1 1.2
v -1.3 0.1 1.1
v -1.2 0.1 1.1
v -1.1 0.1 1.1
v 1.1 0.1 1.1
v 1.2 0.1 1.1
v 1.3 0.1 1.1
v -1.3 0.1 1
v -1.2 0.1 1
v 1.2 0.1 1
v 1.3 0.1 1
v -1.3 0.1 -1
v -1.2 0.1 -1
v 1.2 0.1 -1
v 1.3 0.1 -1
v -1.3 0.1 -1.1
v -1.2 0.1 -1.1
v -1.1 0.1 -1.1
v 1.1 0.1 -1.1
v 1.2 0.1 -1.1
v 1.3 0.1 -1.1
v -1.2 0.1 -1.2
v -1.1 0.1 -1.2
v -1 0.1 -1.2
v 1 0.1 -1.2
v 1.1 0.1 -1.2
v 1.2 0.1 -1.2
v -1.1 0.1 -1.3
v -1 0.1 -1.3
v 1 0.1 -1.3
v 1.1 0.1 -1.3
v -1.6 0.3 2
v 1.6 0.3 2
v -1.8 0.3 1.9
v -1.6 0.3 1.9
v 1.6 0.3 1.9
v 1.8 0.3 1.9
v -1.9 0.3 1.8
v -1.8 0.3 1.8
v -1.4 0.3 1.8
v 1.4 0.3 1.8
v 1.8 0.3 1.8
v 1.9 0.3 1.8
v -1.6 0.3 1.7
v -1.4 0.3 1.7
v 1.4 0.3 1.7
v 1.6 0.3 1.7
v -2 0.3 1.6
v -1.9 0.3 1.6
v -1.7 0.3 1.6
v -1.6 0.3 1.6
v 1.6 0.3 1.6
v 1.7 0.3 1.6
v 1.9 0.3 1.6
v 2 0.3 1.6
v -1.8 0.3 1.4
v -1.7 0.3 1.4
v 1.7 0.3 1.4
v 1.8 0.3 1.4
v -1.8 0.3 -1.4
v -1.7 0.3 -1.4
v 1.7 0.3 -1.4
v 1.8 0.3 -1.4
v -2 0.3 -1.6
v -1.9 0.3 -1.6
v -1.7 0.3 -1.6
v -1.6 0.3 -1.6
v 1.6 0.3 -1.6
v 1.7 0.3 -1.6
v 1.9 0.3 -1.6
v 2 0.3 -1.6
v -1.6 0.3 -1.7
v -1.4 0.3 -1.7
v 1.4 0.3 -1.7
v 1.6 0.3 -1.7
v -1.9 0.3 -1.8
v -1.8 0.3 -1.8
v -1.4 0.3 -1.8
v 1.4 0.3 -1.8
v 1.8 0.3 -1.8
v 1.9 0.3 -1.8
v -1.8 0.3 -1.9
v -1.6 0.3 -1.9
v 1.6 0.3 -1.9
v 1.8 0.3 -1.9
v -1.6 0.3 -2
v 1.6 0.3 -2
v -1.4 0.4 1.8
v 1.4 0.4 1.8
v -1.6 0.4 1.7
v -1.4 0.4 1.7
v 1.4 0.4 1.7
v 1.6 0.4 1.7
v -1.7 0.4 1.6
v -1.6 0.4 1.6
v 1.6 0.4 1.6
v 1.7 0.4 1.6
v -1.8 0.4 1.4
v -1.7 0.4 1.4
v 1.7 0.4 1.4
v 1.8 0.4 1.4
v -1.8 0.4 -1.4
v -1.7 0.4 -1.4
v 1.7 0.4 -1.4
v 1.8 0.4 -1.4
v -1.7 0.4 -1.6
v -1.6 0.4 -1.6
v 1.6 0.4 -1.6
v 1.7 0.4 -1.6
v -1.6 0.4 -1.7
v -1.4 0.4 -1.7
v 1.4 0.4 -1.7
v 1.6 0.4 -1.7
v -1.4 0.4 -1.8
v 1.4 0.4 -1.8

# faces
f 3/2/1 2/2/1 1/2/1
f 4/2/1 2/2/1 3/2/1
f 9/2/1 6/2/1 5/2/1
f 10/2/1 6/2/1 9/2/1
f 11/2/1 8/2/1 7/2/1
f 12/2/1 8/2/1 11/2/1
f 17/2/1 14/2/1 13/2/1
f 18/2/1 14/2/1 17/2/1
f 21/2/1 16/2/1 15/2/1
f 22/2/1 16/2/1 21/2/1
f 23/1/1 20/1/1 19/1/1
f 24/1/1 20/1/1 23/1/1
f 29/1/1 26/1/1 25/1/1
f 30/1/1 26/1/1 29/1/1
f 31/1/1 28/1/1 27/1/1
f 32/1/1 28/1/1 31/1/1
f 37/2/1 34/2/1 33/2/1
f 38/2/1 34/2/1 37/2/1
f 43/2/1 36/2/1 35/2/1
f 44/2/1 36/2/1 43/2/1
f 45/1/1 40/1/1 39/1/1
f 46/1/1 40/1/1 45/1/1
f 47/1/1 42/1/1 41/1/1
f 48/1/1 42/1/1 47/1/1
f 53/1/1 50/1/1 49/1/1
f 54/1/1 50/1/1 53/1/1
f 55/1/1 52/1/1 51/1/1
f 56/1/1 52/1/1 55/1/1
f 61/2/1 58/2/1 57/2/1
f 62/2/1 58/2/1 61/2/1
f 63/2/1 60/2/1 59/2/1
f 64/2/1 60/2/1 63/2/1
f 69/2/1 66/2/1 65/2/1
f 70/2/1 66/2/1 69/2/1
f 71/2/1 68/2/1 67/2/1
f 72/2/1 68/2/1 71/2/1
f 77/2/1 74/2/1 73/2/1
f 78/2/1 74/2/1 77/2/1
f 79/2/1 76/2/1 75/2/1
f 80/2/1 76/2/1 79/2/1
f 85/2/1 82/2/1 81/2/1
f 86/2/1 82/2/1 85/2/1
f 87/2/1 84/2/1 83/2/1
f 88/2/1 84/2/1 87/2/1
f 93/2/1 90/2/1 89/2/1
f 94/2/1 90/2/1 93/2/1
f 95/2/1 92/2/1 91/2/1
f 96/2/1 92/2/1 95/2/1
f 101/2/1 98/2/1 97/2/1
f 102/2/1 98/2/1 101/2/1
f 103/2/1 100/2/1 99/2/1
f 104/2/1 100/2/1 103/2/1
f 105/2/2 106/2/2 109/2/2
f 109/2/2 106/2/2 110/2/2
f 107/2/2 108/2/2 111/2/2
f 111/2/2 108/2/2 112/2/2
f 113/2/2 114/2/2 117/2/2
f 117/2/2 114/2/2 118/2/2
f 115/2/2 116/2/2 119/2/2
f 119/2/2 116/2/2 120/2/2
f 121/2/2 122/2/2 125/2/2
f 125/2/2 122/2/2 126/2/2
f 123/2/2 124/2/2 127/2/2
f 127/2/2 124/2/2 128/2/2
f 129/2/2 130/2/2 133/2/2
f 133/2/2 130/2/2 134/2/2
f 131/2/2 132/2/2 135/2/2
f 135/2/2 132/2/2 136/2/2
f 137/2/2 138/2/2 141/2/2
f 141/2/2 138/2/2 142/2/2
f 139/2/2 140/2/2 143/2/2
f 143/2/2 140/2/2 144/2/2
f 145/2/2 146/2/2 149/2/2
f 149/2/2 146/2/2 150/2/2
f 147/2/2 148/2/2 151/2/2
f 151/2/2 148/2/2 152/2/2
f 153/1/2 154/1/2 157/1/2
f 157/1/2 154/1/2 158/1/2
f 155/1/2 156/1/2 159/1/2
f 159/1/2 156/1/2 160/1/2
f 161/2/2 162/2/2 165/2/2
f 165/2/2 162/2/2 166/2/2
f 163/2/2 164/2/2 171/2/2
f 171/2/2 164/2/2 172/2/2
f 167/1/2 168/1/2 173/1/2
f 173/1/2 168/1/2 174/1/2
f 169/1/2 170/1/2 175/1/2
f 175/1/2 170/1/2 176/1/2
f 177/1/2 178/1/2 181/1/2
f 181/1/2 178/1/2 182/1/2
f 179/1/2 180/1/2 183/1/2
f 183/1/2 180/1/2 184/1/2
f 185/2/2 186/2/2 189/2/2
f 189/2/2 186/2/2 190/2/2
f 187/2/2 188/2/2 193/2/2
f 193/2/2 188/2/2 194/2/2
f 191/1/2 192/1/2 195/1/2
f 195/1/2 192/1/2 196/1/2
f 197/2/2 198/2/2 201/2/2
f 201/2/2 198/2/2 202/2/2
f 199/2/2 200/2/2 203/2/2
f 203/2/2 200/2/2 204/2/2
f 205/2/2 206/2/2 207/2/2
f 207/2/2 206/2/2 208/2/2
f 211/2/3 210/2/3 209/2/3
f 212/2/3 210/2/3 211/2/3
f 215/2/3 214/2/3 213/2/3
f 216/2/3 214/2/3 215/2/3
f 219/2/3 218/2/3 217/2/3
f 220/2/3 218/2/3 219/2/3
f 223/2/3 222/2/3 221/2/3
f 224/2/3 222/2/3 223/2/3
f 227/1/3 226/1/3 225/1/3
f 228/1/3 226/1/3 227/1/3
f 231/2/3 230/2/3 229/2/3
f 232/2/3 230/2/3 231/2/3
f 235/1/3 234/1/3 233/1/3
f 236/1/3 234/1/3 235/1/3
f 239/1/3 238/1/3 237/1/3
f 240/1/3 238/1/3 239/1/3
f 243/2/3 242/2/3 241/2/3
f 244/2/3 242/2/3 243/2/3
f 247/1/3 246/1/3 245/1/3
f 248/1/3 246/1/3 247/1/3
f 251/1/3 250/1/3 249/1/3
f 252/1/3 250/1/3 251/1/3
f 255/2/3 254/2/3 253/2/3
f 256/2/3 254/2/3 255/2/3
f 259/1/3 258/1/3 257/1/3
f 260/1/3 258/1/3 259/1/3
f 263/1/3 262/1/3 261/1/3
f 264/1/3 262/1/3 263/1/3
f 267/2/3 266/2/3 265/2/3
f 268/2/3 266/2/3 267/2/3
f 271/2/3 270/2/3 269/2/3
f 272/2/3 270/2/3 271/2/3
f 275/2/3 274/2/3 273/2/3
f 276/2/3 274/2/3 275/2/3
f 279/2/3 278/2/3 277/2/3
f 280/2/3 278/2/3 279/2/3
f 283/2/3 282/2/3 281/2/3
f 284/2/3 282/2/3 283/2/3
f 287/2/3 286/2/3 285/2/3
f 288/2/3 286/2/3 287/2/3
f 291/2/3 290/2/3 289/2/3
f 292/2/3 290/2/3 291/2/3
f 295/2/3 294/2/3 293/2/3
f 296/2/3 294/2/3 295/2/3
f 299/2/3 298/2/3 297/2/3
f 300/2/3 298/2/3 299/2/3
f 303/2/3 302/2/3 301/2/3
f 304/2/3 302/2/3 303/2/3
f 307/2/3 306/2/3 305/2/3
f 308/2/3 306/2/3 307/2/3
f 311/2/3 310/2/3 309/2/3
f 312/2/3 310/2/3 311/2/3
f 313/2/4 314/2/4 315/2/4
f 315/2/4 314/2/4 316/2/4
f 317/2/4 318/2/4 319/2/4
f 319/2/4 318/2/4 320/2/4
f 321/2/4 322/2/4 323/2/4
f 323/2/4 322/2/4 324/2/4
f 325/2/4 326/2/4 327/2/4
f 327/2/4 326/2/4 328/2/4
f 329/2/4 330/2/4 331/2/4
f 331/2/4 330/2/4 332/2/4
f 333/2/4 334/2/4 335/2/4
f 335/2/4 334/2/4 336/2/4
f 337/2/4 338/2/4 339/2/4
f 339/2/4 338/2/4 340/2/4
f 341/2/4 342/2/4 343/2/4
f 343/2/4 342/2/4 344/2/4
f 345/2/4 346/2/4 347/2/4
f 347/2/4 346/2/4 348/2/4
f 349/2/4 350/2/4 351/2/4
f 351/2/4 350/2/4 352/2/4
f 353/2/4 354/2/4 355/2/4
f 355/2/4 354/2/4 356/2/4
f 357/2/4 358/2/4 359/2/4
f 359/2/4 358/2/4 360/2/4
f 361/1/4 362/1/4 363/1/4
f 363/1/4 362/1/4 364/1/4
f 365/1/4 366/1/4 367/1/4
f 367/1/4 366/1/4 368/1/4
f 369/2/4 370/2/4 371/2/4
f 371/2/4 370/2/4 372/2/4
f 373/1/4 374/1/4 375/1/4
f 375/1/4 374/1/4 376/1/4
f 377/1/4 378/1/4 379/1/4
f 379/1/4 378/1/4 380/1/4
f 381/2/4 382/2/4 383/2/4
f 383/2/4 382/2/4 384/2/4
f 385/1/4 386/1/4 387/1/4
f 387/1/4 386/1/4 388/1/4
f 389/1/4 390/1/4 391/1/4
f 391/1/4 390/1/4 392/1/4
f 393/2/4 394/2/4 395/2/4
f 395/2/4 394/2/4 396/2/4
f 397/1/4 398/1/4 399/1/4
f 399/1/4 398/1/4 400/1/4
f 401/2/4 402/2/4 403/2/4
f 403/2/4 402/2/4 404/2/4
f 405/2/4 406/2/4 407/2/4
f 407/2/4 406/2/4 408/2/4
f 409/2/4 410/2/4 411/2/4
f 411/2/4 410/2/4 412/2/4
f 413/2/4 414/2/4 415/2/4
f 415/2/4 414/2/4 416/2/4
f 420/2/5 418/2/5 417/2/5
f 421/2/5 418/2/5 420/2/5
f 424/2/5 420/2/5 419/2/5
f 424/2/5 422/2/5 421/2/5
f 424/2/5 421/2/5 420/2/5
f 425/2/5 422/2/5 424/2/5
f 428/2/5 424/2/5 423/2/5
f 428/2/5 426/2/5 425/2/5
f 428/2/5 425/2/5 424/2/5
f 429/2/5 426/2/5 428/2/5
f 431/2/5 428/2/5 427/2/5
f 431/2/5 430/2/5 429/2/5
f 431/2/5 429/2/5 428/2/5
f 432/2/5 430/2/5 431/2/5
f 433/2/5 430/2/5 432/2/5
f 434/2/5 430/2/5 433/2/5
f 435/2/5 433/2/5 432/2/5
f 436/2/5 433/2/5 435/2/5
f 437/2/5 433/2/5 436/2/5
f 438/2/5 433/2/5 437/2/5
f 439/2/5 437/2/5 436/2/5
f 440/2/5 437/2/5 439/2/5
f 441/2/5 437/2/5 440/2/5
f 442/2/5 437/2/5 441/2/5
f 443/2/5 441/2/5 440/2/5
f 444/2/5 441/2/5 443/2/5
f 450/2/5 446/2/5 445/2/5
f 451/2/5 446/2/5 450/2/5
f 452/2/5 448/2/5 447/2/5
f 453/2/5 448/2/5 452/2/5
f 456/2/5 450/2/5 449/2/5
f 457/2/5 450/2/5 456/2/5
f 458/2/5 454/2/5 453/2/5
f 459/2/5 454/2/5 458/2/5
f 461/2/5 456/2/5 455/2/5
f 462/2/5 456/2/5 461/2/5
f 463/2/5 460/2/5 459/2/5
f 464/2/5 460/2/5 463/2/5
f 469/2/5 466/2/5 465/2/5
f 470/2/5 466/2/5 469/2/5
f 473/2/5 468/2/5 467/2/5
f 474/2/5 468/2/5 473/2/5
f 475/2/5 471/2/5 470/2/5
f 476/2/5 471/2/5 475/2/5
f 479/2/5 473/2/5 472/2/5
f 480/2/5 473/2/5 479/2/5
f 481/2/5 477/2/5 476/2/5
f 482/2/5 477/2/5 481/2/5
f 483/2/5 479/2/5 478/2/5
f 484/2/5 479/2/5 483/2/5
f 485/2/6 486/2/6 490/2/6
f 490/2/6 486/2/6 491/2/6
f 487/2/6 488/2/6 492/2/6
f 492/2/6 488/2/6 493/2/6
f 489/2/6 490/2/6 496/2/6
f 496/2/6 490/2/6 497/2/6
f 493/2/6 494/2/6 498/2/6
f 498/2/6 494/2/6 499/2/6
f 495/2/6 496/2/6 501/2/6
f 501/2/6 496/2/6 502/2/6
f 499/2/6 500/2/6 503/2/6
f 503/2/6 500/2/6 504/2/6
f 505/2/6 506/2/6 509/2/6
f 509/2/6 506/2/6 510/2/6
f 507/2/6 508/2/6 513/2/6
f 513/2/6 508/2/6 514/2/6
f 510/2/6 511/2/6 515/2/6
f 515/2/6 511/2/6 516/2/6
f 512/2/6 513/2/6 519/2/6
f 519/2/6 513/2/6 520/2/6
f 516/2/6 517/2/6 521/2/6
f 521/2/6 517/2/6 522/2/6
f 518/2/6 519/2/6 523/2/6
f 523/2/6 519/2/6 524/2/6
f 525/2/6 526/2/6 528/2/6
f 528/2/6 526/2/6 529/2/6
f 527/2/6 528/2/6 532/2/6
f 529/2/6 530/2/6 532/2/6
f 528/2/6 529/2/6 532/2/6
f 532/2/6 530/2/6 533/2/6
f 533/2/6 530/2/6 534/2/6
f 534/2/6 530/2/6 535/2/6
f 531/2/6 532/2/6 537/2/6
f 532/2/6 533/2/6 537/2/6
f 537/2/6 533/2/6 538/2/6
f 535/2/6 536/2/6 539/2/6
f 534/2/6 535/2/6 539/2/6
f 539/2/6 536/2/6 540/2/6
f 531/2/6 537/2/6 542/2/6
f 542/2/6 537/2/6 543/2/6
f 543/2/6 537/2/6 544/2/6
f 540/2/6 536/2/6 545/2/6
f 545/2/6 536/2/6 546/2/6
f 546/2/6 536/2/6 547/2/6
f 541/2/6 542/2/6 549/2/6
f 542/2/6 543/2/6 549/2/6
f 549/2/6 543/2/6 550/2/6
f 547/2/6 548/2/6 551/2/6
f 546/2/6 547/2/6 551/2/6
f 551/2/6 548/2/6 552/2/6
f 541/2/6 549/2/6 553/2/6
f 552/2/6 548/2/6 556/2/6
f 553/2/6 554/2/6 557/2/6
f 541/2/6 553/2/6 557/2/6
f 557/2/6 554/2/6 558/2/6
f 558/2/6 554/2/6 559/2/6
f 555/2/6 556/2/6 562/2/6
f 556/2/6 548/2/6 563/2/6
f 562/2/6 556/2/6 563/2/6
f 563/2/6 548/2/6 564/2/6
f 559/2/6 560/2/6 565/2/6
f 558/2/6 559/2/6 565/2/6
f 561/2/6 562/2/6 568/2/6
f 562/2/6 563/2/6 568/2/6
f 565/2/6 566/2/6 569/2/6
f 558/2/6 565/2/6 569/2/6
f 569/2/6 566/2/6 570/2/6
f 570/2/6 566/2/6 571/2/6
f 567/2/6 568/2/6 572/2/6
f 568/2/6 563/2/6 573/2/6
f 572/2/6 568/2/6 573/2/6
f 573/2/6 563/2/6 574/2/6
f 570/2/6 571/2/6 575/2/6
f 571/2/6 572/2/6 575/2/6
f 572/2/6 573/2/6 575/2/6
f 575/2/6 573/2/6 576/2/6
f 576/2/6 573/2/6 577/2/6
f 577/2/6 573/2/6 578/2/6
f 576/2/6 577/2/6 579/2/6
f 579/2/6 577/2/6 580/2/6
f 581/1/6 582/1/6 584/1/6
f 584/1/6 582/1/6 585/1/6
f 583/1/6 584/1/6 588/1/6
f 585/1/6 586/1/6 588/1/6
f 584/1/6 585/1/6 588/1/6
f 588/1/6 586/1/6 589/1/6
f 587/1/6 588/1/6 592/1/6
f 589/1/6 590/1/6 592/1/6
f 588/1/6 589/1/6 592/1/6
f 592/1/6 590/1/6 593/1/6
f 591/1/6 592/1/6 595/1/6
f 593/1/6 594/1/6 595/1/6
f 592/1/6 593/1/6 595/1/6
f 595/1/6 594/1/6 596/1/6
f 596/1/6 594/1/6 597/1/6
f 597/1/6 594/1/6 598/1/6
f 596/1/6 597/1/6 599/1/6
f 599/1/6 597/1/6 600/1/6
f 600/1/6 597/1/6 601/1/6
f 601/1/6 597/1/6 602/1/6
f 600/1/6 601/1/6 603/1/6
f 603/1/6 601/1/6 604/1/6
f 604/1/6 601/1/6 605/1/6
f 605/1/6 601/1/6 606/1/6
f 604/1/6 605/1/6 607/1/6
f 607/1/6 605/1/6 608/1/6
