# MagicaVoxel @ Ephtracy

# group
o 

# material
mtllib SlimePlayer.mtl
usemtl palette

# normals
vn -1 0 0
vn 1 0 0
vn 0 0 1
vn 0 0 -1
vn 0 -1 0
vn 0 1 0

# texcoords
vt 0.888672 0.5
vt 0.904297 0.5
vt 0.912109 0.5
vt 0.958984 0.5

# verts
v -3 0 3
v -3 0 -3
v -3 6 3
v -3 6 -3
v -2.5 5.3 -2.6
v -2.5 5.3 -2.7
v -2.5 5.4 -2.6
v -2.5 5.4 -2.7
v 2.3 0.8 -2.5
v 2.3 0.8 -2.6
v 2.3 0.9 -2.5
v 2.3 0.9 -2.6
v 2.5 0.5 -2.5
v 2.5 0.5 -2.6
v 2.5 0.7 -2.5
v 2.5 0.7 -2.6
v -2.6 5.3 -2.6
v -2.6 5.3 -2.7
v -2.6 5.4 -2.6
v -2.6 5.4 -2.7
v 2.2 0.6 -2.5
v 2.2 0.6 -2.6
v 2.2 0.7 -2.5
v 2.2 0.7 -2.6
v 2.2 0.8 -2.5
v 2.2 0.8 -2.6
v 2.2 0.9 -2.5
v 2.2 0.9 -2.6
v 2.3 0.5 -2.5
v 2.3 0.5 -2.6
v 2.3 0.6 -2.5
v 2.3 0.6 -2.6
v 3 0 3
v 3 0 -3
v 3 6 3
v 3 6 -3
v -3 0 3
v -3 6 3
v 3 0 3
v 3 6 3
v 2.2 0.6 -2.6
v 2.2 0.7 -2.6
v 2.2 0.8 -2.6
v 2.2 0.9 -2.6
v 2.3 0.5 -2.6
v 2.3 0.6 -2.6
v 2.3 0.8 -2.6
v 2.3 0.9 -2.6
v 2.5 0.5 -2.6
v 2.5 0.7 -2.6
v -2.6 5.3 -2.7
v -2.6 5.4 -2.7
v -2.5 5.3 -2.7
v -2.5 5.4 -2.7
v 2.2 0.6 -2.5
v 2.2 0.7 -2.5
v 2.2 0.8 -2.5
v 2.2 0.9 -2.5
v 2.3 0.5 -2.5
v 2.3 0.6 -2.5
v 2.3 0.8 -2.5
v 2.3 0.9 -2.5
v 2.5 0.5 -2.5
v 2.5 0.7 -2.5
v -2.6 5.3 -2.6
v -2.6 5.4 -2.6
v -2.5 5.3 -2.6
v -2.5 5.4 -2.6
v -3 0 -3
v -3 6 -3
v 3 0 -3
v 3 6 -3
v -3 0 3
v 3 0 3
v -3 0 -3
v 3 0 -3
v 2.2 0.7 -2.5
v 2.5 0.7 -2.5
v 2.2 0.7 -2.6
v 2.5 0.7 -2.6
v 2.2 0.9 -2.5
v 2.3 0.9 -2.5
v 2.2 0.9 -2.6
v 2.3 0.9 -2.6
v -2.6 5.4 -2.6
v -2.5 5.4 -2.6
v -2.6 5.4 -2.7
v -2.5 5.4 -2.7
v 2.3 0.5 -2.5
v 2.5 0.5 -2.5
v 2.3 0.5 -2.6
v 2.5 0.5 -2.6
v 2.2 0.6 -2.5
v 2.3 0.6 -2.5
v 2.2 0.6 -2.6
v 2.3 0.6 -2.6
v 2.2 0.8 -2.5
v 2.3 0.8 -2.5
v 2.2 0.8 -2.6
v 2.3 0.8 -2.6
v -2.6 5.3 -2.6
v -2.5 5.3 -2.6
v -2.6 5.3 -2.7
v -2.5 5.3 -2.7
v -3 6 3
v 3 6 3
v -3 6 -3
v 3 6 -3

# faces
f 3/2/1 2/2/1 1/2/1
f 4/2/1 2/2/1 3/2/1
f 7/1/1 6/1/1 5/1/1
f 8/1/1 6/1/1 7/1/1
f 11/1/1 10/1/1 9/1/1
f 12/1/1 10/1/1 11/1/1
f 15/1/1 14/1/1 13/1/1
f 16/1/1 14/1/1 15/1/1
f 17/1/2 18/1/2 19/1/2
f 19/1/2 18/1/2 20/1/2
f 21/1/2 22/1/2 23/1/2
f 23/1/2 22/1/2 24/1/2
f 25/1/2 26/1/2 27/1/2
f 27/1/2 26/1/2 28/1/2
f 29/1/2 30/1/2 31/1/2
f 31/1/2 30/1/2 32/1/2
f 33/2/2 34/2/2 35/2/2
f 35/2/2 34/2/2 36/2/2
f 39/2/3 38/2/3 37/2/3
f 40/2/3 38/2/3 39/2/3
f 46/1/3 42/1/3 41/1/3
f 47/1/3 44/1/3 43/1/3
f 48/1/3 44/1/3 47/1/3
f 49/1/3 46/1/3 45/1/3
f 50/1/3 42/1/3 46/1/3
f 50/1/3 46/1/3 49/1/3
f 53/1/3 52/1/3 51/1/3
f 54/1/3 52/1/3 53/1/3
f 55/1/4 56/1/4 60/1/4
f 57/1/4 58/1/4 61/1/4
f 61/1/4 58/1/4 62/1/4
f 59/1/4 60/1/4 63/1/4
f 60/1/4 56/1/4 64/1/4
f 63/1/4 60/1/4 64/1/4
f 65/1/4 66/1/4 67/1/4
f 67/1/4 66/1/4 68/1/4
f 69/2/4 70/2/4 71/2/4
f 71/2/4 70/2/4 72/2/4
f 75/2/5 74/2/5 73/2/5
f 76/2/5 74/2/5 75/2/5
f 79/1/5 78/1/5 77/1/5
f 80/1/5 78/1/5 79/1/5
f 83/1/5 82/1/5 81/1/5
f 84/1/5 82/1/5 83/1/5
f 87/1/5 86/1/5 85/1/5
f 88/1/5 86/1/5 87/1/5
f 89/1/6 90/1/6 91/1/6
f 91/1/6 90/1/6 92/1/6
f 93/1/6 94/1/6 95/1/6
f 95/1/6 94/1/6 96/1/6
f 97/1/6 98/1/6 99/1/6
f 99/1/6 98/1/6 100/1/6
f 101/1/6 102/1/6 103/1/6
f 103/1/6 102/1/6 104/1/6
f 105/2/6 106/2/6 107/2/6
f 107/2/6 106/2/6 108/2/6
