# MagicaVoxel @ Ephtracy

# group
o 

# material
mtllib TurretGun.mtl
usemtl palette

# normals
vn -1 0 0
vn 1 0 0
vn 0 0 1
vn 0 0 -1
vn 0 -1 0
vn 0 1 0

# texcoords
vt 0.841797 0.5
vt 0.958984 0.5
vt 0.962891 0.5
vt 0.986328 0.5
vt 0.994141 0.5

# verts
v -0.4 1.4 0.5
v -0.4 1.4 -0.5
v -0.4 1.7 0.5
v -0.4 1.7 -0.5
v -0.3 1.3 0.4
v -0.3 1.3 -0.4
v -0.3 1.4 0.6
v -0.3 1.4 0.5
v -0.3 1.4 0.4
v -0.3 1.4 -0.4
v -0.3 1.4 -0.5
v -0.3 1.4 -0.6
v -0.3 1.7 0.6
v -0.3 1.7 0.5
v -0.3 1.7 -0.5
v -0.3 1.7 -0.6
v -0.2 1.3 0.5
v -0.2 1.3 0.4
v -0.2 1.3 -0.4
v -0.2 1.3 -0.5
v -0.2 1.4 0.5
v -0.2 1.4 0.4
v -0.2 1.4 -0.4
v -0.2 1.4 -0.5
v -0.2 1.5 0.8
v -0.2 1.5 0.6
v -0.2 1.6 0.9
v -0.2 1.6 0.8
v -0.2 1.7 0.9
v -0.2 1.7 0.6
v -0.2 1.7 -0.6
v -0.2 1.8 0.6
v -0.2 1.8 0
v -0.2 1.9 0
v -0.2 1.9 -0.1
v -0.2 2 -0.1
v -0.2 2 -0.3
v -0.2 2.1 -0.3
v -0.2 2.1 -0.5
v -0.2 2.2 -0.5
v -0.2 2.2 -0.6
v -0.1 1.4 0.8
v -0.1 1.4 0.6
v -0.1 1.5 0.8
v -0.1 1.5 0.6
v -0.1 1.7 0.9
v -0.1 1.7 0.6
v -0.1 1.8 0.9
v -0.1 1.8 0.6
v 0.1 1.5 0.8
v 0.1 1.5 0.6
v 0.1 1.6 0.9
v 0.1 1.6 0.8
v 0.1 1.7 0.9
v 0.1 1.7 0.6
v 0.2 1.3 0.2
v 0.2 1.3 -0.2
v 0.2 1.4 0.2
v 0.2 1.4 -0.2
v -0.2 1.3 0.2
v -0.2 1.3 -0.2
v -0.2 1.4 0.2
v -0.2 1.4 -0.2
v -0.1 1.5 0.8
v -0.1 1.5 0.6
v -0.1 1.6 0.9
v -0.1 1.6 0.8
v -0.1 1.7 0.9
v -0.1 1.7 0.6
v 0.1 1.4 0.8
v 0.1 1.4 0.6
v 0.1 1.5 0.8
v 0.1 1.5 0.6
v 0.1 1.7 0.9
v 0.1 1.7 0.6
v 0.1 1.8 0.9
v 0.1 1.8 0.6
v 0.2 1.3 0.5
v 0.2 1.3 0.4
v 0.2 1.3 -0.4
v 0.2 1.3 -0.5
v 0.2 1.4 0.5
v 0.2 1.4 0.4
v 0.2 1.4 -0.4
v 0.2 1.4 -0.5
v 0.2 1.5 0.8
v 0.2 1.5 0.6
v 0.2 1.6 0.9
v 0.2 1.6 0.8
v 0.2 1.7 0.9
v 0.2 1.7 0.6
v 0.2 1.7 -0.6
v 0.2 1.8 0.6
v 0.2 1.8 0
v 0.2 1.9 0
v 0.2 1.9 -0.1
v 0.2 2 -0.1
v 0.2 2 -0.3
v 0.2 2.1 -0.3
v 0.2 2.1 -0.5
v 0.2 2.2 -0.5
v 0.2 2.2 -0.6
v 0.3 1.3 0.4
v 0.3 1.3 -0.4
v 0.3 1.4 0.6
v 0.3 1.4 0.5
v 0.3 1.4 0.4
v 0.3 1.4 -0.4
v 0.3 1.4 -0.5
v 0.3 1.4 -0.6
v 0.3 1.7 0.6
v 0.3 1.7 0.5
v 0.3 1.7 -0.5
v 0.3 1.7 -0.6
v 0.4 1.4 0.5
v 0.4 1.4 -0.5
v 0.4 1.7 0.5
v 0.4 1.7 -0.5
v -0.2 1.6 0.9
v -0.2 1.7 0.9
v -0.1 1.6 0.9
v -0.1 1.7 0.9
v -0.1 1.8 0.9
v 0.1 1.6 0.9
v 0.1 1.7 0.9
v 0.1 1.8 0.9
v 0.2 1.6 0.9
v 0.2 1.7 0.9
v -0.2 1.5 0.8
v -0.2 1.6 0.8
v -0.1 1.4 0.8
v -0.1 1.5 0.8
v -0.1 1.6 0.8
v 0.1 1.4 0.8
v 0.1 1.5 0.8
v 0.1 1.6 0.8
v 0.2 1.5 0.8
v 0.2 1.6 0.8
v -0.3 1.4 0.6
v -0.3 1.7 0.6
v -0.2 1.4 0.6
v -0.2 1.5 0.6
v -0.2 1.7 0.6
v -0.2 1.8 0.6
v -0.1 1.4 0.6
v -0.1 1.5 0.6
v -0.1 1.7 0.6
v -0.1 1.8 0.6
v 0.1 1.4 0.6
v 0.1 1.5 0.6
v 0.1 1.7 0.6
v 0.1 1.8 0.6
v 0.2 1.4 0.6
v 0.2 1.5 0.6
v 0.2 1.7 0.6
v 0.2 1.8 0.6
v 0.3 1.4 0.6
v 0.3 1.7 0.6
v -0.4 1.4 0.5
v -0.4 1.7 0.5
v -0.3 1.4 0.5
v -0.3 1.7 0.5
v -0.2 1.3 0.5
v -0.2 1.4 0.5
v 0.2 1.3 0.5
v 0.2 1.4 0.5
v 0.3 1.4 0.5
v 0.3 1.7 0.5
v 0.4 1.4 0.5
v 0.4 1.7 0.5
v -0.3 1.3 0.4
v -0.3 1.4 0.4
v -0.2 1.3 0.4
v -0.2 1.4 0.4
v 0.2 1.3 0.4
v 0.2 1.4 0.4
v 0.3 1.3 0.4
v 0.3 1.4 0.4
v -0.2 1.8 0
v -0.2 1.9 0
v -0.1 1.8 0
v -0.1 1.9 0
v 0.1 1.8 0
v 0.1 1.9 0
v 0.2 1.8 0
v 0.2 1.9 0
v -0.2 1.9 -0.1
v -0.2 2 -0.1
v -0.1 1.9 -0.1
v -0.1 2 -0.1
v 0.1 1.9 -0.1
v 0.1 2 -0.1
v 0.2 1.9 -0.1
v 0.2 2 -0.1
v -0.2 1.3 -0.2
v -0.2 1.4 -0.2
v 0.2 1.3 -0.2
v 0.2 1.4 -0.2
v -0.2 2 -0.3
v -0.2 2.1 -0.3
v -0.1 2 -0.3
v -0.1 2.1 -0.3
v 0.1 2 -0.3
v 0.1 2.1 -0.3
v 0.2 2 -0.3
v 0.2 2.1 -0.3
v -0.2 2.1 -0.5
v -0.2 2.2 -0.5
v -0.1 2.1 -0.5
v 0.1 2.1 -0.5
v 0.2 2.1 -0.5
v 0.2 2.2 -0.5
v -0.2 1.3 0.2
v -0.2 1.4 0.2
v 0.2 1.3 0.2
v 0.2 1.4 0.2
v -0.3 1.3 -0.4
v -0.3 1.4 -0.4
v -0.2 1.3 -0.4
v -0.2 1.4 -0.4
v 0.2 1.3 -0.4
v 0.2 1.4 -0.4
v 0.3 1.3 -0.4
v 0.3 1.4 -0.4
v -0.4 1.4 -0.5
v -0.4 1.7 -0.5
v -0.3 1.4 -0.5
v -0.3 1.7 -0.5
v -0.2 1.3 -0.5
v -0.2 1.4 -0.5
v 0.2 1.3 -0.5
v 0.2 1.4 -0.5
v 0.3 1.4 -0.5
v 0.3 1.7 -0.5
v 0.4 1.4 -0.5
v 0.4 1.7 -0.5
v -0.3 1.4 -0.6
v -0.3 1.7 -0.6
v -0.2 1.7 -0.6
v -0.2 2.2 -0.6
v 0.2 1.7 -0.6
v 0.2 2.2 -0.6
v 0.3 1.4 -0.6
v 0.3 1.7 -0.6
v -0.2 1.3 0.5
v 0.2 1.3 0.5
v -0.3 1.3 0.4
v -0.2 1.3 0.4
v 0.2 1.3 0.4
v 0.3 1.3 0.4
v -0.2 1.3 0.2
v 0.2 1.3 0.2
v -0.2 1.3 -0.2
v 0.2 1.3 -0.2
v -0.3 1.3 -0.4
v -0.2 1.3 -0.4
v 0.2 1.3 -0.4
v 0.3 1.3 -0.4
v -0.2 1.3 -0.5
v 0.2 1.3 -0.5
v -0.1 1.4 0.8
v 0.1 1.4 0.8
v -0.3 1.4 0.6
v -0.2 1.4 0.6
v -0.1 1.4 0.6
v 0.1 1.4 0.6
v 0.2 1.4 0.6
v 0.3 1.4 0.6
v -0.4 1.4 0.5
v -0.3 1.4 0.5
v -0.2 1.4 0.5
v 0.2 1.4 0.5
v 0.3 1.4 0.5
v 0.4 1.4 0.5
v -0.3 1.4 0.4
v -0.2 1.4 0.4
v 0.2 1.4 0.4
v 0.3 1.4 0.4
v -0.2 1.4 0.2
v 0.2 1.4 0.2
v -0.2 1.4 -0.2
v 0.2 1.4 -0.2
v -0.3 1.4 -0.4
v -0.2 1.4 -0.4
v 0.2 1.4 -0.4
v 0.3 1.4 -0.4
v -0.4 1.4 -0.5
v -0.3 1.4 -0.5
v -0.2 1.4 -0.5
v 0.2 1.4 -0.5
v 0.3 1.4 -0.5
v 0.4 1.4 -0.5
v -0.3 1.4 -0.6
v 0.3 1.4 -0.6
v -0.2 1.5 0.8
v -0.1 1.5 0.8
v 0.1 1.5 0.8
v 0.2 1.5 0.8
v -0.2 1.5 0.6
v -0.1 1.5 0.6
v 0.1 1.5 0.6
v 0.2 1.5 0.6
v -0.2 1.6 0.9
v -0.1 1.6 0.9
v 0.1 1.6 0.9
v 0.2 1.6 0.9
v -0.2 1.6 0.8
v -0.1 1.6 0.8
v 0.1 1.6 0.8
v 0.2 1.6 0.8
v -0.1 1.7 0.9
v 0.1 1.7 0.9
v -0.1 1.7 0.6
v 0.1 1.7 0.6
v -0.1 1.5 0.8
v 0.1 1.5 0.8
v -0.1 1.5 0.6
v 0.1 1.5 0.6
v -0.2 1.7 0.9
v -0.1 1.7 0.9
v 0.1 1.7 0.9
v 0.2 1.7 0.9
v -0.3 1.7 0.6
v -0.2 1.7 0.6
v -0.1 1.7 0.6
v 0.1 1.7 0.6
v 0.2 1.7 0.6
v 0.3 1.7 0.6
v -0.4 1.7 0.5
v -0.3 1.7 0.5
v 0.3 1.7 0.5
v 0.4 1.7 0.5
v -0.4 1.7 -0.5
v -0.3 1.7 -0.5
v 0.3 1.7 -0.5
v 0.4 1.7 -0.5
v -0.3 1.7 -0.6
v -0.2 1.7 -0.6
v 0.2 1.7 -0.6
v 0.3 1.7 -0.6
v -0.1 1.8 0.9
v 0.1 1.8 0.9
v -0.2 1.8 0.6
v -0.1 1.8 0.6
v 0.1 1.8 0.6
v 0.2 1.8 0.6
v -0.1 1.8 0.5
v 0.1 1.8 0.5
v -0.2 1.8 0
v -0.1 1.8 0
v 0.1 1.8 0
v 0.2 1.8 0
v -0.2 1.9 0
v -0.1 1.9 0
v 0.1 1.9 0
v 0.2 1.9 0
v -0.2 1.9 -0.1
v -0.1 1.9 -0.1
v 0.1 1.9 -0.1
v 0.2 1.9 -0.1
v -0.2 2 -0.1
v -0.1 2 -0.1
v 0.1 2 -0.1
v 0.2 2 -0.1
v -0.2 2 -0.3
v -0.1 2 -0.3
v 0.1 2 -0.3
v 0.2 2 -0.3
v -0.2 2.1 -0.3
v -0.1 2.1 -0.3
v 0.1 2.1 -0.3
v 0.2 2.1 -0.3
v -0.2 2.1 -0.5
v -0.1 2.1 -0.5
v 0.1 2.1 -0.5
v 0.2 2.1 -0.5
v -0.2 2.2 -0.5
v 0.2 2.2 -0.5
v -0.2 2.2 -0.6
v 0.2 2.2 -0.6

# faces
f 3/3/1 2/3/1 1/3/1
f 4/3/1 2/3/1 3/3/1
f 9/2/1 6/2/1 5/2/1
f 10/2/1 6/2/1 9/2/1
f 13/3/1 8/3/1 7/3/1
f 14/3/1 8/3/1 13/3/1
f 15/3/1 12/3/1 11/3/1
f 16/3/1 12/3/1 15/3/1
f 21/2/1 18/2/1 17/2/1
f 22/2/1 18/2/1 21/2/1
f 23/2/1 20/2/1 19/2/1
f 24/2/1 20/2/1 23/2/1
f 28/4/1 26/4/1 25/4/1
f 29/4/1 28/4/1 27/4/1
f 30/4/1 26/4/1 28/4/1
f 30/4/1 28/4/1 29/4/1
f 32/4/1 31/4/1 30/4/1
f 33/4/1 31/4/1 32/4/1
f 34/4/1 31/4/1 33/4/1
f 35/4/1 31/4/1 34/4/1
f 36/4/1 31/4/1 35/4/1
f 37/4/1 31/4/1 36/4/1
f 38/4/1 31/4/1 37/4/1
f 39/4/1 31/4/1 38/4/1
f 40/4/1 31/4/1 39/4/1
f 41/4/1 31/4/1 40/4/1
f 44/4/1 43/4/1 42/4/1
f 45/4/1 43/4/1 44/4/1
f 48/4/1 47/4/1 46/4/1
f 49/4/1 47/4/1 48/4/1
f 53/4/1 51/4/1 50/4/1
f 54/4/1 53/4/1 52/4/1
f 55/4/1 51/4/1 53/4/1
f 55/4/1 53/4/1 54/4/1
f 58/2/1 57/2/1 56/2/1
f 59/2/1 57/2/1 58/2/1
f 60/2/2 61/2/2 62/2/2
f 62/2/2 61/2/2 63/2/2
f 64/4/2 65/4/2 67/4/2
f 66/4/2 67/4/2 68/4/2
f 67/4/2 65/4/2 69/4/2
f 68/4/2 67/4/2 69/4/2
f 70/4/2 71/4/2 72/4/2
f 72/4/2 71/4/2 73/4/2
f 74/4/2 75/4/2 76/4/2
f 76/4/2 75/4/2 77/4/2
f 78/2/2 79/2/2 82/2/2
f 82/2/2 79/2/2 83/2/2
f 80/2/2 81/2/2 84/2/2
f 84/2/2 81/2/2 85/2/2
f 86/4/2 87/4/2 89/4/2
f 88/4/2 89/4/2 90/4/2
f 89/4/2 87/4/2 91/4/2
f 90/4/2 89/4/2 91/4/2
f 91/4/2 92/4/2 93/4/2
f 93/4/2 92/4/2 94/4/2
f 94/4/2 92/4/2 95/4/2
f 95/4/2 92/4/2 96/4/2
f 96/4/2 92/4/2 97/4/2
f 97/4/2 92/4/2 98/4/2
f 98/4/2 92/4/2 99/4/2
f 99/4/2 92/4/2 100/4/2
f 100/4/2 92/4/2 101/4/2
f 101/4/2 92/4/2 102/4/2
f 103/2/2 104/2/2 107/2/2
f 107/2/2 104/2/2 108/2/2
f 105/3/2 106/3/2 111/3/2
f 111/3/2 106/3/2 112/3/2
f 109/3/2 110/3/2 113/3/2
f 113/3/2 110/3/2 114/3/2
f 115/3/2 116/3/2 117/3/2
f 117/3/2 116/3/2 118/3/2
f 121/4/3 120/4/3 119/4/3
f 122/4/3 120/4/3 121/4/3
f 125/4/3 123/4/3 122/4/3
f 126/4/3 123/4/3 125/4/3
f 127/4/3 125/4/3 124/4/3
f 128/4/3 125/4/3 127/4/3
f 132/4/3 130/4/3 129/4/3
f 133/4/3 130/4/3 132/4/3
f 134/4/3 132/4/3 131/4/3
f 135/4/3 132/4/3 134/4/3
f 137/4/3 136/4/3 135/4/3
f 138/4/3 136/4/3 137/4/3
f 141/3/3 140/3/3 139/3/3
f 142/3/3 140/3/3 141/3/3
f 143/3/3 140/3/3 142/3/3
f 145/4/3 142/4/3 141/4/3
f 146/4/3 142/4/3 145/4/3
f 147/4/3 144/4/3 143/4/3
f 148/4/3 144/4/3 147/4/3
f 150/5/3 147/5/3 146/5/3
f 151/5/3 147/5/3 150/5/3
f 153/4/3 150/4/3 149/4/3
f 154/4/3 150/4/3 153/4/3
f 155/4/3 152/4/3 151/4/3
f 156/4/3 152/4/3 155/4/3
f 157/3/3 154/3/3 153/3/3
f 157/3/3 155/3/3 154/3/3
f 158/3/3 155/3/3 157/3/3
f 161/3/3 160/3/3 159/3/3
f 162/3/3 160/3/3 161/3/3
f 165/2/3 164/2/3 163/2/3
f 166/2/3 164/2/3 165/2/3
f 169/3/3 168/3/3 167/3/3
f 170/3/3 168/3/3 169/3/3
f 173/2/3 172/2/3 171/2/3
f 174/2/3 172/2/3 173/2/3
f 177/2/3 176/2/3 175/2/3
f 178/2/3 176/2/3 177/2/3
f 181/4/3 180/4/3 179/4/3
f 182/4/3 180/4/3 181/4/3
f 183/1/3 182/1/3 181/1/3
f 184/1/3 182/1/3 183/1/3
f 185/4/3 184/4/3 183/4/3
f 186/4/3 184/4/3 185/4/3
f 189/4/3 188/4/3 187/4/3
f 190/4/3 188/4/3 189/4/3
f 191/1/3 190/1/3 189/1/3
f 192/1/3 190/1/3 191/1/3
f 193/4/3 192/4/3 191/4/3
f 194/4/3 192/4/3 193/4/3
f 197/2/3 196/2/3 195/2/3
f 198/2/3 196/2/3 197/2/3
f 201/4/3 200/4/3 199/4/3
f 202/4/3 200/4/3 201/4/3
f 203/1/3 202/1/3 201/1/3
f 204/1/3 202/1/3 203/1/3
f 205/4/3 204/4/3 203/4/3
f 206/4/3 204/4/3 205/4/3
f 209/4/3 208/4/3 207/4/3
f 210/4/3 208/4/3 209/4/3
f 211/4/3 208/4/3 210/4/3
f 212/4/3 208/4/3 211/4/3
f 213/2/4 214/2/4 215/2/4
f 215/2/4 214/2/4 216/2/4
f 217/2/4 218/2/4 219/2/4
f 219/2/4 218/2/4 220/2/4
f 221/2/4 222/2/4 223/2/4
f 223/2/4 222/2/4 224/2/4
f 225/3/4 226/3/4 227/3/4
f 227/3/4 226/3/4 228/3/4
f 229/2/4 230/2/4 231/2/4
f 231/2/4 230/2/4 232/2/4
f 233/3/4 234/3/4 235/3/4
f 235/3/4 234/3/4 236/3/4
f 237/3/4 238/3/4 239/3/4
f 237/3/4 239/3/4 241/3/4
f 239/4/4 240/4/4 241/4/4
f 241/4/4 240/4/4 242/4/4
f 237/3/4 241/3/4 243/3/4
f 243/3/4 241/3/4 244/3/4
f 248/2/5 246/2/5 245/2/5
f 249/2/5 246/2/5 248/2/5
f 251/2/5 248/2/5 247/2/5
f 251/2/5 250/2/5 249/2/5
f 251/2/5 249/2/5 248/2/5
f 252/2/5 250/2/5 251/2/5
f 253/2/5 251/2/5 247/2/5
f 254/2/5 250/2/5 252/2/5
f 255/2/5 253/2/5 247/2/5
f 255/2/5 254/2/5 253/2/5
f 256/2/5 254/2/5 255/2/5
f 257/2/5 250/2/5 254/2/5
f 257/2/5 254/2/5 256/2/5
f 258/2/5 250/2/5 257/2/5
f 259/2/5 257/2/5 256/2/5
f 260/2/5 257/2/5 259/2/5
f 265/4/5 262/4/5 261/4/5
f 266/4/5 262/4/5 265/4/5
f 270/3/5 264/3/5 263/3/5
f 271/4/5 265/4/5 264/4/5
f 271/4/5 266/4/5 265/4/5
f 271/3/5 264/3/5 270/3/5
f 271/4/5 267/4/5 266/4/5
f 272/3/5 268/3/5 267/3/5
f 272/4/5 267/4/5 271/4/5
f 273/3/5 268/3/5 272/3/5
f 275/3/5 271/3/5 270/3/5
f 275/3/5 270/3/5 269/3/5
f 276/3/5 271/3/5 275/3/5
f 277/3/5 274/3/5 273/3/5
f 277/3/5 273/3/5 272/3/5
f 278/3/5 274/3/5 277/3/5
f 281/3/5 280/3/5 279/3/5
f 282/3/5 280/3/5 281/3/5
f 283/3/5 275/3/5 269/3/5
f 286/3/5 274/3/5 278/3/5
f 287/3/5 284/3/5 283/3/5
f 287/3/5 283/3/5 269/3/5
f 288/3/5 284/3/5 287/3/5
f 289/3/5 284/3/5 288/3/5
f 290/3/5 286/3/5 285/3/5
f 291/3/5 274/3/5 286/3/5
f 291/3/5 286/3/5 290/3/5
f 292/3/5 274/3/5 291/3/5
f 293/3/5 289/3/5 288/3/5
f 293/3/5 290/3/5 289/3/5
f 293/3/5 291/3/5 290/3/5
f 294/3/5 291/3/5 293/3/5
f 299/4/5 296/4/5 295/4/5
f 300/4/5 296/4/5 299/4/5
f 301/4/5 298/4/5 297/4/5
f 302/4/5 298/4/5 301/4/5
f 307/4/5 304/4/5 303/4/5
f 308/4/5 304/4/5 307/4/5
f 309/4/5 306/4/5 305/4/5
f 310/4/5 306/4/5 309/4/5
f 313/4/5 312/4/5 311/4/5
f 314/4/5 312/4/5 313/4/5
f 315/4/6 316/4/6 317/4/6
f 317/4/6 316/4/6 318/4/6
f 319/4/6 320/4/6 324/4/6
f 324/4/6 320/4/6 325/4/6
f 321/4/6 322/4/6 326/4/6
f 326/4/6 322/4/6 327/4/6
f 323/3/6 324/3/6 330/3/6
f 327/3/6 328/3/6 331/3/6
f 329/3/6 330/3/6 333/3/6
f 330/3/6 324/3/6 334/3/6
f 333/3/6 330/3/6 334/3/6
f 331/3/6 332/3/6 335/3/6
f 327/3/6 331/3/6 335/3/6
f 335/3/6 332/3/6 336/3/6
f 334/3/6 324/3/6 337/3/6
f 337/3/6 324/3/6 338/3/6
f 327/3/6 335/3/6 339/3/6
f 339/3/6 335/3/6 340/3/6
f 341/4/6 342/4/6 344/4/6
f 344/4/6 342/4/6 345/4/6
f 343/4/6 344/4/6 347/4/6
f 345/4/6 346/4/6 347/4/6
f 344/4/6 345/4/6 347/4/6
f 347/4/6 346/4/6 348/4/6
f 343/4/6 347/4/6 349/4/6
f 347/1/6 348/1/6 350/1/6
f 349/4/6 347/4/6 350/4/6
f 348/4/6 346/4/6 351/4/6
f 350/1/6 348/1/6 351/1/6
f 351/4/6 346/4/6 352/4/6
f 353/4/6 354/4/6 357/4/6
f 354/1/6 355/1/6 358/1/6
f 357/4/6 354/4/6 358/4/6
f 355/4/6 356/4/6 359/4/6
f 358/1/6 355/1/6 359/1/6
f 359/4/6 356/4/6 360/4/6
f 361/4/6 362/4/6 365/4/6
f 362/1/6 363/1/6 366/1/6
f 365/4/6 362/4/6 366/4/6
f 363/4/6 364/4/6 367/4/6
f 366/1/6 363/1/6 367/1/6
f 367/4/6 364/4/6 368/4/6
f 369/4/6 370/4/6 373/4/6
f 370/1/6 371/1/6 374/1/6
f 373/4/6 370/4/6 374/4/6
f 371/4/6 372/4/6 375/4/6
f 374/1/6 371/1/6 375/1/6
f 375/4/6 372/4/6 376/4/6
f 377/4/6 378/4/6 379/4/6
f 379/4/6 378/4/6 380/4/6
